<svg xmlns="http://www.w3.org/2000/svg" xmlns:xlink="http://www.w3.org/1999/xlink" viewBox="0 0 104.74 71.91"><defs><clipPath id="a" transform="translate(0)"><rect width="104.74" height="71.91" style="fill:none"/></clipPath></defs><title>4</title><polygon points="45.91 30.93 45.91 63.41 18.5 63.41 14.3 67.74 14.3 71.91 54.41 71.91 54.41 39.44 90.48 39.44 90.48 30.93 45.91 30.93" style="fill:#201c5e"/><g style="clip-path:url(#a)"><path d="M14.3,32.57C6.44,32.57,0,39.46,0,47.26c0,11.3,14.3,24.64,14.3,24.64S28.6,58.57,28.6,47.26c0-7.8-6.44-14.69-14.3-14.69m0,20.26a6.53,6.53,0,0,1,0-13,6.53,6.53,0,0,1,0,13" transform="translate(0)" style="fill:#201c5e"/><path d="M90.44,0c-7.86,0-14.3,6.9-14.3,14.69,0,11.3,14.3,24.64,14.3,24.64s14.3-13.34,14.3-24.64C104.74,6.9,98.3,0,90.44,0" transform="translate(0)" style="fill:#cc1e44"/></g></svg>