<?xml version="1.0" encoding="utf-8"?>
<!-- Generator: Adobe Illustrator 22.1.0, SVG Export Plug-In . SVG Version: 6.00 Build 0)  -->
<svg version="1.1" id="Слой_1" xmlns="http://www.w3.org/2000/svg" xmlns:xlink="http://www.w3.org/1999/xlink" x="0px" y="0px"
	 viewBox="0 0 650 355.3" style="enable-background:new 0 0 650 355.3;" xml:space="preserve">
<rect x="111" y="7.1" style="fill:#C7E5F8;stroke:#2F3461;stroke-width:1.3809;stroke-miterlimit:10;" width="486.1" height="336.9"/>
<rect x="11.5" y="18.1" style="fill:#C7E5F8;stroke:#2F3461;stroke-width:1.3809;stroke-miterlimit:10;" width="66.3" height="243"/>
<rect x="77.8" y="0.8" style="fill:#2F3461;" width="33.1" height="122.3"/>
<rect x="0.5" y="12.6" style="fill:#2F3461;" width="88.4" height="11"/>
<rect x="105.4" y="1.6" style="fill:#2F3461;" width="508.2" height="16.6"/>
<rect x="597" y="12.6" style="fill:#2F3461;" width="16.6" height="160.2"/>
<rect x="77.8" y="228" style="fill:#2F3461;" width="33.1" height="71.8"/>
<rect x="66.8" y="255.6" style="fill:#2F3461;" width="44.2" height="99.6"/>
<rect x="83.4" y="338.5" style="fill:#2F3461;" width="530.2" height="16.6"/>
<rect x="597" y="250.1" style="fill:#2F3461;" width="16.6" height="104.9"/>
<rect x="414.8" y="12.6" style="fill:#2F3461;" width="5.5" height="154.7"/>
<rect x="442.4" y="12.6" style="fill:#2F3461;" width="11" height="49.7"/>
<rect x="447.9" y="56.8" style="fill:#2F3461;" width="5.5" height="88.4"/>
<rect x="420.3" y="139.6" style="fill:#2F3461;" width="33.1" height="5.5"/>
<rect x="414.8" y="123.1" style="fill:#2F3461;" width="38.7" height="5.5"/>
<rect x="420.3" y="62.3" style="fill:#2F3461;" width="33.1" height="5.5"/>
<rect x="414.8" y="73.4" style="fill:#2F3461;" width="38.7" height="5.5"/>
<rect x="370.6" y="161.7" style="fill:#2F3461;" width="110.5" height="5.5"/>
<rect x="541.8" y="161.7" style="fill:#2F3461;" width="60.8" height="5.5"/>
<rect x="558.4" y="261.2" style="fill:#2F3461;" width="44.2" height="5.5"/>
<rect x="464.5" y="261.2" style="fill:#2F3461;" width="44.2" height="5.5"/>
<rect x="464.5" y="239.1" style="fill:#2F3461;" width="5.5" height="104.9"/>
<g>
	
		<rect x="2.4" y="261" transform="matrix(-3.219960e-07 -1 1 -3.219960e-07 -258.923 274.6415)" style="fill:#2F3461;" width="10.9" height="11.5"/>
	
		<rect x="2.4" y="12.4" transform="matrix(-3.219961e-07 -1 1 -3.219961e-07 -10.2722 25.9905)" style="fill:#2F3461;" width="10.9" height="11.5"/>
	
		<rect x="2.4" y="95.3" transform="matrix(-3.219956e-07 -1 1 -3.219956e-07 -93.1558 108.8742)" style="fill:#2F3461;" width="10.9" height="11.5"/>
	
		<rect x="2.4" y="178.2" transform="matrix(-3.219956e-07 -1 1 -3.219956e-07 -176.0394 191.7578)" style="fill:#2F3461;" width="10.9" height="11.5"/>
	<g>
		<path style="fill:#2F3461;" d="M71.7,264.1v5.3H4.9v-5.3L71.7,264.1 M74.5,261.4l-72.4,0v10.9h72.4V261.4L74.5,261.4z"/>
	</g>
	<g>
		<path style="fill:#2F3461;" d="M71.7,15.4v5.3l-66.9,0v-5.3L71.7,15.4 M74.5,12.6l-72.4,0v10.9l72.4,0V12.6L74.5,12.6z"/>
	</g>
	<g>
		<path style="fill:#2F3461;" d="M10.8,15.5l0,254h-6l0-254H10.8 M13.6,12.7H2.1l0,259.5h11.5L13.6,12.7L13.6,12.7z"/>
	</g>
</g>
<path style="fill:#2F3461;" d="M95.4,183.5c9.7,0.3,18.8,4.1,25.7,10.9l0.4,0.4l-26.1,25.4v8.2h-6.8V122.2h6.8V183.5z M89.9,184.6
	V220H94l0.3-0.3v-35.1H89.9z M94.3,177.1v-48h-4.4v48H94.3z M119.9,194.8c-6.6-6.3-15.3-9.9-24.5-10.1v33.9L119.9,194.8z"/>
<g>
	<g>
		<path style="fill:#2F3461;" d="M603.3,174.6v74.6h-3v-74.6H603.3 M606,171.9h-8.5V252h8.5V171.9L606,171.9z"/>
	</g>
	<path style="fill:none;stroke:#2F3461;stroke-width:2.7617;stroke-linecap:round;stroke-miterlimit:10;" d="M649.5,226.7
		l-44.4-47.3h-6.8v64.9h6.8C621.7,244.4,637.7,239,649.5,226.7z"/>
	
		<rect x="598" y="172" transform="matrix(1.840104e-08 1 -1 1.840104e-08 777.6817 -425.8935)" style="fill:#2F3461;" width="7.6" height="7.8"/>
	
		<rect x="598" y="244.2" transform="matrix(1.839985e-08 1 -1 1.839985e-08 849.932 -353.6432)" style="fill:#2F3461;" width="7.6" height="7.8"/>
</g>
<polyline style="fill:none;stroke:#2F3461;stroke-width:1.0947;stroke-linecap:round;stroke-linejoin:round;stroke-miterlimit:10;" points="
	558.8,266.5 553.3,260.9 547.6,266.5 542,260.9 536.4,266.5 530.8,260.9 525.2,266.5 519.6,260.9 514,266.5 508.4,260.9 "/>
<g>
	<g>
		<path style="fill:#2F3461;" d="M540.5,164.1v1.4h-59.7v-1.4H540.5 M542.5,162.1h-63.6v5.3h63.6V162.1L542.5,162.1z"/>
	</g>
	<path style="fill:none;stroke:#2F3461;stroke-width:2.3582;stroke-linecap:round;stroke-miterlimit:10;" d="M497.8,209.3
		c13.5-14.2,27-28.5,40.5-42.7c0.2-1.1,0.4-2.2,0.6-3.3c-18.9,0.1-37.8,0.1-56.6,0.2c0,0.6,0.1,1.5,0.1,2.7
		c0.3,5.1,0.8,14.5,4.1,23.7C489.9,199.3,494.7,205.7,497.8,209.3z"/>
	
		<rect x="537.9" y="162.4" transform="matrix(-1 2.049573e-08 -2.049573e-08 -1 1080.2556 329.8544)" style="fill:#2F3461;" width="4.4" height="5"/>
	
		<rect x="478.9" y="162.4" transform="matrix(-1 1.973074e-08 -1.973074e-08 -1 962.3004 329.8544)" style="fill:#2F3461;" width="4.5" height="5"/>
</g>
<g>
	<g>
		<path style="fill:#2F3461;" d="M585.2,19.3c5.8,0,10.4,5.1,10.4,11.4l0.4,106c-0.2,7.4-5.8,13.5-12.7,13.5h-27.2
			c-6.8,0-12.5-6.1-12.7-13.5l0.4-106c0-6.3,4.7-11.4,10.4-11.4H585.2 M585.2,18h-31c-6.5,0-11.8,5.7-11.8,12.8l-0.4,106
			c0.2,8.2,6.4,14.8,14,14.8h27.2c7.6,0,13.8-6.6,14-14.8l-0.4-106C597,23.7,591.7,18,585.2,18L585.2,18z"/>
	</g>
	<g>
		<path style="fill:#2F3461;" d="M581,29.9c4,0,7.2,4,7.2,8.8l-1.5,83c-0.2,10-7.8,18.1-17,18.1s-16.8-8.1-17-18.1l-1.5-83
			c0-4.9,3.2-8.8,7.2-8.8H581 M581,28.6h-22.5c-4.7,0-8.6,4.5-8.6,10.2l1.5,83c0.2,10.8,8.4,19.4,18.3,19.4h0
			c10,0,18.1-8.6,18.3-19.4l1.5-83C589.6,33.1,585.7,28.6,581,28.6L581,28.6z"/>
	</g>
	<g>
		<path style="fill:#2F3461;" d="M569.8,40.5c1.5,0,2.7,1.4,2.7,3s-1.2,3-2.7,3s-2.7-1.4-2.7-3S568.3,40.5,569.8,40.5 M569.8,39.2
			c-2.2,0-4,2-4,4.4s1.8,4.4,4,4.4c2.2,0,4-2,4-4.4S572,39.2,569.8,39.2L569.8,39.2z"/>
	</g>
</g>
<g>
	<g>
		<path style="fill:#2F3461;" d="M517.5,33.7c1.1,0,2,1.1,2,2.4s-0.9,2.4-2,2.4s-2-1.1-2-2.4S516.4,33.7,517.5,33.7 M517.5,32.4
			c-1.8,0-3.3,1.6-3.3,3.7s1.5,3.7,3.3,3.7s3.3-1.6,3.3-3.7S519.3,32.4,517.5,32.4L517.5,32.4z"/>
	</g>
	<g>
		<path style="fill:#2F3461;" d="M540.3,19.1l-1.7,26.3c-0.3,4.4-3.6,7.8-7.5,7.8h-27.2c-3.9,0-7.3-3.4-7.5-7.8l-1.7-26.3H540.3
			 M541.7,17.8h-48.5l1.8,27.7c0.3,5.1,4.2,9.1,8.9,9.1h27.2c4.7,0,8.5-4,8.9-9.1L541.7,17.8L541.7,17.8z"/>
	</g>
	<g>
		<path style="fill:#2F3461;" d="M531.3,25.6c0.7,0,1.3,0.3,1.8,0.8c0.5,0.5,0.7,1.1,0.6,1.8l-1,14.5c-0.2,2.7-2.5,4.8-5.2,4.8
			h-19.9c-2.7,0-5-2.1-5.2-4.8l-1-14.5c0-0.7,0.2-1.3,0.6-1.8c0.5-0.5,1.1-0.8,1.8-0.8H531.3 M531.3,24.3h-27.6
			c-2.2,0-3.9,1.8-3.7,4l1,14.5c0.2,3.4,3.1,6.1,6.5,6.1h19.9c3.4,0,6.2-2.6,6.5-6.1l1-14.5C535.1,26.1,533.4,24.3,531.3,24.3
			L531.3,24.3z"/>
	</g>
</g>
<g>
	<g>
		<path style="fill:none;stroke:#2F3461;stroke-width:1.2927;stroke-miterlimit:10;" d="M486.6,33.7h1c2,0,3.7-1.9,3.7-4.2v-6.9
			c0-2.3-1.7-4.2-3.7-4.2h-28.9c-2,0-3.7,1.8-3.7,4.2v6.9c0,2.3,1.7,4.2,3.7,4.2h1.7"/>
	</g>
	<g>
		<path style="fill:none;stroke:#2F3461;stroke-width:1.2927;stroke-miterlimit:10;" d="M473.5,72.7c8.9,0,16.1-11,16.1-24.7
			c0-5.3-1.1-10.3-3-14.3h-26.1c-1.9,4-3,9-3,14.3C457.5,61.6,464.7,72.7,473.5,72.7z"/>
	</g>
</g>
<g>
	<path style="fill:#2F3461;" d="M327.8,17.9c1.4,0,2.5,1.1,2.5,2.5v35.7c0,1.4-1.1,2.5-2.5,2.5h-35.9c-1.4,0-2.5-1.1-2.5-2.5V20.4
		c0-1.4,1.1-2.5,2.5-2.5H327.8 M327.8,16.5h-35.9c-2.1,0-3.9,1.7-3.9,3.9v35.7c0,2.1,1.7,3.9,3.9,3.9h35.9c2.1,0,3.9-1.7,3.9-3.9
		V20.4C331.6,18.3,329.9,16.5,327.8,16.5L327.8,16.5z"/>
</g>
<g>
	<path style="fill:#2F3461;" d="M412.5,60.8c1.4,0,2.5,1.1,2.5,2.5v52.2c0,1.4-1.1,2.5-2.5,2.5h-35.7c-1.4,0-2.5-1.1-2.5-2.5V63.3
		c0-1.4,1.1-2.5,2.5-2.5H412.5 M412.5,59.4h-35.7c-2.1,0-3.9,1.7-3.9,3.9v52.2c0,2.1,1.7,3.9,3.9,3.9h35.7c2.1,0,3.9-1.7,3.9-3.9
		V63.3C416.4,61.2,414.7,59.4,412.5,59.4L412.5,59.4z"/>
</g>
<g>
	<path style="fill:#2F3461;" d="M412.6,17.9c1.4,0,2.5,1.1,2.5,2.5v35.7c0,1.4-1.1,2.5-2.5,2.5h-35.9c-1.4,0-2.5-1.1-2.5-2.5V20.4
		c0-1.4,1.1-2.5,2.5-2.5H412.6 M412.6,16.5h-35.9c-2.1,0-3.9,1.7-3.9,3.9v35.7c0,2.1,1.7,3.9,3.9,3.9h35.9c2.1,0,3.9-1.7,3.9-3.9
		V20.4C416.5,18.3,414.8,16.5,412.6,16.5L412.6,16.5z"/>
</g>
<g>
	<g>
		<path style="fill:#2F3461;" d="M285.6,17.9c1.4,0,2.5,1.1,2.5,2.5v35.7c0,1.4-1.1,2.5-2.5,2.5h-35.9c-1.4,0-2.5-1.1-2.5-2.5V20.4
			c0-1.4,1.1-2.5,2.5-2.5H285.6 M285.6,16.5h-35.9c-2.1,0-3.9,1.7-3.9,3.9v35.7c0,2.1,1.7,3.9,3.9,3.9h35.9c2.1,0,3.9-1.7,3.9-3.9
			V20.4C289.4,18.3,287.7,16.5,285.6,16.5L285.6,16.5z"/>
	</g>
	<g>
		<path style="fill:#2F3461;" d="M278.3,25.6c1.1,0,2,0.9,2,2v0.1l0,0.1l2.5,21.3c0,1.1-0.9,1.9-2,1.9h-26.4c-1.1,0-2-0.9-2-1.9
			l2.5-21.3l0-0.1v-0.1c0-1.1,0.9-2,2-2H278.3 M278.3,24.2h-21.5c-1.9,0-3.4,1.5-3.4,3.4L251,48.9c0,1.9,1.5,3.4,3.4,3.4h26.4
			c1.9,0,3.4-1.5,3.4-3.4l-2.5-21.4C281.7,25.7,280.2,24.2,278.3,24.2L278.3,24.2z"/>
	</g>
	<g>
		<path style="fill:#2F3461;" d="M267.6,33.3c1.3,0,2.3,1,2.3,2.3s-1,2.3-2.3,2.3c-1.3,0-2.3-1-2.3-2.3S266.3,33.3,267.6,33.3
			 M267.6,31.9c-2,0-3.7,1.6-3.7,3.7s1.7,3.7,3.7,3.7c2,0,3.7-1.6,3.7-3.7S269.7,31.9,267.6,31.9L267.6,31.9z"/>
	</g>
</g>
<g>
	<g>
		<path style="fill:#2F3461;" d="M370,17.9c1.4,0,2.5,1.1,2.5,2.5v35.7c0,1.4-1.1,2.5-2.5,2.5h-35.9c-1.4,0-2.5-1.1-2.5-2.5V20.4
			c0-1.4,1.1-2.5,2.5-2.5H370 M370,16.5h-35.9c-2.1,0-3.9,1.7-3.9,3.9v35.7c0,2.1,1.7,3.9,3.9,3.9H370c2.1,0,3.9-1.7,3.9-3.9V20.4
			C373.9,18.3,372.1,16.5,370,16.5L370,16.5z"/>
	</g>
	<g>
		<g>
			<path style="fill:#2F3461;" d="M343.4,23.8c3.2,0,5.9,2.6,5.9,5.8s-2.6,5.8-5.9,5.8c-3.2,0-5.9-2.6-5.9-5.8
				S340.2,23.8,343.4,23.8 M343.4,22.4c-4,0-7.3,3.2-7.3,7.2s3.2,7.2,7.3,7.2c4,0,7.3-3.2,7.3-7.2S347.4,22.4,343.4,22.4L343.4,22.4
				z"/>
		</g>
		<g>
			<path style="fill:#2F3461;" d="M360.7,41c3.2,0,5.9,2.6,5.9,5.8s-2.6,5.8-5.9,5.8c-3.2,0-5.9-2.6-5.9-5.8S357.5,41,360.7,41
				 M360.7,39.6c-4,0-7.3,3.2-7.3,7.2s3.2,7.2,7.3,7.2c4,0,7.3-3.2,7.3-7.2S364.7,39.6,360.7,39.6L360.7,39.6z"/>
		</g>
		<g>
			<path style="fill:#2F3461;" d="M360.7,23.8c3.2,0,5.9,2.6,5.9,5.8s-2.6,5.8-5.9,5.8c-3.2,0-5.9-2.6-5.9-5.8
				S357.5,23.8,360.7,23.8 M360.7,22.4c-4,0-7.3,3.2-7.3,7.2s3.2,7.2,7.3,7.2c4,0,7.3-3.2,7.3-7.2S364.7,22.4,360.7,22.4L360.7,22.4
				z"/>
		</g>
		<g>
			<path style="fill:#2F3461;" d="M343.4,41c3.2,0,5.9,2.6,5.9,5.8s-2.6,5.8-5.9,5.8c-3.2,0-5.9-2.6-5.9-5.8S340.2,41,343.4,41
				 M343.4,39.6c-4,0-7.3,3.2-7.3,7.2s3.2,7.2,7.3,7.2c4,0,7.3-3.2,7.3-7.2S347.4,39.6,343.4,39.6L343.4,39.6z"/>
		</g>
	</g>
</g>
<g>
	<g>
		<path style="fill:#2F3461;" d="M412.5,120.1c1.4,0,2.5,1.1,2.5,2.5v35.9c0,1.4-1.1,2.5-2.5,2.5h-35.7c-1.4,0-2.5-1.1-2.5-2.5
			v-35.9c0-1.4,1.1-2.5,2.5-2.5H412.5 M412.5,118.8h-35.7c-2.1,0-3.9,1.7-3.9,3.9v35.9c0,2.1,1.7,3.9,3.9,3.9h35.7
			c2.1,0,3.9-1.7,3.9-3.9v-35.9C416.4,120.5,414.7,118.8,412.5,118.8L412.5,118.8z"/>
	</g>
	<g>
		
			<line style="fill:none;stroke:#2F3461;stroke-width:1.3792;stroke-linecap:round;stroke-miterlimit:10;" x1="389.1" y1="140.6" x2="400.3" y2="140.6"/>
		
			<line style="fill:none;stroke:#2F3461;stroke-width:1.3792;stroke-linecap:round;stroke-miterlimit:10;" x1="390.7" y1="144.5" x2="398.7" y2="136.6"/>
		
			<line style="fill:none;stroke:#2F3461;stroke-width:1.3792;stroke-linecap:round;stroke-miterlimit:10;" x1="394.7" y1="146.2" x2="394.7" y2="134.9"/>
		
			<line style="fill:none;stroke:#2F3461;stroke-width:1.3792;stroke-linecap:round;stroke-miterlimit:10;" x1="398.7" y1="144.5" x2="390.7" y2="136.6"/>
	</g>
</g>
<path style="fill:none;stroke:#2F3461;stroke-width:1.3792;stroke-miterlimit:10;" d="M372.2,17.1c0.4,0.1,0.6,0.6,0.6,1
	c0.1,0.4,0.4,0.9,0.8,0.8c0.1,0,0.2-0.2,0.3-0.3c0.2-0.2,0.4-0.4,0.5-0.6c0.1-0.1,0.2-0.2,0.2-0.3c0-0.3-0.3-0.4-0.6-0.4
	c-0.7-0.1-1.3-0.2-2-0.4"/>
<path style="fill:none;stroke:#2F3461;stroke-width:1.3792;stroke-miterlimit:10;" d="M413.4,59.6c1-0.2,2-0.4,3.1-0.6
	c-0.2,0.4-0.4,0.8-0.7,1.1c-0.1,0.2-0.3,0.3-0.5,0.3c-0.1,0-0.3-0.1-0.4-0.1c-0.2-0.1-0.5,0-0.7-0.1
	C413.9,60.1,413.8,59.7,413.4,59.6"/>
<path style="fill:none;stroke:#2F3461;stroke-width:1.3792;stroke-miterlimit:10;" d="M413.5,118.8c0.7-0.2,1.4-0.4,2-0.6
	c0.1,0.5,0,1.1-0.1,1.6c0,0.1-0.1,0.2-0.2,0.3c-0.1,0-0.2,0-0.3-0.1c-0.1-0.1-0.1-0.2-0.2-0.3c-0.1-0.1-0.2-0.2-0.3-0.3
	c-0.3-0.2-0.6-0.4-0.9-0.6"/>
<path style="fill:#2F3461;stroke:#2F3461;stroke-width:1.3792;stroke-miterlimit:10;" d="M582.5,16.8c1.2,0.1,6.5,0.7,10.5,5.1
	c3.2,3.5,3.9,7.4,4,8.9c0.3-4.9,0.7-9.9,1-14.8C592.8,16.2,587.6,16.5,582.5,16.8z"/>
<g>
	<path style="fill:none;stroke:#2F3461;stroke-width:1.3792;stroke-miterlimit:10;" d="M128,22.5v21.3c0,2.2,1.7,3.9,3.9,3.9H226
		c2.1,0,3.9-1.7,3.9-3.9V22.5c0-2.1-1.7-3.9-3.9-3.9h-94.1C129.7,18.6,128,20.4,128,22.5z M216.5,31.6c0.3,0,0.6,0.2,0.7,0.4
		l2.1,4.7c0.2,0.5-0.1,1-0.7,1c-3.4,0-13.9,0-26.3,0h-27c-12.4,0-22.9,0-26.3,0c-0.6,0-0.9-0.5-0.7-1l2.1-4.7
		c0.1-0.2,0.4-0.4,0.7-0.4H216.5z"/>
	<g>
		<path style="fill:none;stroke:#2F3461;stroke-width:1.3792;stroke-miterlimit:10;" d="M178.9,28c5.9,0,11,1.5,13.5,3.7h-27.1
			C167.9,29.5,173,28,178.9,28z"/>
	</g>
</g>
<g>
	<path style="fill:none;stroke:#2F3461;stroke-width:1.3792;stroke-miterlimit:10;" d="M357.1,338.7h5.7c2.1,0,3.9-1.7,3.9-3.9v-1.5
		v-40c0-2.1-1.7-3.9-3.9-3.9h-5.7c-2.1,0-3.9,1.7-3.9,3.9l0,32.2"/>
	<path style="fill:none;stroke:#2F3461;stroke-width:1.3792;stroke-miterlimit:10;" d="M263.8,338.7h-5.7c-2.1,0-3.9-1.7-3.9-3.9
		v-1.5l0-40c0-2.1,1.7-3.9,3.9-3.9h5.7c2.1,0,3.9,1.7,3.9,3.9v32.2"/>
	<path style="fill:none;stroke:#2F3461;stroke-width:1.3792;stroke-miterlimit:10;" d="M271.5,289.3l77.9,0c2.1,0,3.9,1.7,3.9,3.9
		l0,28.1c0,2.1-1.7,3.9-3.9,3.9l-77.9,0c-2.1,0-3.9-1.7-3.9-3.9l0-28.1C267.6,291.1,269.4,289.3,271.5,289.3z"/>
	<path style="fill:none;stroke:#2F3461;stroke-width:1.3792;stroke-miterlimit:10;" d="M263.1,331.3l4.1-5.5
		c0.3-0.4,0.7-0.6,1.1-0.6l84.2,0c0.5,0,0.9,0.2,1.1,0.6l3.8,5.5c0.3,0.4,0.7,0.6,1.1,0.6h6.7c0.8,0,1.4,0.6,1.4,1.4v1.5
		c0,2.1-1.7,3.9-3.9,3.9l-104.6,0c-2.1,0-3.9-1.7-3.9-3.9v-1.5c0-0.8,0.6-1.4,1.4-1.4h6.4C262.4,331.8,262.8,331.6,263.1,331.3z"/>
</g>
<g>
	<path style="fill:none;stroke:#2F3461;stroke-width:1.3792;stroke-miterlimit:10;" d="M450.6,275.4l3.6-4.4
		c1.4-1.6,1.2-4.1-0.5-5.5l-1.2-1l-30.5-25.7c-1.6-1.4-4.1-1.1-5.4,0.5l-3.6,4.4c-1.4,1.7-1.2,4.1,0.5,5.5l24.5,20.7"/>
	<path style="fill:none;stroke:#2F3461;stroke-width:1.3792;stroke-miterlimit:10;" d="M420.6,311.1l-3.6,4.4
		c-1.4,1.7-3.8,1.8-5.4,0.5l-1.2-1l-30.5-25.7c-1.6-1.4-1.9-3.8-0.5-5.5l3.6-4.4c1.4-1.6,3.8-1.8,5.4-0.5l24.5,20.6"/>
	<path style="fill:none;stroke:#2F3461;stroke-width:1.3792;stroke-miterlimit:10;" d="M388,273.6l20-23.9c1.4-1.6,3.8-1.9,5.4-0.5
		l21.4,18.1c1.6,1.4,1.8,3.8,0.5,5.5l-20,23.9c-1.4,1.6-3.8,1.9-5.4,0.5L388.5,279C386.9,277.6,386.6,275.2,388,273.6z"/>
	<path style="fill:none;stroke:#2F3461;stroke-width:1.3792;stroke-miterlimit:10;" d="M414.6,306.9l-1.6-6.7
		c-0.1-0.4,0-0.9,0.3-1.2l24.1-28.8c0.3-0.3,0.7-0.5,1.2-0.5l6.6,0.6c0.4,0,0.9-0.1,1.2-0.5l4.3-5.1c0.5-0.6,1.4-0.7,1.9-0.2l1.2,1
		c1.6,1.4,1.8,3.8,0.5,5.5L417,315.5c-1.4,1.6-3.8,1.9-5.4,0.5l-1.2-1c-0.6-0.5-0.7-1.4-0.2-1.9l4.1-4.9
		C414.6,307.8,414.7,307.4,414.6,306.9z"/>
</g>
<g>
	<ellipse style="fill:none;stroke:#2F3461;stroke-width:1.3837;stroke-miterlimit:10;" cx="193.8" cy="130" rx="41.8" ry="42.5"/>
	<g>
		<g>
			<g>
				<path style="fill:none;stroke:#2F3461;stroke-width:1.3837;stroke-miterlimit:10;" d="M164,84.2l-15,15.3
					c-1.3,1.3-3.4,1.3-4.7,0l-15-15.3c-1.3-1.3-1.3-3.4,0-4.8l15-15.3c1.3-1.3,3.4-1.3,4.7,0l15,15.3
					C165.2,80.8,165.2,82.9,164,84.2z"/>
				<line style="fill:none;stroke:#2F3461;stroke-width:1.3837;stroke-miterlimit:10;" x1="135" y1="90.6" x2="155.2" y2="70.1"/>
			</g>
		</g>
		<g>
			<g>
				<path style="fill:none;stroke:#2F3461;stroke-width:1.3837;stroke-miterlimit:10;" d="M223.7,175.7l15-15.3
					c1.3-1.3,3.4-1.3,4.7,0l15,15.3c1.3,1.3,1.3,3.4,0,4.8l-15,15.3c-1.3,1.3-3.4,1.3-4.7,0l-15-15.3
					C222.4,179.2,222.4,177,223.7,175.7z"/>
				
					<line style="fill:none;stroke:#2F3461;stroke-width:1.3837;stroke-miterlimit:10;" x1="252.6" y1="169.3" x2="232.5" y2="189.9"/>
			</g>
		</g>
		<g>
			<g>
				<path style="fill:none;stroke:#2F3461;stroke-width:1.3837;stroke-miterlimit:10;" d="M238.7,99.6l-15-15.3
					c-1.3-1.3-1.3-3.4,0-4.8l15-15.3c1.3-1.3,3.4-1.3,4.7,0l15,15.3c1.3,1.3,1.3,3.4,0,4.8l-15,15.3
					C242.1,100.9,240,100.9,238.7,99.6z"/>
				<line style="fill:none;stroke:#2F3461;stroke-width:1.3837;stroke-miterlimit:10;" x1="232.5" y1="70.1" x2="252.6" y2="90.6"/>
			</g>
		</g>
		<g>
			<g>
				<path style="fill:none;stroke:#2F3461;stroke-width:1.3837;stroke-miterlimit:10;" d="M148.9,160.4l15,15.3
					c1.3,1.3,1.3,3.4,0,4.8l-15,15.3c-1.3,1.3-3.4,1.3-4.7,0l-15-15.3c-1.3-1.3-1.3-3.4,0-4.8l15-15.3
					C145.5,159.1,147.6,159.1,148.9,160.4z"/>
				<line style="fill:none;stroke:#2F3461;stroke-width:1.3837;stroke-miterlimit:10;" x1="155.2" y1="189.9" x2="135" y2="169.3"/>
			</g>
		</g>
	</g>
</g>
<path style="fill:#2F3461;" d="M151.2,291.1c0.4,0,0.8-0.1,1.3-0.2c0.4-0.1,0.9-0.1,1.3-0.2c0.1,0,0.2,0,0.3-0.1
	c0.3-0.1,0.7-0.2,1-0.3c0.7-0.2,1.3-0.4,1.9-0.6c0.4-0.1,0.8-0.3,1.1-0.4c0.3-0.1,0.7-0.3,1-0.4c0.4-0.2,0.8-0.4,1.2-0.6
	c0.6-0.3,1.2-0.6,1.8-1c0.2-0.1,0.3-0.2,0.5-0.3c0.3-0.2,0.6-0.4,0.9-0.6c0.3-0.2,0.5-0.4,0.8-0.6c0.6-0.5,1.2-1,1.8-1.5
	c2.6,1.1,5.5,1.7,8.5,1.7c4.8,0,9.2-1.5,12.9-4.1c0,0.1,0.1,0.1,0.1,0.1c0.1,0.1,0.1,0.1,0.1,0.1c0.1,0.1,0.2,0.2,0.3,0.3
	c0.5,0.5,1,1.1,1.5,1.6c0.4,0.4,0.8,0.7,1.3,1.1c0,0,0.1,0,0.1,0.1c0.2,0.2,0.5,0.4,0.8,0.6c0.7,0.5,1.4,0.9,2.1,1.3
	c0.4,0.3,0.8,0.4,1.2,0.6c0.6,0.3,1.2,0.5,1.7,0.8c0.5,0.2,0.9,0.3,1.4,0.5c0.4,0.2,0.9,0.3,1.3,0.4c0.5,0.1,0.9,0.2,1.4,0.3
	c0.4,0.1,0.8,0.1,1.2,0.2c0,0,0.1,0,0.1,0c0.1,0,0.2,0.1,0.4,0h0c0.1,0.1,0.1,0.1,0.2,0c0.1,0,0.2,0,0.3,0.1c0.1-0.6,0.1-1.3,0.1-2
	c0-6-2.3-11.6-6.1-15.8c-0.4-0.4-0.8-0.9-1.3-1.3c0-0.1,0.1-0.2,0.1-0.2c0.5,0.1,1,0.3,1.5,0.4c0.5,0.1,1,0.2,1.6,0.3
	c0.5,0.1,0.9,0.1,1.3,0.1c0.4,0,0.8,0.1,1.2,0.1c0.1,0,0.2,0,0.3,0c0.1,0,0.2,0,0.3,0c0.2,0,0.4,0,0.6,0c0.2,0,0.4,0,0.6,0
	c0.4,0,0.8-0.1,1.2-0.1c0.4,0,0.8-0.1,1.3-0.2c0.4-0.1,0.9-0.1,1.3-0.3c0.5-0.1,1-0.2,1.5-0.4c0.2-0.1,0.5-0.1,0.8-0.2
	c0,0,0.1,0,0.1,0c0.2-0.1,0.4-0.2,0.7-0.3c0.1,0,0.1,0,0.1-0.1c0.3-0.1,0.6-0.2,0.9-0.4c0.2-0.1,0.3-0.1,0.5-0.2
	c0.4-0.2,0.9-0.4,1.3-0.6c0,0,0,0,0.1,0c0.3-0.2,0.7-0.3,1-0.6c0.1-0.1,0.2-0.1,0.3-0.2c0.4-0.2,0.8-0.5,1.1-0.7
	c0.5-0.4,0.9-0.7,1.4-1.1c-0.3-0.4-0.6-0.7-0.9-1c-0.3-0.3-0.6-0.6-0.9-0.9c-0.8-0.8-1.6-1.5-2.5-2.1c-0.4-0.3-0.9-0.6-1.3-0.9
	c-0.5-0.3-0.9-0.6-1.4-0.8c-0.2-0.1-0.5-0.2-0.7-0.3c-0.2-0.1-0.4-0.3-0.7-0.3c-0.5-0.3-1.1-0.5-1.7-0.7c-0.4-0.1-0.8-0.3-1.2-0.4
	c-0.5-0.1-1-0.3-1.5-0.4c-0.4-0.1-0.8-0.2-1.2-0.3c-0.2-0.1-0.5-0.1-0.7-0.1c-0.3-0.1-0.7-0.1-1-0.1c-0.1,0-0.2,0-0.2,0
	c-1-0.1-2-0.1-2.9,0c-0.2,0-0.4,0-0.6,0c-0.2,0-0.4,0-0.6,0.1c-1.2-5.7-4.5-10.6-9-13.9c0.7-2.4,1-4.9,1-7.5c0-4.4-1-8.9-3.2-13.1
	l-1-1.9l-1.9,1c-5.2,2.8-9.1,7.1-11.6,12.1c-0.5,1.1-1,2.2-1.4,3.4c-0.3,0.8-0.5,1.6-0.7,2.4c-0.2,0.1-0.3,0.1-0.5,0.1
	c-0.1-0.1-0.2-0.2-0.3-0.3c-0.3-0.3-0.6-0.6-0.9-0.9c-0.1-0.2-0.3-0.3-0.4-0.4c-0.8-0.8-1.6-1.5-2.5-2.1c-4.2-3.1-9.3-4.9-14.8-5.2
	l-2-0.1l-0.1,2c0,0.4,0,0.8,0,1.2c0,6.9,2.5,13.3,6.6,18.2c-1.4,3-2.1,6.3-2.1,9.8c0,4.1,1,7.9,2.9,11.2c-0.3,0.4-0.7,0.8-1,1.3
	c-0.2,0.3-0.5,0.7-0.7,1c-0.2,0.3-0.3,0.5-0.5,0.8c-0.1,0.2-0.3,0.5-0.4,0.7c-0.7,1.3-1.4,2.6-1.9,4c-0.1,0.2-0.2,0.5-0.2,0.7
	c-0.1,0.2-0.1,0.5-0.2,0.7c-0.1,0.4-0.2,0.8-0.4,1.3c-0.1,0.5-0.2,1-0.4,1.6c0,0.2-0.1,0.4-0.1,0.7c0,0.1,0,0.2-0.1,0.3
	c-0.1,0.6-0.1,1.1-0.2,1.7c-0.1,0.8-0.1,1.5-0.1,2.3C149.4,291.2,150.3,291.2,151.2,291.1z M151,289.7c1.7-1.7,5.2-5.3,8.9-9.1
	c0.3-0.3,0.6-0.7,1-1c4.8-4.9,9.9-10.1,12.1-12.4c-0.5,6-3.2,11.5-7.2,15.4c-0.4,0.4-0.7,0.7-1.1,1.1
	C160.8,287,156.2,289.2,151,289.7z M174.5,284.6c-2.6,0-5.1-0.5-7.4-1.3c0.5-0.6,1.1-1.2,1.6-1.8c0.5-0.6,1-1.3,1.4-1.9
	c0.4-0.7,0.9-1.3,1.2-2c0-0.1,0.1-0.1,0.1-0.1c0.3-0.7,0.7-1.3,1-2c0.2-0.4,0.3-0.8,0.5-1.1c0.1-0.4,0.3-0.8,0.4-1.1
	c0.3-0.8,0.5-1.6,0.7-2.4c0.1-0.4,0.2-0.8,0.2-1.2c0.1-0.4,0.1-0.9,0.2-1.4c0.1-0.3,0.1-0.7,0.1-1c0-0.1,0-0.2,0-0.3
	c0-0.3,0.1-0.7,0.1-1v0l2.5-2.2c0.1-0.1,0.1-0.2,0.2-0.3l0.4,0.1l4.3,2.8c0,0.2,0,0.5,0,0.7c0,1.5,0.1,3,0.4,4.4
	c0.3,1.5,0.7,2.8,1.2,4.2c0.5,1.3,1.2,2.6,1.9,3.8c0.4,0.6,0.7,1.1,1.1,1.6C183.1,283.2,178.9,284.6,174.5,284.6z M175.6,261.1
	l0.9,0.6l-0.9-0.1L175.6,261.1z M185.7,265.5c-0.1,0-0.1,0-0.2-0.1c-0.5-0.1-1-0.2-1.4-0.3c-0.5-0.1-1-0.2-1.5-0.2h0l-2.1-1.4
	l4.5,0.4c0.5,0.6,1.2,1.2,1.8,1.8C186.5,265.6,186.1,265.5,185.7,265.5z M188.5,281c-0.3-0.4-0.6-0.7-0.9-1.1
	c-2.6-3.5-4.3-7.8-4.4-12.5l7.7,9.2l0.9,1.1l8.7,10.5C195.8,287.3,191.6,284.7,188.5,281z M201.7,287.5l-9-10.8l-0.9-1.1l-7.5-9
	c3.7,0.7,7,2.5,9.8,4.9c0.4,0.3,0.7,0.6,1.1,1C199,276.3,201.5,281.6,201.7,287.5z M196.2,269.5c-0.4-0.1-0.9-0.2-1.3-0.4
	c-2.9-1-5.5-2.6-7.8-4.9l8.6,0.9l1.4,0.1l16.8,1.7C208.5,270.3,202,271.2,196.2,269.5z M201,259.3c4.9,0.5,9.4,2.6,12.9,6.1
	l-16.8-1.7l-1.4-0.1l-8.6-0.9c2.6-1.7,5.4-2.8,8.4-3.3c0.5-0.1,0.9-0.1,1.4-0.2C198.3,259.2,199.6,259.2,201,259.3z M195.3,258.1
	c-0.5,0.1-1,0.2-1.5,0.3c-0.4,0.1-0.7,0.2-1,0.3c-0.5,0.1-1,0.3-1.4,0.4c-0.6,0.2-1.2,0.5-1.8,0.8c-0.4,0.2-0.8,0.4-1.3,0.6
	c0,0,0,0-0.1,0c0,0,0,0-0.1,0c-0.2,0.1-0.4,0.2-0.6,0.3c-0.4,0.3-0.8,0.5-1.2,0.8c-0.4,0.3-0.8,0.6-1.2,0.8l-5.6-0.6
	c0-0.1-0.1-0.1-0.2-0.2l-3-1.9c0.9-0.6,1.8-1.2,2.6-1.9c0.5-0.4,0.9-0.8,1.4-1.3c0.5-0.4,0.9-0.9,1.3-1.3c0,0,0,0,0,0
	c0.9-0.9,1.6-1.9,2.3-2.9c0.7-1.1,1.3-2.1,1.9-3.2c0.5-0.9,0.9-1.9,1.2-2.9c0.1-0.2,0.2-0.5,0.2-0.7
	C191.2,248.6,194.1,253,195.3,258.1z M187.2,236.6c0,2.3-0.3,4.5-0.9,6.7c-0.1,0.5-0.2,0.9-0.4,1.4c-1.8,5.7-5.4,10.7-10.4,14
	c0-1.4-0.2-2.7-0.4-4l3.9-12.9l0.4-1.3l4.8-16C186.2,228.2,187.2,232.4,187.2,236.6z M170.3,240.3c1.8-6.9,6.3-12.8,12.7-16.3
	l-4.9,16.2l-0.4,1.3l-3.1,10.4c-1-3.5-2.6-6.7-4.8-9.5c0-0.3,0.1-0.5,0.1-0.7C170,241.2,170.1,240.8,170.3,240.3z M166.9,241.2
	c0.4,0.4,0.7,0.7,1,1.1c0.2,0.2,0.3,0.4,0.4,0.6c0.4,0.5,0.8,1,1.2,1.5c2.1,3,3.6,6.4,4.3,10.1c0,0,0,0,0,0c0.2,1.1,0.4,2.2,0.4,3.4
	c0,0.5,0.1,1.1,0.1,1.6v0.2v2.8c0,0.3,0-2.3,0-2l-0.5-0.6l-0.1-0.1l-1.1-1.2l-1.4-1.5l-2.3-2.5v0l-7.8-8.6l-0.9-1l-10.6-11.7
	C156.5,233.7,162.5,236.6,166.9,241.2z M148.7,235c0-0.3,0-0.5,0-0.7l10.5,11.6l0.9,1l9.9,11l2.1,2.3l1.1,1.2v0.1
	c-0.5,0-1-0.1-1.4-0.1c-0.1,0-0.1,0-0.1,0c-6.4-0.8-12-3.8-16.1-8.4c-0.3-0.4-0.7-0.8-1-1.1C150.9,247.2,148.7,241.3,148.7,235z
	 M153.2,262.9c0-3.1,0.6-6,1.8-8.6c0.3,0.3,0.6,0.6,0.9,0.9c0.9,0.9,1.9,1.7,2.9,2.5c0,0,0,0,0,0c0.7,0.5,1.4,1,2.1,1.4
	c0.4,0.3,0.8,0.5,1.2,0.7c1,0.6,2.1,1,3.2,1.5c0.5,0.2,1,0.4,1.6,0.5c0.8,0.2,1.6,0.4,2.4,0.6c1.3,0.3,2.7,0.4,4,0.5l0.3,0l1.8,0.2
	l-2,1.8c-0.4,0-0.7,0-1,0.1c-0.2,0-0.4,0.1-0.6,0.1c-0.4,0.1-0.8,0.1-1.2,0.2c-0.8,0.1-1.7,0.3-2.5,0.5c-0.4,0.1-0.9,0.2-1.2,0.4
	c-1.1,0.3-2.2,0.8-3.2,1.3c-0.2,0.1-0.3,0.1-0.5,0.2c-0.3,0.2-0.7,0.3-1,0.5c-0.2,0.1-0.5,0.3-0.7,0.4c-0.5,0.3-1,0.6-1.4,0.9
	c-0.2,0.2-0.5,0.3-0.8,0.5c-0.5,0.4-1.1,0.8-1.6,1.3c-0.2,0.1-0.4,0.3-0.6,0.5c-0.5,0.4-0.9,0.9-1.3,1.3l0,0
	C154,270,153.2,266.6,153.2,262.9z M155.4,275.4c0.3-0.4,0.6-0.8,1-1.1c3.9-4.4,9.4-7.3,15.5-7.9c-2.3,2.3-7.3,7.4-12,12.3l-1,1
	c-3.7,3.8-7.1,7.3-8.8,9C150.5,283.7,152.5,279.1,155.4,275.4z"/>
<g>
	<g>
		<g>
			<path style="fill:#2F3461;" d="M593.6,306c1.5,0,2.8,1.2,2.8,2.8v25.6c0,1.5-1.2,2.8-2.8,2.8H473.5c-1.5,0-2.8-1.2-2.8-2.8v-25.6
				c0-1.5,1.2-2.8,2.8-2.8H593.6 M593.6,304.5H473.5c-2.3,0-4.3,1.9-4.3,4.3v25.6c0,2.3,1.9,4.3,4.3,4.3h120.1
				c2.3,0,4.3-1.9,4.3-4.3v-25.6C597.8,306.4,595.9,304.5,593.6,304.5L593.6,304.5z"/>
		</g>
	</g>
	<line style="fill:none;stroke:#2F3461;stroke-width:1.4485;stroke-miterlimit:10;" x1="469.7" y1="321.6" x2="597.4" y2="321.6"/>
	
		<line style="fill:none;stroke:#2F3461;stroke-width:1.4723;stroke-linecap:round;stroke-miterlimit:10;" x1="492.6" y1="311" x2="494.4" y2="332.2"/>
	
		<line style="fill:none;stroke:#2F3461;stroke-width:1.4723;stroke-linecap:round;stroke-miterlimit:10;" x1="515.6" y1="311" x2="511.9" y2="332.1"/>
	
		<line style="fill:none;stroke:#2F3461;stroke-width:1.4723;stroke-linecap:round;stroke-miterlimit:10;" x1="592.1" y1="311.3" x2="585.9" y2="331.9"/>
	
		<line style="fill:none;stroke:#2F3461;stroke-width:1.4723;stroke-linecap:round;stroke-miterlimit:10;" x1="525.3" y1="312.6" x2="538.3" y2="330.5"/>
	
		<line style="fill:none;stroke:#2F3461;stroke-width:1.4723;stroke-linecap:round;stroke-miterlimit:10;" x1="544.9" y1="311.6" x2="553.5" y2="331.6"/>
	
		<line style="fill:none;stroke:#2F3461;stroke-width:1.4723;stroke-linecap:round;stroke-miterlimit:10;" x1="566.8" y1="311" x2="569.1" y2="332.2"/>
	
		<line style="fill:none;stroke:#2F3461;stroke-width:1.4723;stroke-linecap:round;stroke-miterlimit:10;" x1="580.4" y1="311" x2="577.5" y2="332.2"/>
	
		<line style="fill:none;stroke:#2F3461;stroke-width:1.4723;stroke-linecap:round;stroke-miterlimit:10;" x1="474.9" y1="311.7" x2="484" y2="331.5"/>
</g>
<path style="fill:#2F3461;stroke:#2F3461;stroke-width:0.949;stroke-miterlimit:10;" d="M469.1,334.1c0.4,0,0.4,1.1,1.7,2.4
	c0.2,0.2,0.7,0.7,1.4,1c1.4,0.7,2.8,0.4,3.5,0.2c-0.1,0.2-1.1,2-3.2,2.2c-1.6,0.2-3.4-0.7-4-2.2
	C467.7,336.1,468.6,334.1,469.1,334.1z"/>
<path style="fill:#2F3461;stroke:#2F3461;stroke-width:0.949;stroke-miterlimit:10;" d="M598.1,332.6c-0.1,0-0.2,2.8-2.2,5
	c-0.9,1-1.9,1.7-2.7,2.1c1.4,0,2.8-0.1,4.2-0.1C598.2,334.1,598.2,332.6,598.1,332.6z"/>
<g>
	<path style="fill:#FFFFFF;stroke:#2F3461;stroke-width:1.3792;stroke-linejoin:round;stroke-miterlimit:10;" d="M388.3,175.9V264
		h-94.7c-24.4,0-44.2-19.7-44.2-44v0c0-24.3,19.8-44,44.2-44H388.3"/>
	
		<line style="fill:none;stroke:#2F3461;stroke-width:1.3792;stroke-linejoin:round;stroke-miterlimit:10;" x1="306.1" y1="175.9" x2="306.1" y2="264"/>
	
		<line style="fill:none;stroke:#2F3461;stroke-width:1.3792;stroke-linejoin:round;stroke-miterlimit:10;" x1="306.1" y1="219.9" x2="388.3" y2="219.9"/>
	<g>
		<path style="fill:#2F3461;" d="M272.8,237v-29.9l-4.9,5.9l-2.9-2.2l9.6-11.5h2.4V237H272.8z"/>
		<path style="fill:#2F3461;" d="M297.7,225.6l-1.2,1.3c-1.2-1.3-2.6-1.9-4.2-1.9c-2.8,0-5.1,2.2-5.1,5.2c0,3,2.3,5.1,5.1,5.1
			c1.7,0,3.1-0.6,4.2-1.9l1.2,1.3c-1.3,1.5-3.3,2.5-5.5,2.5c-3.9,0-7.1-3.2-7.1-7.1c0-3.9,3.2-7.1,7.1-7.1
			C294.4,223,296.4,224,297.7,225.6z"/>
	</g>
	<g>
		<path style="fill:#2F3461;" d="M320.6,206.8v-13.5l-2.2,2.6l-1.3-1l4.3-5.2h1.1v17H320.6z"/>
		<path style="fill:#2F3461;" d="M332.9,196.6c0.6-0.1,1.1-0.2,2-0.2c3.4,0.2,5.1,2.2,5.1,4.9c0,3.3-2.3,5.6-6.2,5.7h-0.2
			c-3.2,0-5.5-1.5-6.8-3.6l1.3-1.2c1.3,2,3.1,3,5.5,3h0.2c2.6-0.1,4.4-1.7,4.4-4.2c0-2.1-1.3-3.5-4.5-3.5c-1.1,0-2.1,0.3-2.9,0.7
			l-1-0.7l6.6-5.8h-8.1v-1.8h11.1v1.1L332.9,196.6z"/>
		<path style="fill:#2F3461;" d="M344.3,209.7H343l1.5-4.9h2L344.3,209.7z"/>
		<path style="fill:#2F3461;" d="M361.8,202c0,3-2.4,4.9-6,4.9h-0.1c-3.7,0-6.1-1.9-6.1-4.9c0-2.2,1.4-3.8,3.5-4.3
			c-1.5-0.6-2.8-1.7-2.8-3.8c0-2.5,2.2-4.3,5.4-4.3h0.2c3.1,0,5.3,1.8,5.3,4.3c0,2.1-1.3,3.3-2.8,3.8
			C360.3,198.3,361.8,199.8,361.8,202z M359.9,201.7c0-2.2-1.7-3.4-4.3-3.5c-1.5,0-4.3,0.6-4.3,3.5c0,2.2,1.8,3.5,4.3,3.5
			C358.1,205.2,359.9,203.9,359.9,201.7z M355.6,197.1c1.9,0,3.6-0.8,3.6-2.9s-1.7-2.9-3.6-2.9c-1.9,0-3.6,0.9-3.6,2.9
			S353.7,197.1,355.6,197.1z"/>
		<path style="fill:#2F3461;" d="M367.6,191.6v5.4c0.9-0.6,2.5-1.2,4.4-1.2c3.6,0,5.7,2.2,5.7,5.5c0,3-2.3,5.6-6.2,5.7h-0.2
			c-3.2,0-5.4-1.5-6.7-3.6l1.3-1.2c1.3,2,3,3,5.5,3h0.1c2.5-0.1,4.4-1.6,4.4-4c0-2.5-1.6-3.9-4.5-3.9c-1.8,0-3.6,0.8-4.5,1.5l-1-0.7
			v-8.3h10.3v1.8H367.6z"/>
	</g>
	<g>
		<path style="fill:#2F3461;" d="M310.5,251.2v-1.1l7.7-6.6c2-1.8,2.9-2.8,2.9-4.4c0-2.1-1.9-3.3-4-3.3l-0.2,0
			c-1.8,0-3.4,0.7-4.8,2.4l-1.3-1.2c1.6-2,3.8-3,6.2-3h0.3c3.4,0,5.7,2.1,5.7,4.8c0,2.3-1.4,3.9-4.3,6.3l-4.8,4.3h9.6v1.8H310.5z"/>
		<path style="fill:#2F3461;" d="M337.5,251.2h-1.9v-3.4h-9.5v-1.1l10.3-12.6h1.1V246h2v1.8h-2V251.2z M328.4,246h7.1v-8.5
			L328.4,246z"/>
		<path style="fill:#2F3461;" d="M343.5,254.1h-1.3l1.5-4.9h2L343.5,254.1z"/>
		<path style="fill:#2F3461;" d="M360.9,246.4c0,3-2.4,4.9-6,5h-0.1c-3.7,0-6.1-1.9-6.1-5c0-2.2,1.4-3.8,3.5-4.3
			c-1.5-0.5-2.8-1.7-2.8-3.8c0-2.5,2.2-4.3,5.4-4.3h0.2c3.1,0.1,5.3,1.8,5.3,4.3c0,2.1-1.3,3.3-2.8,3.8
			C359.5,242.7,360.9,244.2,360.9,246.4z M359.1,246.1c0-2.2-1.7-3.4-4.3-3.5c-1.5,0-4.3,0.6-4.3,3.5c0,2.2,1.8,3.5,4.3,3.5
			C357.3,249.6,359.1,248.3,359.1,246.1z M354.8,241.5c1.9,0,3.6-0.8,3.6-2.9s-1.7-2.9-3.6-2.9c-1.9,0-3.6,0.9-3.6,2.9
			S352.9,241.5,354.8,241.5z"/>
		<path style="fill:#2F3461;" d="M381.6,242.7c0,4.8-3.9,8.7-8.8,8.7c-4.8,0-8.7-3.9-8.7-8.7c0-4.8,3.9-8.7,8.7-8.7
			C377.7,234,381.6,237.9,381.6,242.7z M366.1,242.7c0,3.9,3,6.9,6.8,6.9s6.8-2.9,6.8-6.9c0-3.9-3-6.9-6.8-6.9
			S366.1,238.7,366.1,242.7z"/>
	</g>
</g>
<g>
	<path style="fill:#2F3461;" d="M144.9,326.7v-15l-2.4,2.9l-1.4-1.1l4.8-5.8h1.2v18.9H144.9z"/>
	<path style="fill:#2F3461;" d="M158.6,315.3c0.6-0.2,1.3-0.2,2.2-0.2c3.8,0.2,5.7,2.5,5.7,5.4c0,3.6-2.5,6.3-6.9,6.4h-0.3
		c-3.5,0-6.2-1.6-7.5-4l1.4-1.3c1.4,2.2,3.4,3.3,6.2,3.3h0.2c2.9-0.1,4.9-1.9,4.9-4.6c0-2.4-1.4-3.9-5-3.9c-1.2,0-2.4,0.4-3.2,0.7
		l-1.1-0.8l7.3-6.5h-9v-2h12.3v1.2L158.6,315.3z"/>
	<path style="fill:#2F3461;" d="M171.2,329.9h-1.4l1.7-5.5h2.3L171.2,329.9z"/>
	<path style="fill:#2F3461;" d="M190.6,321.4c0,3.3-2.6,5.5-6.7,5.5h-0.1c-4.1,0-6.8-2.2-6.8-5.5c0-2.5,1.6-4.2,3.9-4.8
		c-1.7-0.6-3.2-1.9-3.2-4.3c0-2.8,2.5-4.8,6-4.8h0.3c3.5,0.1,5.9,2,5.9,4.8c0,2.4-1.4,3.7-3.2,4.3
		C189,317.2,190.6,318.9,190.6,321.4z M188.5,321c0-2.4-1.9-3.8-4.7-3.8c-1.7,0-4.7,0.7-4.7,3.8c0,2.4,2,3.8,4.7,3.8
		C186.5,324.9,188.5,323.5,188.5,321z M183.8,315.9c2.1,0,4-0.9,4-3.2c0-2.3-1.9-3.2-4-3.2c-2.1,0-4,1-4,3.2
		C179.8,314.9,181.7,315.9,183.8,315.9z"/>
	<path style="fill:#2F3461;" d="M197.2,309.8v6c1-0.7,2.8-1.3,4.9-1.3c4,0,6.3,2.5,6.3,6.1c0,3.3-2.5,6.2-6.9,6.3h-0.3
		c-3.5,0-6-1.6-7.4-4l1.4-1.3c1.4,2.2,3.3,3.3,6.1,3.3h0.1c2.7-0.1,4.9-1.7,4.9-4.4c0-2.8-1.8-4.3-5-4.3c-2,0-4,0.9-5,1.7l-1.1-0.8
		v-9.2h11.5v2H197.2z"/>
</g>
<g>
	<path style="fill:#2F3461;" d="M296.6,139c0.6-0.2,1.3-0.2,2.2-0.2c3.8,0.2,5.7,2.5,5.7,5.4c0,3.6-2.5,6.3-6.9,6.4h-0.3
		c-3.5,0-6.2-1.6-7.5-4l1.4-1.3c1.4,2.2,3.4,3.3,6.2,3.3h0.2c2.9-0.1,4.9-1.9,4.9-4.6c0-2.4-1.4-3.9-5-3.9c-1.2,0-2.4,0.4-3.2,0.7
		l-1.1-0.8l7.3-6.5h-9v-2h12.3v1.2L296.6,139z"/>
	<path style="fill:#2F3461;" d="M309.2,153.7h-1.4l1.7-5.5h2.3L309.2,153.7z"/>
	<path style="fill:#2F3461;" d="M321.8,139c0.6-0.2,1.3-0.2,2.2-0.2c3.8,0.2,5.7,2.5,5.7,5.4c0,3.6-2.5,6.3-6.9,6.4h-0.3
		c-3.5,0-6.2-1.6-7.5-4l1.4-1.3c1.4,2.2,3.4,3.3,6.2,3.3h0.2c2.9-0.1,4.9-1.9,4.9-4.6c0-2.4-1.4-3.9-5-3.9c-1.2,0-2.4,0.4-3.2,0.7
		l-1.1-0.8l7.3-6.5h-9v-2H329v1.2L321.8,139z"/>
	<path style="fill:#2F3461;" d="M345.2,150.4h-2.2v-3.8h-10.5v-1.2l11.5-14h1.2v13.2h2.2v2h-2.2V150.4z M335.2,144.6h7.9v-9.5
		L335.2,144.6z"/>
</g>
<g>
	<path style="fill:#2F3461;" d="M35.5,232c0,5.4-4.4,9.7-9.7,9.7c-5.4,0-9.7-4.3-9.7-9.7c0-5.3,4.3-9.7,9.7-9.7
		C31.2,222.4,35.5,226.7,35.5,232z M18.3,232c0,4.4,3.3,7.6,7.5,7.6s7.5-3.3,7.5-7.6s-3.3-7.6-7.5-7.6S18.3,227.7,18.3,232z"/>
	<path style="fill:#2F3461;" d="M40.6,244.8h-1.4l1.7-5.5h2.3L40.6,244.8z"/>
	<path style="fill:#2F3461;" d="M48.5,241.5h-2.4l9.8-16.9h-9.8v-2h12.6v1.2L48.5,241.5z"/>
	<path style="fill:#2F3461;" d="M75.2,236.2c0,3.3-2.6,5.5-6.7,5.5h-0.1c-4.1,0-6.8-2.2-6.8-5.5c0-2.5,1.6-4.2,3.9-4.8
		c-1.7-0.6-3.2-1.9-3.2-4.3c0-2.8,2.5-4.8,6-4.8h0.2c3.5,0.1,5.9,2,5.9,4.8c0,2.3-1.4,3.6-3.2,4.3C73.6,232,75.2,233.8,75.2,236.2z
		 M73.2,235.9c0-2.4-1.9-3.8-4.7-3.8c-1.7,0-4.7,0.7-4.7,3.8c0,2.4,2,3.8,4.7,3.8C71.1,239.7,73.2,238.3,73.2,235.9z M68.4,230.7
		c2.1,0,4-0.9,4-3.2c0-2.3-1.9-3.2-4-3.2c-2.1,0-4,1-4,3.2C64.4,229.8,66.3,230.7,68.4,230.7z"/>
</g>
<g>
	<path style="fill:#2F3461;" d="M544.2,295.4v-15l-2.4,2.9l-1.4-1.1l4.8-5.8h1.2v18.9H544.2z"/>
	<path style="fill:#2F3461;" d="M552.7,298.6h-1.4l1.7-5.5h2.3L552.7,298.6z"/>
	<path style="fill:#2F3461;" d="M570.9,295.4h-2.2v-3.8h-10.5v-1.2l11.5-14h1.2v13.2h2.2v2h-2.2V295.4z M560.8,289.6h7.9v-9.5
		L560.8,289.6z"/>
	<path style="fill:#2F3461;" d="M578,295.4h-2.4l9.8-16.9h-9.8v-2h12.6v1.2L578,295.4z"/>
</g>
<g>
	<path style="fill:#2F3461;" d="M532.9,251.2v-15l-2.4,2.9L529,238l4.8-5.8h1.2v18.9H532.9z"/>
	<path style="fill:#2F3461;" d="M541.3,254.5h-1.4l1.7-5.5h2.3L541.3,254.5z"/>
	<path style="fill:#2F3461;" d="M553.5,251.4c-2.7,0-4.5-1.1-5.8-2.6l1.4-1.3c1.3,1.3,2.6,1.9,4.4,1.9h0.2c4,0,5.4-3.8,5.5-7.3
		c-0.9,1.7-2.9,3-5.4,3c-3.7,0-6.6-2.6-6.6-6.4c0-3.5,2.7-6.6,7-6.6c4.4,0,7.2,3.3,7.2,7.5v1.6c0,5.1-2.2,10.2-7.6,10.2H553.5z
		 M559.1,238.9c0-2.6-1.7-4.8-4.9-4.8c-2.9,0-4.9,2-4.9,4.6s2,4.6,4.9,4.6C557.1,243.3,559.1,241.3,559.1,238.9z"/>
	<path style="fill:#2F3461;" d="M584.2,241.7c0,5.4-4.4,9.7-9.7,9.7c-5.4,0-9.7-4.3-9.7-9.7c0-5.3,4.3-9.7,9.7-9.7
		C579.8,232,584.2,236.4,584.2,241.7z M567,241.7c0,4.4,3.3,7.6,7.5,7.6c4.2,0,7.5-3.3,7.5-7.6s-3.3-7.6-7.5-7.6
		C570.3,234.1,567,237.3,567,241.7z"/>
</g>
<g>
	<path style="fill:#2F3461;" d="M478.2,141.3c0.6-0.2,1.3-0.2,2.2-0.2c3.8,0.2,5.7,2.5,5.7,5.4c0,3.6-2.5,6.3-6.9,6.4h-0.3
		c-3.5,0-6.2-1.6-7.5-4l1.4-1.3c1.4,2.2,3.4,3.3,6.2,3.3h0.2c2.9-0.1,4.9-1.9,4.9-4.6c0-2.4-1.4-3.9-5-3.9c-1.2,0-2.4,0.4-3.2,0.7
		l-1.1-0.8l7.3-6.5h-9v-2h12.3v1.2L478.2,141.3z"/>
	<path style="fill:#2F3461;" d="M490.8,156h-1.4l1.7-5.5h2.3L490.8,156z"/>
	<path style="fill:#2F3461;" d="M509,152.7h-2.2v-3.8h-10.5v-1.2l11.5-14h1.2v13.2h2.2v2H509V152.7z M499,146.9h7.9v-9.5L499,146.9z
		"/>
	<path style="fill:#2F3461;" d="M521.9,133.5c2.7,0,4.5,1.1,5.8,2.7l-1.4,1.3c-1.2-1.3-2.6-1.9-4.4-1.9l-0.2,0c-4,0-5.4,3.8-5.5,7.3
		c0.9-1.7,2.9-3,5.4-3c3.7,0,6.6,2.6,6.6,6.5c0,3.5-2.6,6.6-7,6.6c-4.4,0-7.2-3.3-7.2-7.5l0-1.7c0-5.1,2.2-10.2,7.6-10.2H521.9z
		 M516.3,146c0,2.6,1.8,4.8,4.9,4.8c2.9,0,4.9-2,4.9-4.6c0-2.6-2-4.6-4.9-4.6C518.3,141.7,516.3,143.7,516.3,146z"/>
</g>
</svg>
