<svg xmlns="http://www.w3.org/2000/svg" xmlns:xlink="http://www.w3.org/1999/xlink" viewBox="0 0 105.89 66.33"><defs><clipPath id="a" transform="translate(0 0)"><rect width="105.89" height="66.33" style="fill:none"/></clipPath></defs><title>car</title><g style="clip-path:url(#a)"><path d="M34.34,54.43a11.9,11.9,0,1,1-23.8,0,11.59,11.59,0,0,1,.08-1.33,11.86,11.86,0,0,1,5.14-8.51H29.12a11.86,11.86,0,0,1,5.14,8.51,11.59,11.59,0,0,1,.08,1.33" transform="translate(0 0)" style="fill:#201c5e"/><path d="M78.71,0H0V53.1H105.89V32.16ZM97.39,44.59H8.5V8.5H74.76l11,13H62.67V30H92.93l4.46,5.27v9.32Z" transform="translate(0 0)" style="fill:#201c5e"/><path d="M83.45,42.53a11.9,11.9,0,1,0,11.9,11.9,11.92,11.92,0,0,0-11.9-11.9" transform="translate(0 0)" style="fill:#cc1e44"/></g></svg>