<svg xmlns="http://www.w3.org/2000/svg" xmlns:xlink="http://www.w3.org/1999/xlink" viewBox="0 0 63.46 84"><defs><clipPath id="a" transform="translate(0 0)"><rect width="63.46" height="84" style="fill:none"/></clipPath></defs><title>shield</title><polygon points="31.73 16.36 28.14 27.41 16.54 27.41 25.92 34.24 22.34 45.29 31.72 38.47 41.04 45.29 37.47 34.29 46.92 27.41 35.32 27.41 31.73 16.36" style="fill:#201c5e"/><g style="clip-path:url(#a)"><path d="M31.73,8.5A131.1,131.1,0,0,1,55,10.58V44.69L31.73,71.12,8.5,44.69V10.58A131.1,131.1,0,0,1,31.73,8.5m0-8.5A139.41,139.41,0,0,0,0,3.66V47.89L31.73,84,63.46,47.89V3.66A139.42,139.42,0,0,0,31.73,0" transform="translate(0 0)" style="fill:#201c5e"/><polygon points="54.95 44.68 31.73 71.12 31.73 84 63.46 47.9 54.95 44.68" style="fill:#cc1e44"/></g></svg>