<svg xmlns="http://www.w3.org/2000/svg" xmlns:xlink="http://www.w3.org/1999/xlink" viewBox="0 0 84.65 75.66"><defs><clipPath id="a" transform="translate(0 0)"><rect width="84.65" height="75.66" style="fill:none"/></clipPath></defs><title>heart</title><g style="clip-path:url(#a)"><path d="M42.32,75.66l-1.74-.78C1.47,57.37-.73,34.16.14,25,1.26,13.07,9.3,3,19.68.57,27.86-1.36,36,1.69,42.32,8.83,48.63,1.69,56.79-1.36,65,.57,75.35,3,83.38,13.07,84.51,25c0.87,9.17-1.34,32.37-40.45,49.88ZM24.58,8.49a12.71,12.71,0,0,0-2.94.35c-6.88,1.63-12.25,8.6-13,17-1.41,14.91,11.16,30,33.72,40.52C64.88,55.77,77.46,40.71,76,25.8c-0.79-8.36-6.15-15.33-13-17C56.7,7.35,50.64,10.68,45.93,18.2L42.32,24l-3.6-5.77c-4-6.35-8.91-9.71-14.14-9.71" transform="translate(0 0)" style="fill:#201c5e"/><path d="M74.72,36.43c-3.83,11.2-15.21,21.85-32.38,29.89v9.33l1.73-.78c26-11.62,35.65-25.75,39-36.61Z" transform="translate(0 0)" style="fill:#cc1e44"/></g></svg>