<svg xmlns="http://www.w3.org/2000/svg" xmlns:xlink="http://www.w3.org/1999/xlink" viewBox="0 0 72.5 85.36"><defs><clipPath id="a" transform="translate(0 0)"><rect width="72.5" height="85.36" style="fill:none"/></clipPath></defs><title>hand</title><g style="clip-path:url(#a)"><path d="M72.43,0H11.16V24.36l-0.77.17L0,26.81,1,31C2.9,39.4,6,52.86,6.47,55.18c0,1.63.56,2.26,7.38,8.47l0.82,0.75v0.1H14.62V85.36H67V64.62l5.54-14.5ZM58.56,8.51h5.37V26.94l-5.37-.37V8.51Zm-13.25,0h4.75V26l-4.75-.33V8.51Zm-13.25,0h4.75V18.72L36,18.89l-4,.87V8.51Zm-12.39,0h3.89V21.63l-0.77.17-3.12.69v-14Zm-5,44.22c-0.47-2.24-1.63-7.32-4.42-19.46l5.06-1.11,4.37-1L29.69,29l0.59-.13,0,0.13,0.6,3,0.26,1.28,0.25,1.25-13.77,3.2,3,11,7.44,9.52,3.35-2.61L34.79,53l-6.38-8.18L28.18,44l13.21-3.07L40,33.83l0.51,0L64,35.47V48.55l-6.09,16H23.17V60.64l-1.39-1.27C19.09,56.93,16,54,14.63,52.73M58.45,76.86H23.12V73H58.45v3.86Z" transform="translate(0 0)" style="fill:#201c5e"/><polygon points="66.95 64.5 66.95 85.36 40.78 85.36 40.78 76.86 58.45 76.86 58.45 73 40.78 73 40.78 64.5 66.95 64.5" style="fill:#cc1e44"/><polygon points="40.78 64.5 40.78 73 40.78 76.86 40.78 85.36 66.95 85.36 66.95 64.5 40.78 64.5" style="fill:#cc1e44"/></g></svg>