<svg xmlns="http://www.w3.org/2000/svg" width="28" height="28" viewBox="0 0 28 28">
  <metadata><?xpacket begin="﻿" id="W5M0MpCehiHzreSzNTczkc9d"?>
<x:xmpmeta xmlns:x="adobe:ns:meta/" x:xmptk="Adobe XMP Core 5.6-c138 79.159824, 2016/09/14-01:09:01        ">
   <rdf:RDF xmlns:rdf="http://www.w3.org/1999/02/22-rdf-syntax-ns#">
      <rdf:Description rdf:about=""/>
   </rdf:RDF>
</x:xmpmeta>
                                                                                                    
                                                                                                    
                                                                                                    
                                                                                                    
                                                                                                    
                                                                                                    
                                                                                                    
                                                                                                    
                                                                                                    
                                                                                                    
                                                                                                    
                                                                                                    
                                                                                                    
                                                                                                    
                                                                                                    
                                                                                                    
                                                                                                    
                                                                                                    
                                                                                                    
                                                                                                    
                           
<?xpacket end="w"?></metadata>
<defs>
    <style>
      .cls-1 {
        fill: #ed1944;
        fill-rule: evenodd;
      }
    </style>
  </defs>
  <path id="Shape_7_copy" data-name="Shape 7 copy" class="cls-1" d="M1785.94,1262.73a4.017,4.017,0,0,0-.17-1.25,13.988,13.988,0,1,0,.23,2.52c0-.43-0.02-0.85-0.06-1.27h0Zm-24.37,6.81c-0.05-.09-0.1-0.19-0.15-0.29a0.488,0.488,0,0,1-.03-0.07h0a11.729,11.729,0,0,1-.96-2.8,10.459,10.459,0,0,0,3.09.83,16.491,16.491,0,0,0,2.02.12,23.89,23.89,0,0,0,7.36-1.25,21.41,21.41,0,0,0,8.13-4.6,9.591,9.591,0,0,0,1.78-2.25,12.242,12.242,0,0,1,.82,2.7l-0.01.01c0.01,0.02.01,0.03,0.02,0.05,0.05,0.27.08,0.54,0.11,0.81a5.419,5.419,0,0,1-1.91,3.26c-3.7,3.6-11.01,5.98-16.28,5.32-1.99-.25-3.41-0.91-3.99-1.84h0Zm19.78-12.76a5.311,5.311,0,0,1-1.84,3.13c-3.17,3.08-9.09,5.24-13.94,5.24a14.667,14.667,0,0,1-1.78-.11,5.772,5.772,0,0,1-3.59-1.46,11.738,11.738,0,0,1,.92-4.19c0.03,0.03.06,0.05,0.08,0.07a6.072,6.072,0,0,0,3.04,1.12,10.472,10.472,0,0,0,1.39.09,16.256,16.256,0,0,0,10.46-3.97,5.767,5.767,0,0,0,1.64-2.55,3.29,3.29,0,0,0,.09-0.43,11.923,11.923,0,0,1,3.53,3.06h0Zm-9.35-4.59a11.872,11.872,0,0,1,3.55.54l-0.04.03c0.56,0.8-.58,2.02-0.95,2.37a14.268,14.268,0,0,1-8.95,3.35,7.824,7.824,0,0,1-1.1-.07,3.063,3.063,0,0,1-2.28-1.05,11.81,11.81,0,0,1,9.77-5.17h0Zm0,23.62a11.773,11.773,0,0,1-6.99-2.29l0.28,0.03a15.485,15.485,0,0,0,2.08.13,24.618,24.618,0,0,0,7.6-1.3,22.219,22.219,0,0,0,8.21-4.57,11.83,11.83,0,0,1-11.18,8h0Zm0,0" transform="translate(-1758 -1250)"/>
</svg>
