<svg xmlns="http://www.w3.org/2000/svg" width="31" height="31" viewBox="0 0 31 31">
  <metadata><?xpacket begin="﻿" id="W5M0MpCehiHzreSzNTczkc9d"?>
<x:xmpmeta xmlns:x="adobe:ns:meta/" x:xmptk="Adobe XMP Core 5.6-c138 79.159824, 2016/09/14-01:09:01        ">
   <rdf:RDF xmlns:rdf="http://www.w3.org/1999/02/22-rdf-syntax-ns#">
      <rdf:Description rdf:about=""/>
   </rdf:RDF>
</x:xmpmeta>
                                                                                                    
                                                                                                    
                                                                                                    
                                                                                                    
                                                                                                    
                                                                                                    
                                                                                                    
                                                                                                    
                                                                                                    
                                                                                                    
                                                                                                    
                                                                                                    
                                                                                                    
                                                                                                    
                                                                                                    
                                                                                                    
                                                                                                    
                                                                                                    
                                                                                                    
                                                                                                    
                           
<?xpacket end="w"?></metadata>
<defs>
    <style>
      .cls-1 {
        fill: #ed1944;
        fill-rule: evenodd;
      }
    </style>
  </defs>
  <path class="cls-1" d="M1787,1159.41h-9.26l-5.39-12.41h-1.71l-5.39,12.41H1756v2.42h1.85l1.76,12.07,0.01,0.04a4.735,4.735,0,0,0,1.95,2.97,5.745,5.745,0,0,0,3.34,1.09h13.18a5.769,5.769,0,0,0,3.34-1.09,4.81,4.81,0,0,0,1.95-2.96v-0.02l1.75-12.1H1787v-2.42Zm-15.51-8.3,3.61,8.3h-7.21Zm9.5,22.41a2.936,2.936,0,0,1-2.9,2.06h-13.18a2.913,2.913,0,0,1-2.9-2.05l-1.71-11.7h22.39Zm-6.17-.37h-2.42v-8.9h2.42v8.9Zm-4.18,0h-2.42v-8.9h2.42v8.9Zm-6.72-2.42v-6.48h2.43v8.9A2.328,2.328,0,0,1,1763.92,1170.73Zm12.72,2.42v-8.9h2.42v6.48A2.321,2.321,0,0,1,1776.64,1173.15Z" transform="translate(-1756 -1147)"/>
</svg>
