<svg xmlns="http://www.w3.org/2000/svg" width="28" height="28" viewBox="0 0 28 28">
  <metadata><?xpacket begin="﻿" id="W5M0MpCehiHzreSzNTczkc9d"?>
<x:xmpmeta xmlns:x="adobe:ns:meta/" x:xmptk="Adobe XMP Core 5.6-c138 79.159824, 2016/09/14-01:09:01        ">
   <rdf:RDF xmlns:rdf="http://www.w3.org/1999/02/22-rdf-syntax-ns#">
      <rdf:Description rdf:about=""/>
   </rdf:RDF>
</x:xmpmeta>
                                                                                                    
                                                                                                    
                                                                                                    
                                                                                                    
                                                                                                    
                                                                                                    
                                                                                                    
                                                                                                    
                                                                                                    
                                                                                                    
                                                                                                    
                                                                                                    
                                                                                                    
                                                                                                    
                                                                                                    
                                                                                                    
                                                                                                    
                                                                                                    
                                                                                                    
                                                                                                    
                           
<?xpacket end="w"?></metadata>
<defs>
    <style>
      .cls-1 {
        fill: #ed1944;
        fill-rule: evenodd;
      }
    </style>
  </defs>
  <path id="Shape_10_copy" data-name="Shape 10 copy" class="cls-1" d="M1788,1124.9l-6.5-25.54-7.76,1.99h-5.61V1099H1760v28h15.82v-16.26l4.13,16.22Zm-6.48-.6-0.52-2.05,3.82-.98,0.53,2.05Zm-1.06-4.17-3.3-12.96,3.83-.98,3.29,12.96Zm-0.53-18.11,0.52,2.05-3.83.98-0.52-2.05Zm-6.29,1.52v2.18h-5.51v-2.18h5.51Zm-7.69,16.9h-3.77v-14.88h3.77v14.88Zm2.18-12.53h5.51v12.53h-5.51v-12.53Zm-2.18-6.72v2.18h-3.77v-2.18h3.77Zm-3.77,23.62v-2.19h3.77v2.19h-3.77Zm5.95,0v-2.19h5.51v2.19h-5.51Z" transform="translate(-1760 -1099)"/>
</svg>
