<?xml version="1.0" encoding="UTF-8" ?>
<!DOCTYPE svg PUBLIC "-//W3C//DTD SVG 1.1//EN" "http://www.w3.org/Graphics/SVG/1.1/DTD/svg11.dtd">
<svg width="70pt" height="70pt" viewBox="0 0 70 70" version="1.1" xmlns="http://www.w3.org/2000/svg">
<g id="#ed1944ff">
<path fill="#ed1944" opacity="1.00" d=" M 32.74 0.00 L 37.31 0.00 C 44.02 0.64 50.63 2.88 55.99 7.02 C 64.16 13.00 69.23 22.72 70.00 32.76 L 70.00 37.31 C 69.17 47.79 63.65 57.89 54.87 63.78 C 49.85 67.40 43.81 69.25 37.72 70.00 L 32.99 70.00 C 26.40 69.45 19.88 67.34 14.55 63.37 C 6.20 57.52 1.01 47.83 0.00 37.77 L 0.00 32.97 C 0.68 22.86 5.80 13.05 14.01 7.03 C 19.39 2.87 26.01 0.63 32.74 0.00 M 29.43 10.64 C 21.04 12.51 13.87 19.02 11.25 27.22 C 8.69 34.84 10.15 43.67 15.07 50.04 C 19.48 55.93 26.58 59.71 33.95 59.96 C 41.79 60.36 49.65 56.73 54.51 50.59 C 59.92 44.00 61.44 34.54 58.52 26.55 C 54.59 14.96 41.35 7.63 29.43 10.64 Z" />
</g>
<g id="#1d1761ff">
<path fill="#1d1761" opacity="1.00" d=" M 29.43 10.64 C 41.35 7.63 54.59 14.96 58.52 26.55 C 61.44 34.54 59.92 44.00 54.51 50.59 C 49.65 56.73 41.79 60.36 33.95 59.96 C 26.58 59.71 19.48 55.93 15.07 50.04 C 10.15 43.67 8.69 34.84 11.25 27.22 C 13.87 19.02 21.04 12.51 29.43 10.64 Z" />
</g>
</svg>
