<svg xmlns="http://www.w3.org/2000/svg" width="28" height="28" viewBox="0 0 28 28">
  <metadata><?xpacket begin="﻿" id="W5M0MpCehiHzreSzNTczkc9d"?>
<x:xmpmeta xmlns:x="adobe:ns:meta/" x:xmptk="Adobe XMP Core 5.6-c138 79.159824, 2016/09/14-01:09:01        ">
   <rdf:RDF xmlns:rdf="http://www.w3.org/1999/02/22-rdf-syntax-ns#">
      <rdf:Description rdf:about=""/>
   </rdf:RDF>
</x:xmpmeta>
                                                                                                    
                                                                                                    
                                                                                                    
                                                                                                    
                                                                                                    
                                                                                                    
                                                                                                    
                                                                                                    
                                                                                                    
                                                                                                    
                                                                                                    
                                                                                                    
                                                                                                    
                                                                                                    
                                                                                                    
                                                                                                    
                                                                                                    
                                                                                                    
                                                                                                    
                                                                                                    
                           
<?xpacket end="w"?></metadata>
<defs>
    <style>
      .cls-1 {
        fill: #ed1944;
        fill-rule: evenodd;
      }
    </style>
  </defs>
  <path class="cls-1" d="M1785.38,1198.74a16.792,16.792,0,0,0-9.86,0c-2.16.77-2.61,1.86-2.61,2.65v10.2c-0.14-.06-0.28-0.11-0.43-0.17a15.423,15.423,0,0,0-4.93-.73,14.642,14.642,0,0,0-4.94.77c-2.16.79-2.61,1.89-2.61,2.68a1.028,1.028,0,0,0,.01.17H1760v8.3c0,0.78.45,1.88,2.62,2.65a16.792,16.792,0,0,0,9.86,0,1.885,1.885,0,0,1,3.04,0,16.792,16.792,0,0,0,9.86,0c2.17-.77,2.62-1.87,2.62-2.65v-21.22c0-.79-0.45-1.88-2.62-2.65h0Zm0.43,6.8a3.193,3.193,0,0,1-1.51.77,15.331,15.331,0,0,1-7.69,0,3.26,3.26,0,0,1-1.52-.77v-1.66c0.14,0.06.28,0.11,0.43,0.17a17.012,17.012,0,0,0,9.86,0c0.15-.06.3-0.11,0.43-0.17v1.66Zm0,4.21a3.1,3.1,0,0,1-1.51.77,15.034,15.034,0,0,1-7.69,0,3.16,3.16,0,0,1-1.52-.77v-1.66c0.14,0.05.28,0.11,0.43,0.16a16.792,16.792,0,0,0,9.86,0c0.15-.05.3-0.11,0.43-0.16v1.66Zm0,4.31a3.1,3.1,0,0,1-1.51.77,15.034,15.034,0,0,1-7.69,0,3.16,3.16,0,0,1-1.52-.77v-1.76c0.14,0.06.28,0.11,0.43,0.17a17.012,17.012,0,0,0,9.86,0c0.15-.06.3-0.11,0.43-0.17v1.76Zm0,4.27a3.229,3.229,0,0,1-1.51.76,15.034,15.034,0,0,1-7.69,0,3.3,3.3,0,0,1-1.52-.76v-1.72c0.14,0.06.28,0.11,0.43,0.17a17.012,17.012,0,0,0,9.86,0c0.15-.06.3-0.11,0.43-0.17v1.72Zm-23.62-1.7c0.13,0.05.27,0.11,0.43,0.16a15.049,15.049,0,0,0,4.93.74,14.684,14.684,0,0,0,4.94-.77c0.15-.05.28-0.11,0.42-0.17v1.75a3.335,3.335,0,0,1-1.52.74,15.922,15.922,0,0,1-7.68,0,3.267,3.267,0,0,1-1.52-.74v-1.71Zm14.42-15.95a15.331,15.331,0,0,1,7.69,0,3.849,3.849,0,0,1,1.46.71,3.559,3.559,0,0,1-1.46.71,15.034,15.034,0,0,1-7.69,0,3.41,3.41,0,0,1-1.46-.71,3.675,3.675,0,0,1,1.46-.71h0Zm-12.91,12.71a13.43,13.43,0,0,1,3.85-.52,13.757,13.757,0,0,1,3.84.5,3.839,3.839,0,0,1,1.47.71,3.558,3.558,0,0,1-1.46.74,13.185,13.185,0,0,1-3.85.52,13.852,13.852,0,0,1-3.85-.49,3.5,3.5,0,0,1-1.46-.72,3.693,3.693,0,0,1,1.46-.74h0Zm7.69,9.93a15.331,15.331,0,0,1-7.69,0,3.3,3.3,0,0,1-1.51-.77v-1.69a4.486,4.486,0,0,0,.44.17,17.64,17.64,0,0,0,9.84,0c0.15-.05.3-0.11,0.44-0.17v1.69a3.368,3.368,0,0,1-1.52.77h0Zm12.91,0a15.331,15.331,0,0,1-7.69,0,3.368,3.368,0,0,1-1.52-.77v-1.68c0.14,0.06.28,0.12,0.43,0.17a16.792,16.792,0,0,0,9.86,0,4.28,4.28,0,0,0,.43-0.17v1.68a3.3,3.3,0,0,1-1.51.77h0Zm-20.08-19.68" transform="translate(-1760 -1198)"/>
</svg>
