<svg xmlns="http://www.w3.org/2000/svg" viewBox="0 0 5000 2812"><title>genplan</title><polygon points="107.556 803.359 779.722 667.942 821.578 797.204 970.538 1505.071 356.233 1655.261 124.791 937.546 107.556 803.359" style="fill:#ed1944;stroke:#000;stroke-miterlimit:10"/><polygon points="1190.157 1457.245 1139.618 1309.724 1015.318 641.783 2084.844 428.697 2150.409 539.338 2183.191 1238.696 1190.157 1457.245" style="fill:#ed1944;stroke:#000;stroke-miterlimit:10"/><polygon points="2245.565 379.093 2811.646 263.907 2890.458 362.422 2863.935 829.23 2782.092 847.417 2772.998 1075.517 2334.229 1180.094 2270.573 1073.243 2245.565 379.093" style="fill:#ed1944;stroke:#000;stroke-miterlimit:10"/><polygon points="2756.326 1568.09 2782.092 847.417 3064.753 783.761 3287.548 1060.36 3297.399 1058.087 3746.02 1621.894 3602.795 2371.364 3308.009 2450.176 3199.642 2278.154 3213.283 2162.967 2904.098 1679.487 2835.896 1696.159 2756.326 1568.09" style="fill:#ed1944;stroke:#000;stroke-miterlimit:10;opacity:0.65"/><polygon points="4496.406 2067.066 4770.064 1984.086 5000 1332.603 5000 1230.201 4198.031 518.69 3949.09 589.312 3818.44 1292.878 3913.779 1406 3980.87 1389.1 4388.709 1858.732 4367.522 1927.588 4496.406 2067.066" style="fill:#ed1944;stroke:#000;stroke-miterlimit:10;opacity:0.65"/><polygon points="3110.46 223.845 3064.753 783.761 3215.899 971.408 3537.72 900.046 3596.172 961.655 3586.014 1046.15 3664.405 1135.276 3840.79 1087.753 3854.464 1098.883 3951.373 581.447 4011.691 564.997 4043.678 360.281 3708.273 74.227 3110.46 223.845" style="fill:#ed1944;stroke:#000;stroke-miterlimit:10;opacity:0.65"/></svg>