<?xml version="1.0" encoding="UTF-8" ?>
<!DOCTYPE svg PUBLIC "-//W3C//DTD SVG 1.1//EN" "http://www.w3.org/Graphics/SVG/1.1/DTD/svg11.dtd">
<svg width="71px" height="96px" viewBox="0 0 370 500" version="1.1" xmlns="http://www.w3.org/2000/svg">
<g id="#1d1761ff">
<path fill="#1d1761" opacity="1.00" d=" M 178.39 0.00 L 193.30 0.00 C 210.75 1.27 228.17 4.36 244.62 10.46 C 309.33 33.30 358.78 93.98 368.09 161.97 C 372.29 190.54 368.51 219.75 360.19 247.24 C 351.46 276.28 338.20 303.78 322.95 329.92 C 298.27 371.92 268.34 410.62 236.07 447.02 C 222.24 462.49 207.97 477.58 193.10 492.07 C 190.57 494.77 187.39 497.03 185.25 500.00 L 185.25 500.00 C 151.73 468.34 120.95 433.81 92.76 397.33 C 67.03 363.62 43.54 327.92 25.82 289.29 C 11.33 257.45 0.55 223.17 0.19 187.91 C -0.13 154.51 9.42 121.26 26.51 92.62 C 46.20 59.45 76.01 32.26 111.13 16.21 C 132.24 6.51 155.21 1.11 178.39 0.00 M 157.97 114.64 C 157.89 132.42 157.98 150.20 157.93 167.98 C 140.03 168.07 122.13 167.91 104.23 168.05 C 104.26 184.29 104.20 200.54 104.26 216.78 C 122.14 216.85 140.03 216.74 157.92 216.83 C 158.03 234.82 157.82 252.81 158.02 270.79 C 174.28 270.80 190.53 270.81 206.79 270.78 C 206.89 252.80 206.76 234.82 206.86 216.83 C 224.77 216.73 242.68 216.87 260.59 216.76 C 260.62 200.62 260.52 184.48 260.64 168.33 L 260.18 168.01 C 242.40 167.97 224.63 168.04 206.85 167.97 C 206.78 150.20 206.86 132.41 206.81 114.63 C 190.53 114.58 174.25 114.57 157.97 114.64 Z" />
<path fill="#1d1761" opacity="1.00" d=" M 170.19 126.83 C 178.17 126.74 186.16 126.84 194.14 126.78 L 194.59 127.19 C 194.61 144.85 194.53 162.51 194.63 180.17 C 212.52 180.25 230.42 180.17 248.32 180.21 C 248.41 188.27 248.30 196.34 248.37 204.40 C 230.51 204.89 212.53 204.42 194.63 204.64 C 194.52 222.62 194.64 240.60 194.57 258.58 C 186.45 258.63 178.34 258.58 170.22 258.60 C 170.09 240.62 170.25 222.63 170.14 204.64 C 152.24 204.53 134.33 204.65 116.43 204.58 C 116.39 196.47 116.43 188.36 116.41 180.25 C 134.32 180.12 152.23 180.28 170.14 180.17 C 170.24 162.39 170.13 144.61 170.19 126.83 Z" />
</g>
<g id="#ed1944ff">
<path fill="#ed1944" opacity="1.00" d=" M 157.97 114.64 C 174.25 114.57 190.53 114.58 206.81 114.63 C 206.86 132.41 206.78 150.20 206.85 167.97 C 224.63 168.04 242.40 167.97 260.18 168.01 L 260.64 168.33 C 260.52 184.48 260.62 200.62 260.59 216.76 C 242.68 216.87 224.77 216.73 206.86 216.83 C 206.76 234.82 206.89 252.80 206.79 270.78 C 190.53 270.81 174.28 270.80 158.02 270.79 C 157.82 252.81 158.03 234.82 157.92 216.83 C 140.03 216.74 122.14 216.85 104.26 216.78 C 104.20 200.54 104.26 184.29 104.23 168.05 C 122.13 167.91 140.03 168.07 157.93 167.98 C 157.98 150.20 157.89 132.42 157.97 114.64 M 170.19 126.83 C 170.13 144.61 170.24 162.39 170.14 180.17 C 152.23 180.28 134.32 180.12 116.41 180.25 C 116.43 188.36 116.39 196.47 116.43 204.58 C 134.33 204.65 152.24 204.53 170.14 204.64 C 170.25 222.63 170.09 240.62 170.22 258.60 C 178.34 258.58 186.45 258.63 194.57 258.58 C 194.64 240.60 194.52 222.62 194.63 204.64 C 212.53 204.42 230.51 204.89 248.37 204.40 C 248.30 196.34 248.41 188.27 248.32 180.21 C 230.42 180.17 212.52 180.25 194.63 180.17 C 194.53 162.51 194.61 144.85 194.59 127.19 L 194.14 126.78 C 186.16 126.84 178.17 126.74 170.19 126.83 Z" />
</g>
</svg>
