<?xml version="1.0" encoding="UTF-8" ?>
<!DOCTYPE svg PUBLIC "-//W3C//DTD SVG 1.1//EN" "http://www.w3.org/Graphics/SVG/1.1/DTD/svg11.dtd">
<svg width="71px" height="96px" viewBox="0 0 370 500" version="1.1" xmlns="http://www.w3.org/2000/svg">
<g id="#1d1761ff">
<path fill="#1d1761" opacity="1.00" d=" M 177.44 0.00 L 190.64 0.00 C 221.52 1.14 252.02 10.38 278.34 26.57 C 309.14 45.38 334.42 73.07 350.47 105.40 C 365.26 135.09 372.12 168.83 369.14 201.93 C 366.45 232.55 356.62 262.10 343.89 289.93 C 322.27 336.66 292.54 379.15 260.09 418.94 C 236.80 447.14 212.09 474.22 185.47 499.32 L 185.27 500.00 L 185.27 500.00 C 145.91 462.73 110.05 421.72 78.28 377.80 C 54.21 344.10 32.60 308.32 17.51 269.65 C 6.51 241.15 -0.87 210.73 0.30 180.01 C 1.60 143.65 14.49 108.03 35.71 78.57 C 58.50 46.87 91.03 22.03 128.08 9.46 C 143.97 3.93 160.69 1.10 177.44 0.00 M 119.95 126.01 C 119.82 132.66 119.89 139.32 119.91 145.98 C 122.93 146.05 125.96 145.95 128.98 146.02 C 129.05 180.02 128.93 214.03 129.05 248.03 C 129.21 257.07 137.00 265.12 146.04 265.56 C 165.05 265.70 184.07 265.48 203.08 265.67 C 199.42 261.78 195.47 258.04 192.63 253.43 C 177.45 253.34 162.26 253.45 147.08 253.38 C 143.82 253.38 141.04 250.27 141.24 247.04 C 141.23 238.08 141.23 229.12 141.24 220.16 C 154.15 220.08 167.07 220.18 179.98 220.11 C 180.02 204.97 180.01 189.83 179.98 174.69 C 167.08 174.63 154.17 174.70 141.27 174.66 C 141.18 165.12 141.27 155.59 141.22 146.06 C 164.82 145.94 188.43 146.01 212.04 146.02 C 212.11 157.31 211.99 168.59 212.09 179.87 C 215.95 177.81 220.07 176.35 224.27 175.16 C 224.29 165.49 224.34 155.82 224.24 146.16 C 227.28 145.78 230.38 146.12 233.44 145.99 C 233.45 139.36 233.58 132.72 233.37 126.09 C 232.77 117.26 224.93 109.66 216.08 109.42 C 190.05 109.37 164.02 109.42 137.99 109.40 C 128.88 109.26 120.58 116.94 119.95 126.01 M 231.40 186.60 C 220.28 188.01 209.91 194.39 203.66 203.70 C 197.47 212.69 195.32 224.31 197.84 234.92 C 200.61 247.22 209.67 257.83 221.34 262.58 C 236.30 269.05 254.93 264.85 265.77 252.70 C 275.30 242.50 278.69 227.10 274.30 213.84 C 268.89 196.06 249.83 183.84 231.40 186.60 Z" />
<path fill="#1d1761" opacity="1.00" d=" M 132.12 126.95 C 132.44 124.03 135.12 121.53 138.08 121.61 C 163.69 121.59 189.30 121.60 214.90 121.60 C 217.99 121.38 220.87 123.93 221.19 126.97 C 221.26 129.24 221.30 131.52 221.16 133.79 C 191.48 133.81 161.79 133.77 132.11 133.81 C 132.02 131.53 132.01 129.23 132.12 126.95 Z" />
<path fill="#1d1761" opacity="1.00" d=" M 141.25 186.97 C 150.09 186.76 158.96 186.84 167.81 186.93 C 167.84 193.92 167.80 200.90 167.83 207.89 C 158.96 207.95 150.09 207.98 141.22 207.87 C 141.26 200.91 141.21 193.94 141.25 186.97 Z" />
<path fill="#1d1761" opacity="1.00" d=" M 213.26 211.33 C 220.88 198.51 239.48 194.47 251.70 203.07 C 241.68 213.16 231.64 223.23 221.52 233.22 C 224.01 236.37 227.13 239.19 230.09 241.94 C 240.15 232.03 250.06 221.96 260.10 212.02 C 267.11 223.06 264.26 238.91 254.07 247.05 C 244.88 254.93 230.40 255.52 220.64 248.34 C 208.92 240.48 205.43 223.09 213.26 211.33 Z" />
</g>
<g id="#ed1944ff">
<path fill="#ed1944" opacity="1.00" d=" M 119.95 126.01 C 120.58 116.94 128.88 109.26 137.99 109.40 C 164.02 109.42 190.05 109.37 216.08 109.42 C 224.93 109.66 232.77 117.26 233.37 126.09 C 233.58 132.72 233.45 139.36 233.44 145.99 C 230.38 146.12 227.28 145.78 224.24 146.16 C 224.34 155.82 224.29 165.49 224.27 175.16 C 220.07 176.35 215.95 177.81 212.09 179.87 C 211.99 168.59 212.11 157.31 212.04 146.02 C 188.43 146.01 164.82 145.94 141.22 146.06 C 141.27 155.59 141.18 165.12 141.27 174.66 C 154.17 174.70 167.08 174.63 179.98 174.69 C 180.01 189.83 180.02 204.97 179.98 220.11 C 167.07 220.18 154.15 220.08 141.24 220.16 C 141.23 229.12 141.23 238.08 141.24 247.04 C 141.04 250.27 143.82 253.38 147.08 253.38 C 162.26 253.45 177.45 253.34 192.63 253.43 C 195.47 258.04 199.42 261.78 203.08 265.67 C 184.07 265.48 165.05 265.70 146.04 265.56 C 137.00 265.12 129.21 257.07 129.05 248.03 C 128.93 214.03 129.05 180.02 128.98 146.02 C 125.96 145.95 122.93 146.05 119.91 145.98 C 119.89 139.32 119.82 132.66 119.95 126.01 M 132.12 126.95 C 132.01 129.23 132.02 131.53 132.11 133.81 C 161.79 133.77 191.48 133.81 221.16 133.79 C 221.30 131.52 221.26 129.24 221.19 126.97 C 220.87 123.93 217.99 121.38 214.90 121.60 C 189.30 121.60 163.69 121.59 138.08 121.61 C 135.12 121.53 132.44 124.03 132.12 126.95 M 141.25 186.97 C 141.21 193.94 141.26 200.91 141.22 207.87 C 150.09 207.98 158.96 207.95 167.83 207.89 C 167.80 200.90 167.84 193.92 167.81 186.93 C 158.96 186.84 150.09 186.76 141.25 186.97 Z" />
<path fill="#ed1944" opacity="1.00" d=" M 231.40 186.60 C 249.83 183.84 268.89 196.06 274.30 213.84 C 278.69 227.10 275.30 242.50 265.77 252.70 C 254.93 264.85 236.30 269.05 221.34 262.58 C 209.67 257.83 200.61 247.22 197.84 234.92 C 195.32 224.31 197.47 212.69 203.66 203.70 C 209.91 194.39 220.28 188.01 231.40 186.60 M 213.26 211.33 C 205.43 223.09 208.92 240.48 220.64 248.34 C 230.40 255.52 244.88 254.93 254.07 247.05 C 264.26 238.91 267.11 223.06 260.10 212.02 C 250.06 221.96 240.15 232.03 230.09 241.94 C 227.13 239.19 224.01 236.37 221.52 233.22 C 231.64 223.23 241.68 213.16 251.70 203.07 C 239.48 194.47 220.88 198.51 213.26 211.33 Z" />
</g>
</svg>
