<?xml version="1.0" encoding="UTF-8" ?>
<!DOCTYPE svg PUBLIC "-//W3C//DTD SVG 1.1//EN" "http://www.w3.org/Graphics/SVG/1.1/DTD/svg11.dtd">
<svg width="71px" height="96px" viewBox="0 0 370 500" version="1.1" xmlns="http://www.w3.org/2000/svg">
<g id="#1d1761ff">
<path fill="#1d1761" opacity="1.00" d=" M 179.28 0.00 L 190.70 0.00 C 220.13 1.12 249.23 9.55 274.67 24.38 C 304.81 41.87 330.00 67.77 346.75 98.32 C 362.95 127.64 371.27 161.41 369.61 194.93 C 367.96 227.98 357.58 259.97 343.91 289.89 C 324.19 332.58 297.59 371.73 268.49 408.53 C 242.85 440.58 215.29 471.15 185.45 499.34 L 185.31 500.00 L 185.31 500.00 C 155.28 471.82 127.65 441.13 101.89 409.01 C 77.54 378.30 55.04 345.98 36.67 311.31 C 19.71 279.05 5.93 244.48 1.48 208.09 C -2.60 175.11 2.98 141.09 16.92 110.96 C 33.59 74.24 62.18 43.06 97.30 23.25 C 122.26 9.12 150.61 1.10 179.28 0.00 M 119.91 125.02 C 119.88 173.61 119.83 222.19 119.93 270.78 C 147.32 270.82 174.71 270.78 202.10 270.80 C 202.60 269.25 202.14 267.56 202.29 265.97 C 202.25 239.81 202.38 213.65 202.23 187.50 L 202.81 188.28 C 209.86 215.68 216.79 243.12 223.78 270.53 C 237.81 267.12 251.83 263.54 265.78 259.79 C 254.41 215.52 243.25 171.21 231.89 126.95 C 219.62 129.97 207.39 133.20 195.13 136.30 C 193.44 136.68 191.78 137.36 190.03 137.27 C 180.77 137.19 171.49 137.39 162.24 137.17 C 162.21 133.12 162.28 129.07 162.22 125.02 C 148.11 124.99 134.01 124.98 119.91 125.02 Z" />
<path fill="#1d1761" opacity="1.00" d=" M 131.27 136.41 C 137.76 136.38 144.26 136.42 150.75 136.38 C 150.89 140.18 150.81 143.98 150.80 147.78 C 144.28 147.81 137.77 147.81 131.26 147.78 C 131.22 143.99 131.21 140.19 131.27 136.41 Z" />
<path fill="#1d1761" opacity="1.00" d=" M 203.83 145.86 C 210.47 144.28 217.03 142.11 223.75 141.00 C 224.68 144.41 225.45 147.85 226.41 151.25 C 219.92 153.32 213.18 154.66 206.61 156.50 C 205.47 153.02 204.68 149.42 203.83 145.86 Z" />
<path fill="#1d1761" opacity="1.00" d=" M 162.23 148.89 C 171.71 148.39 181.39 148.77 190.94 148.70 C 190.94 152.46 190.95 156.21 190.94 159.97 C 181.37 160.00 171.79 160.05 162.22 159.94 C 162.24 156.26 162.24 152.57 162.23 148.89 Z" />
<path fill="#1d1761" opacity="1.00" d=" M 131.25 159.23 C 137.77 159.18 144.28 159.19 150.80 159.22 C 150.82 185.03 150.86 210.85 150.78 236.67 C 144.28 236.67 137.77 236.67 131.27 236.66 C 131.20 210.85 131.24 185.04 131.25 159.23 Z" />
<path fill="#1d1761" opacity="1.00" d=" M 209.31 167.58 C 215.95 165.88 222.57 164.05 229.26 162.55 C 234.85 185.04 240.89 207.45 246.28 229.96 C 239.64 231.56 233.07 233.61 226.38 234.86 C 220.79 212.41 214.98 190.01 209.31 167.58 Z" />
<path fill="#1d1761" opacity="1.00" d=" M 162.27 171.41 C 171.80 171.37 181.33 171.43 190.85 171.38 C 191.01 193.14 190.98 214.93 190.87 236.69 C 181.34 236.63 171.80 236.69 162.27 236.66 C 162.21 214.91 162.21 193.16 162.27 171.41 Z" />
<path fill="#1d1761" opacity="1.00" d=" M 229.79 245.96 C 236.26 244.29 242.72 242.62 249.20 241.01 C 250.13 244.56 251.09 248.11 251.91 251.68 C 245.45 253.39 238.94 254.91 232.51 256.73 C 230.60 253.88 230.64 249.82 229.34 246.55 L 229.79 245.96 Z" />
<path fill="#1d1761" opacity="1.00" d=" M 131.24 248.11 C 137.76 248.04 144.29 248.04 150.82 248.11 C 150.84 251.82 150.80 255.53 150.84 259.24 C 144.39 259.61 137.66 259.62 131.21 259.24 C 131.26 255.53 131.22 251.82 131.24 248.11 Z" />
<path fill="#1d1761" opacity="1.00" d=" M 162.22 248.12 C 171.79 248.01 181.36 248.07 190.93 248.09 C 190.97 251.87 190.94 255.66 190.93 259.44 C 181.51 259.53 172.08 259.38 162.66 259.52 C 161.66 256.03 162.52 251.87 162.22 248.12 Z" />
</g>
<g id="#ed1944ff">
<path fill="#ed1944" opacity="1.00" d=" M 119.91 125.02 C 134.01 124.98 148.11 124.99 162.22 125.02 C 162.28 129.07 162.21 133.12 162.24 137.17 C 171.49 137.39 180.77 137.19 190.03 137.27 C 191.78 137.36 193.44 136.68 195.13 136.30 C 207.39 133.20 219.62 129.97 231.89 126.95 C 243.25 171.21 254.41 215.52 265.78 259.79 C 251.83 263.54 237.81 267.12 223.78 270.53 C 216.79 243.12 209.86 215.68 202.81 188.28 L 202.23 187.50 C 202.38 213.65 202.25 239.81 202.29 265.97 C 202.14 267.56 202.60 269.25 202.10 270.80 C 174.71 270.78 147.32 270.82 119.93 270.78 C 119.83 222.19 119.88 173.61 119.91 125.02 M 131.27 136.41 C 131.21 140.19 131.22 143.99 131.26 147.78 C 137.77 147.81 144.28 147.81 150.80 147.78 C 150.81 143.98 150.89 140.18 150.75 136.38 C 144.26 136.42 137.76 136.38 131.27 136.41 M 203.83 145.86 C 204.68 149.42 205.47 153.02 206.61 156.50 C 213.18 154.66 219.92 153.32 226.41 151.25 C 225.45 147.85 224.68 144.41 223.75 141.00 C 217.03 142.11 210.47 144.28 203.83 145.86 M 162.23 148.89 C 162.24 152.57 162.24 156.26 162.22 159.94 C 171.79 160.05 181.37 160.00 190.94 159.97 C 190.95 156.21 190.94 152.46 190.94 148.70 C 181.39 148.77 171.71 148.39 162.23 148.89 M 131.25 159.23 C 131.24 185.04 131.20 210.85 131.27 236.66 C 137.77 236.67 144.28 236.67 150.78 236.67 C 150.86 210.85 150.82 185.03 150.80 159.22 C 144.28 159.19 137.77 159.18 131.25 159.23 M 209.31 167.58 C 214.98 190.01 220.79 212.41 226.38 234.86 C 233.07 233.61 239.64 231.56 246.28 229.96 C 240.89 207.45 234.85 185.04 229.26 162.55 C 222.57 164.05 215.95 165.88 209.31 167.58 M 162.27 171.41 C 162.21 193.16 162.21 214.91 162.27 236.66 C 171.80 236.69 181.34 236.63 190.87 236.69 C 190.98 214.93 191.01 193.14 190.85 171.38 C 181.33 171.43 171.80 171.37 162.27 171.41 M 229.79 245.96 L 229.34 246.55 C 230.64 249.82 230.60 253.88 232.51 256.73 C 238.94 254.91 245.45 253.39 251.91 251.68 C 251.09 248.11 250.13 244.56 249.20 241.01 C 242.72 242.62 236.26 244.29 229.79 245.96 M 131.24 248.11 C 131.22 251.82 131.26 255.53 131.21 259.24 C 137.66 259.62 144.39 259.61 150.84 259.24 C 150.80 255.53 150.84 251.82 150.82 248.11 C 144.29 248.04 137.76 248.04 131.24 248.11 M 162.22 248.12 C 162.52 251.87 161.66 256.03 162.66 259.52 C 172.08 259.38 181.51 259.53 190.93 259.44 C 190.94 255.66 190.97 251.87 190.93 248.09 C 181.36 248.07 171.79 248.01 162.22 248.12 Z" />
</g>
</svg>
