<?xml version="1.0" encoding="UTF-8" ?>
<!DOCTYPE svg PUBLIC "-//W3C//DTD SVG 1.1//EN" "http://www.w3.org/Graphics/SVG/1.1/DTD/svg11.dtd">
<svg width="71px" height="96px" viewBox="0 0 370 500" version="1.1" xmlns="http://www.w3.org/2000/svg">
<g id="#1d1761ff">
<path fill="#1d1761" opacity="1.00" d=" M 178.43 0.00 L 190.60 0.00 C 222.72 1.17 254.41 11.16 281.46 28.51 C 314.86 49.84 341.49 81.68 356.32 118.45 C 368.41 147.86 372.57 180.50 368.01 211.98 C 363.17 246.26 350.21 278.85 334.33 309.41 C 311.76 352.34 283.04 391.74 251.88 428.80 C 231.74 452.54 210.55 475.42 188.04 496.94 C 187.14 497.96 185.67 498.63 185.26 500.00 L 185.26 500.00 C 151.90 468.52 121.27 434.17 93.20 397.90 C 69.54 366.99 47.82 334.40 30.62 299.42 C 15.65 268.79 3.88 236.03 0.85 201.88 C -2.53 164.38 6.76 126.14 25.84 93.79 C 42.62 64.99 67.05 40.66 95.95 24.02 C 120.99 9.54 149.54 1.32 178.43 0.00 M 181.17 99.33 C 174.39 100.59 168.48 105.61 166.12 112.10 C 163.56 118.80 164.99 126.81 169.73 132.20 C 174.37 137.72 182.11 140.35 189.16 138.79 C 196.82 137.27 203.21 130.86 204.72 123.20 C 206.16 116.67 203.98 109.52 199.21 104.84 C 194.59 100.17 187.61 98.04 181.17 99.33 M 151.45 164.93 C 151.41 179.44 151.36 193.95 151.48 208.46 C 143.15 209.10 134.64 208.57 126.25 208.72 C 126.20 199.78 126.27 190.83 126.22 181.89 C 121.74 181.85 117.26 181.85 112.78 181.88 C 112.72 190.83 112.80 199.78 112.75 208.73 C 108.17 208.77 103.59 208.70 99.02 208.75 C 98.99 213.20 98.99 217.66 99.02 222.12 C 103.60 222.18 108.18 222.09 112.76 222.15 C 112.79 231.10 112.74 240.04 112.78 248.98 C 117.26 249.01 121.74 249.01 126.22 248.98 C 126.26 240.04 126.21 231.09 126.24 222.15 C 139.10 222.12 151.96 222.12 164.82 222.15 C 164.85 238.36 164.79 254.57 164.85 270.78 C 169.31 270.82 173.78 270.79 178.25 270.80 C 178.35 254.59 178.26 238.37 178.29 222.16 C 182.77 222.12 187.24 222.10 191.71 222.17 C 191.72 238.38 191.66 254.59 191.74 270.80 C 196.21 270.79 200.68 270.81 205.15 270.79 C 205.22 254.58 205.15 238.36 205.18 222.15 C 218.04 222.13 230.90 222.11 243.76 222.16 C 243.78 231.10 243.74 240.04 243.78 248.98 C 248.26 249.01 252.74 249.01 257.22 248.98 C 257.26 240.04 257.23 231.10 257.23 222.16 C 261.81 222.08 266.40 222.18 270.98 222.12 C 271.02 217.66 271.01 213.21 270.98 208.75 C 266.41 208.70 261.83 208.77 257.25 208.73 C 257.20 199.78 257.28 190.83 257.22 181.89 C 252.74 181.85 248.26 181.85 243.78 181.88 C 243.72 190.83 243.80 199.78 243.75 208.72 C 235.40 208.76 227.05 208.70 218.70 208.76 C 218.36 193.82 218.80 178.86 218.48 163.92 C 217.81 154.03 208.83 145.65 198.91 145.63 C 189.30 145.62 179.68 145.51 170.08 145.69 C 160.18 146.20 151.63 155.01 151.45 164.93 Z" />
<path fill="#1d1761" opacity="1.00" d=" M 181.38 113.45 C 185.83 110.25 192.61 114.56 191.67 119.92 C 191.28 124.69 185.18 127.49 181.31 124.68 C 177.28 122.29 177.34 115.79 181.38 113.45 Z" />
<path fill="#1d1761" opacity="1.00" d=" M 164.84 166.04 C 164.66 162.60 167.48 159.32 170.93 159.10 C 179.97 159.01 189.02 159.09 198.06 159.07 C 201.89 158.75 205.39 162.22 205.16 166.05 C 205.07 180.27 205.44 194.56 204.97 208.75 C 191.65 208.73 178.33 208.73 165.01 208.74 C 164.59 194.54 164.92 180.27 164.84 166.04 Z" />
</g>
<g id="#ed1944ff">
<path fill="#ed1944" opacity="1.00" d=" M 181.17 99.33 C 187.61 98.04 194.59 100.17 199.21 104.84 C 203.98 109.52 206.16 116.67 204.72 123.20 C 203.21 130.86 196.82 137.27 189.16 138.79 C 182.11 140.35 174.37 137.72 169.73 132.20 C 164.99 126.81 163.56 118.80 166.12 112.10 C 168.48 105.61 174.39 100.59 181.17 99.33 M 181.38 113.45 C 177.34 115.79 177.28 122.29 181.31 124.68 C 185.18 127.49 191.28 124.69 191.67 119.92 C 192.61 114.56 185.83 110.25 181.38 113.45 Z" />
<path fill="#ed1944" opacity="1.00" d=" M 151.45 164.93 C 151.63 155.01 160.18 146.20 170.08 145.69 C 179.68 145.51 189.30 145.62 198.91 145.63 C 208.83 145.65 217.81 154.03 218.48 163.92 C 218.80 178.86 218.36 193.82 218.70 208.76 C 227.05 208.70 235.40 208.76 243.75 208.72 C 243.80 199.78 243.72 190.83 243.78 181.88 C 248.26 181.85 252.74 181.85 257.22 181.89 C 257.28 190.83 257.20 199.78 257.25 208.73 C 261.83 208.77 266.41 208.70 270.98 208.75 C 271.01 213.21 271.02 217.66 270.98 222.12 C 266.40 222.18 261.81 222.08 257.23 222.16 C 257.23 231.10 257.26 240.04 257.22 248.98 C 252.74 249.01 248.26 249.01 243.78 248.98 C 243.74 240.04 243.78 231.10 243.76 222.16 C 230.90 222.11 218.04 222.13 205.18 222.15 C 205.15 238.36 205.22 254.58 205.15 270.79 C 200.68 270.81 196.21 270.79 191.74 270.80 C 191.66 254.59 191.72 238.38 191.71 222.17 C 187.24 222.10 182.77 222.12 178.29 222.16 C 178.26 238.37 178.35 254.59 178.25 270.80 C 173.78 270.79 169.31 270.82 164.85 270.78 C 164.79 254.57 164.85 238.36 164.82 222.15 C 151.96 222.12 139.10 222.12 126.24 222.15 C 126.21 231.09 126.26 240.04 126.22 248.98 C 121.74 249.01 117.26 249.01 112.78 248.98 C 112.74 240.04 112.79 231.10 112.76 222.15 C 108.18 222.09 103.60 222.18 99.02 222.12 C 98.99 217.66 98.99 213.20 99.02 208.75 C 103.59 208.70 108.17 208.77 112.75 208.73 C 112.80 199.78 112.72 190.83 112.78 181.88 C 117.26 181.85 121.74 181.85 126.22 181.89 C 126.27 190.83 126.20 199.78 126.25 208.72 C 134.64 208.57 143.15 209.10 151.48 208.46 C 151.36 193.95 151.41 179.44 151.45 164.93 M 164.84 166.04 C 164.92 180.27 164.59 194.54 165.01 208.74 C 178.33 208.73 191.65 208.73 204.97 208.75 C 205.44 194.56 205.07 180.27 205.16 166.05 C 205.39 162.22 201.89 158.75 198.06 159.07 C 189.02 159.09 179.97 159.01 170.93 159.10 C 167.48 159.32 164.66 162.60 164.84 166.04 Z" />
</g>
</svg>
