<?xml version="1.0" encoding="UTF-8" ?>
<!DOCTYPE svg PUBLIC "-//W3C//DTD SVG 1.1//EN" "http://www.w3.org/Graphics/SVG/1.1/DTD/svg11.dtd">
<svg width="71px" height="96px" viewBox="0 0 370 500" version="1.1" xmlns="http://www.w3.org/2000/svg">
<g id="#1d1761ff">
<path fill="#1d1761" opacity="1.00" d=" M 177.74 0.00 L 190.48 0.00 C 222.42 1.13 253.93 10.97 280.88 28.15 C 314.76 49.60 341.75 81.87 356.60 119.15 C 368.50 148.39 372.53 180.79 368.00 212.04 C 363.16 246.28 350.22 278.84 334.34 309.37 C 311.88 352.13 283.29 391.39 252.28 428.32 C 232.02 452.22 210.72 475.28 188.04 496.91 C 187.20 497.90 185.75 498.61 185.52 500.00 L 184.49 500.00 C 183.89 498.04 181.80 496.99 180.50 495.52 C 155.48 471.48 132.06 445.80 109.99 419.04 C 84.03 387.29 59.99 353.81 40.20 317.84 C 22.18 284.84 7.32 249.45 1.99 212.00 C -2.88 178.55 2.18 143.84 15.98 113.02 C 32.84 74.74 62.57 42.27 99.25 22.17 C 123.27 8.88 150.35 1.44 177.74 0.00 M 138.27 133.34 C 126.70 145.84 120.38 161.92 113.20 177.10 C 109.59 185.26 105.09 193.03 99.05 199.63 C 107.45 205.98 111.86 215.78 118.05 224.01 C 125.49 234.38 134.50 243.91 145.65 250.32 C 163.39 260.74 185.27 262.67 205.09 258.09 C 223.35 253.88 238.88 241.76 249.84 226.85 C 257.06 217.88 261.72 206.76 270.99 199.56 C 267.40 195.51 264.04 191.23 261.48 186.44 C 253.98 172.45 248.67 157.30 239.94 143.96 C 235.54 137.23 230.30 130.86 223.58 126.33 C 216.98 121.84 208.93 119.47 200.95 119.86 C 194.75 120.33 189.54 124.16 184.95 128.05 C 179.77 123.41 173.29 119.15 166.00 119.84 C 155.35 120.16 145.37 125.57 138.27 133.34 Z" />
<path fill="#1d1761" opacity="1.00" d=" M 143.71 147.71 C 148.76 140.65 155.92 134.26 164.89 133.32 C 169.53 132.17 173.36 135.65 176.54 138.50 C 179.91 141.71 182.76 145.41 185.36 149.25 C 189.32 142.97 194.20 136.65 201.05 133.39 C 210.16 132.28 218.64 138.02 224.10 144.91 C 234.82 158.22 240.30 174.67 248.04 189.70 C 230.12 186.30 212.91 179.96 194.99 176.57 C 187.45 175.05 179.66 175.45 172.20 177.17 C 155.19 180.96 138.83 187.28 121.65 190.33 C 128.97 176.12 134.32 160.78 143.71 147.71 Z" />
<path fill="#1d1761" opacity="1.00" d=" M 176.94 190.39 C 178.64 188.66 181.75 189.46 184.00 188.96 C 186.91 189.20 190.62 188.61 193.03 190.31 C 190.43 191.29 187.81 192.47 185.00 192.61 C 182.18 192.49 179.54 191.35 176.94 190.39 Z" />
<path fill="#1d1761" opacity="1.00" d=" M 120.70 204.00 C 131.62 202.35 142.26 199.34 152.84 196.25 C 155.41 195.37 157.97 196.84 160.36 197.65 C 168.71 200.95 176.82 206.25 186.12 205.91 C 196.20 205.19 204.52 198.71 213.97 195.88 C 215.80 195.16 217.63 195.97 219.40 196.43 C 229.36 199.20 239.38 201.83 249.58 203.53 C 241.64 215.86 233.29 228.58 220.85 236.83 C 207.00 246.25 189.36 248.65 173.05 246.11 C 160.77 244.26 149.19 238.39 140.35 229.69 C 132.49 222.21 126.63 213.00 120.70 204.00 Z" />
</g>
<g id="#ed1944ff">
<path fill="#ed1944" opacity="1.00" d=" M 138.27 133.34 C 145.37 125.57 155.35 120.16 166.00 119.84 C 173.29 119.15 179.77 123.41 184.95 128.05 C 189.54 124.16 194.75 120.33 200.95 119.86 C 208.93 119.47 216.98 121.84 223.58 126.33 C 230.30 130.86 235.54 137.23 239.94 143.96 C 248.67 157.30 253.98 172.45 261.48 186.44 C 264.04 191.23 267.40 195.51 270.99 199.56 C 261.72 206.76 257.06 217.88 249.84 226.85 C 238.88 241.76 223.35 253.88 205.09 258.09 C 185.27 262.67 163.39 260.74 145.65 250.32 C 134.50 243.91 125.49 234.38 118.05 224.01 C 111.86 215.78 107.45 205.98 99.05 199.63 C 105.09 193.03 109.59 185.26 113.20 177.10 C 120.38 161.92 126.70 145.84 138.27 133.34 M 143.71 147.71 C 134.32 160.78 128.97 176.12 121.65 190.33 C 138.83 187.28 155.19 180.96 172.20 177.17 C 179.66 175.45 187.45 175.05 194.99 176.57 C 212.91 179.96 230.12 186.30 248.04 189.70 C 240.30 174.67 234.82 158.22 224.10 144.91 C 218.64 138.02 210.16 132.28 201.05 133.39 C 194.20 136.65 189.32 142.97 185.36 149.25 C 182.76 145.41 179.91 141.71 176.54 138.50 C 173.36 135.65 169.53 132.17 164.89 133.32 C 155.92 134.26 148.76 140.65 143.71 147.71 M 176.94 190.39 C 179.54 191.35 182.18 192.49 185.00 192.61 C 187.81 192.47 190.43 191.29 193.03 190.31 C 190.62 188.61 186.91 189.20 184.00 188.96 C 181.75 189.46 178.64 188.66 176.94 190.39 M 120.70 204.00 C 126.63 213.00 132.49 222.21 140.35 229.69 C 149.19 238.39 160.77 244.26 173.05 246.11 C 189.36 248.65 207.00 246.25 220.85 236.83 C 233.29 228.58 241.64 215.86 249.58 203.53 C 239.38 201.83 229.36 199.20 219.40 196.43 C 217.63 195.97 215.80 195.16 213.97 195.88 C 204.52 198.71 196.20 205.19 186.12 205.91 C 176.82 206.25 168.71 200.95 160.36 197.65 C 157.97 196.84 155.41 195.37 152.84 196.25 C 142.26 199.34 131.62 202.35 120.70 204.00 Z" />
</g>
</svg>
