<?xml version="1.0" encoding="UTF-8" ?>
<!DOCTYPE svg PUBLIC "-//W3C//DTD SVG 1.1//EN" "http://www.w3.org/Graphics/SVG/1.1/DTD/svg11.dtd">
<svg width="71px" height="96px" viewBox="0 0 370 500" version="1.1" xmlns="http://www.w3.org/2000/svg">
<g id="#1d1761ff">
<path fill="#1d1761" opacity="1.00" d=" M 177.54 0.00 L 190.57 0.00 C 222.24 1.14 253.49 10.84 280.28 27.77 C 312.14 47.76 337.91 77.31 353.41 111.59 C 366.91 141.30 372.49 174.65 368.62 207.10 C 364.52 242.37 351.51 275.96 335.38 307.36 C 312.90 350.69 284.06 390.42 252.75 427.76 C 232.22 452.06 210.55 475.42 187.57 497.41 C 186.83 498.21 186.16 499.07 185.56 500.00 L 184.45 500.00 C 182.64 497.05 179.83 494.99 177.42 492.58 C 143.27 459.17 111.66 423.13 83.27 384.69 C 61.91 355.50 42.38 324.80 27.05 291.97 C 13.44 262.64 2.96 231.36 0.62 198.94 C -2.08 162.14 7.40 124.81 26.20 93.16 C 45.64 60.13 75.13 32.99 109.90 16.78 C 131.06 6.78 154.21 1.34 177.54 0.00 M 198.40 117.51 C 193.04 119.13 187.40 121.38 183.96 126.02 C 182.19 128.30 181.82 131.25 181.87 134.05 C 181.90 151.13 181.88 168.21 181.89 185.30 C 171.13 181.19 159.42 180.22 148.00 180.86 C 139.44 181.47 130.69 182.94 123.04 187.03 C 118.62 189.40 114.42 193.61 114.66 199.00 C 114.63 213.35 114.66 227.70 114.64 242.05 C 114.38 250.90 123.67 255.33 130.92 257.41 C 140.32 260.12 150.23 260.76 159.97 260.22 C 169.56 259.59 179.42 257.86 187.69 252.68 C 194.59 257.22 202.87 258.95 210.96 259.86 C 221.78 260.95 232.86 260.49 243.39 257.68 C 248.88 256.09 254.66 253.89 258.30 249.25 C 260.19 246.95 260.69 243.89 260.60 241.00 C 260.56 204.98 260.61 168.96 260.57 132.94 C 260.85 128.29 257.81 124.19 254.01 121.83 C 248.04 118.04 240.99 116.46 234.09 115.43 C 222.22 113.94 209.97 114.29 198.40 117.51 Z" />
<path fill="#1d1761" opacity="1.00" d=" M 200.81 128.68 C 209.92 125.97 219.59 125.59 229.02 126.32 C 235.93 127.06 243.13 128.21 249.03 132.16 C 242.70 136.80 234.53 137.63 226.95 138.34 C 215.71 138.84 203.72 138.31 193.69 132.65 C 195.31 130.29 198.27 129.61 200.81 128.68 Z" />
<path fill="#1d1761" opacity="1.00" d=" M 193.37 153.77 C 193.14 150.94 193.33 148.10 193.31 145.27 C 202.09 148.67 211.57 149.87 220.95 149.91 C 230.52 149.92 240.21 148.73 249.18 145.27 C 249.19 148.23 249.17 151.18 249.15 154.14 C 242.63 158.55 234.58 159.64 226.92 160.22 C 217.80 160.70 208.45 160.26 199.73 157.36 C 197.50 156.46 194.91 155.74 193.37 153.77 Z" />
<path fill="#1d1761" opacity="1.00" d=" M 193.29 167.18 C 202.09 170.58 211.58 171.78 220.97 171.81 C 230.53 171.82 240.21 170.65 249.17 167.17 C 249.19 170.14 249.17 173.11 249.15 176.07 C 244.15 179.59 238.03 180.88 232.08 181.68 C 222.36 182.83 212.39 182.61 202.87 180.26 C 199.53 179.27 195.86 178.35 193.37 175.77 C 193.15 172.91 193.32 170.04 193.29 167.18 Z" />
<path fill="#1d1761" opacity="1.00" d=" M 193.29 189.12 C 202.11 192.52 211.62 193.74 221.03 193.76 C 230.57 193.77 240.22 192.58 249.16 189.13 C 248.59 192.84 251.10 198.70 246.30 200.27 C 237.17 204.45 226.85 205.05 216.95 204.70 C 208.92 204.13 200.24 203.32 193.50 198.52 C 193.05 195.41 193.36 192.25 193.29 189.12 Z" />
<path fill="#1d1761" opacity="1.00" d=" M 126.23 198.33 C 136.89 191.94 149.96 191.59 162.02 192.45 C 168.79 193.36 176.33 194.00 181.72 198.62 C 177.99 200.93 173.85 202.52 169.54 203.36 C 159.10 205.44 148.22 205.39 137.78 203.31 C 133.73 202.29 129.31 201.36 126.23 198.33 Z" />
<path fill="#1d1761" opacity="1.00" d=" M 126.06 211.66 C 134.63 214.96 143.86 216.20 153.00 216.29 C 162.81 216.39 172.72 215.06 181.90 211.51 C 181.90 214.61 181.88 217.72 181.84 220.83 C 173.86 225.80 164.11 226.49 154.94 226.80 C 145.14 226.68 134.70 226.07 126.11 220.86 C 126.06 217.79 126.03 214.72 126.06 211.66 Z" />
<path fill="#1d1761" opacity="1.00" d=" M 193.33 220.73 C 193.24 217.67 193.26 214.61 193.43 211.56 C 201.55 214.80 210.33 215.97 219.02 216.19 C 229.22 216.38 239.58 215.25 249.16 211.57 C 249.03 214.64 249.58 217.82 248.85 220.82 C 245.84 223.20 242.05 224.27 238.39 225.22 C 229.41 227.25 220.07 227.43 210.94 226.42 C 204.81 225.61 198.49 224.32 193.33 220.73 Z" />
<path fill="#1d1761" opacity="1.00" d=" M 126.06 233.74 C 134.98 237.06 144.56 238.17 154.03 238.19 C 163.46 238.16 173.01 237.06 181.89 233.74 C 181.91 236.76 181.88 239.79 181.82 242.82 C 174.21 247.71 164.85 248.62 156.03 248.99 C 145.86 249.00 135.02 248.34 126.15 242.86 C 126.05 239.82 126.02 236.78 126.06 233.74 Z" />
<path fill="#1d1761" opacity="1.00" d=" M 193.29 233.81 C 200.58 236.53 208.30 237.92 216.06 238.29 C 227.23 238.80 238.64 237.80 249.16 233.80 C 249.04 236.78 249.57 239.87 248.85 242.80 C 246.42 244.78 243.37 245.79 240.40 246.66 C 231.14 249.18 221.39 249.43 211.87 248.51 C 205.43 247.74 198.77 246.47 193.33 242.72 C 193.30 239.75 193.28 236.78 193.29 233.81 Z" />
</g>
<g id="#ed1944ff">
<path fill="#ed1944" opacity="1.00" d=" M 198.40 117.51 C 209.97 114.29 222.22 113.94 234.09 115.43 C 240.99 116.46 248.04 118.04 254.01 121.83 C 257.81 124.19 260.85 128.29 260.57 132.94 C 260.61 168.96 260.56 204.98 260.60 241.00 C 260.69 243.89 260.19 246.95 258.30 249.25 C 254.66 253.89 248.88 256.09 243.39 257.68 C 232.86 260.49 221.78 260.95 210.96 259.86 C 202.87 258.95 194.59 257.22 187.69 252.68 C 179.42 257.86 169.56 259.59 159.97 260.22 C 150.23 260.76 140.32 260.12 130.92 257.41 C 123.67 255.33 114.38 250.90 114.64 242.05 C 114.66 227.70 114.63 213.35 114.66 199.00 C 114.42 193.61 118.62 189.40 123.04 187.03 C 130.69 182.94 139.44 181.47 148.00 180.86 C 159.42 180.22 171.13 181.19 181.89 185.30 C 181.88 168.21 181.90 151.13 181.87 134.05 C 181.82 131.25 182.19 128.30 183.96 126.02 C 187.40 121.38 193.04 119.13 198.40 117.51 M 200.81 128.68 C 198.27 129.61 195.31 130.29 193.69 132.65 C 203.72 138.31 215.71 138.84 226.95 138.34 C 234.53 137.63 242.70 136.80 249.03 132.16 C 243.13 128.21 235.93 127.06 229.02 126.32 C 219.59 125.59 209.92 125.97 200.81 128.68 M 193.37 153.77 C 194.91 155.74 197.50 156.46 199.73 157.36 C 208.45 160.26 217.80 160.70 226.92 160.22 C 234.58 159.64 242.63 158.55 249.15 154.14 C 249.17 151.18 249.19 148.23 249.18 145.27 C 240.21 148.73 230.52 149.92 220.95 149.91 C 211.57 149.87 202.09 148.67 193.31 145.27 C 193.33 148.10 193.14 150.94 193.37 153.77 M 193.29 167.18 C 193.32 170.04 193.15 172.91 193.37 175.77 C 195.86 178.35 199.53 179.27 202.87 180.26 C 212.39 182.61 222.36 182.83 232.08 181.68 C 238.03 180.88 244.15 179.59 249.15 176.07 C 249.17 173.11 249.19 170.14 249.17 167.17 C 240.21 170.65 230.53 171.82 220.97 171.81 C 211.58 171.78 202.09 170.58 193.29 167.18 M 193.29 189.12 C 193.36 192.25 193.05 195.41 193.50 198.52 C 200.24 203.32 208.92 204.13 216.95 204.70 C 226.85 205.05 237.17 204.45 246.30 200.27 C 251.10 198.70 248.59 192.84 249.16 189.13 C 240.22 192.58 230.57 193.77 221.03 193.76 C 211.62 193.74 202.11 192.52 193.29 189.12 M 126.23 198.33 C 129.31 201.36 133.73 202.29 137.78 203.31 C 148.22 205.39 159.10 205.44 169.54 203.36 C 173.85 202.52 177.99 200.93 181.72 198.62 C 176.33 194.00 168.79 193.36 162.02 192.45 C 149.96 191.59 136.89 191.94 126.23 198.33 M 126.06 211.66 C 126.03 214.72 126.06 217.79 126.11 220.86 C 134.70 226.07 145.14 226.68 154.94 226.80 C 164.11 226.49 173.86 225.80 181.84 220.83 C 181.88 217.72 181.90 214.61 181.90 211.51 C 172.72 215.06 162.81 216.39 153.00 216.29 C 143.86 216.20 134.63 214.96 126.06 211.66 M 193.33 220.73 C 198.49 224.32 204.81 225.61 210.94 226.42 C 220.07 227.43 229.41 227.25 238.39 225.22 C 242.05 224.27 245.84 223.20 248.85 220.82 C 249.58 217.82 249.03 214.64 249.16 211.57 C 239.58 215.25 229.22 216.38 219.02 216.19 C 210.33 215.97 201.55 214.80 193.43 211.56 C 193.26 214.61 193.24 217.67 193.33 220.73 M 126.06 233.74 C 126.02 236.78 126.05 239.82 126.15 242.86 C 135.02 248.34 145.86 249.00 156.03 248.99 C 164.85 248.62 174.21 247.71 181.82 242.82 C 181.88 239.79 181.91 236.76 181.89 233.74 C 173.01 237.06 163.46 238.16 154.03 238.19 C 144.56 238.17 134.98 237.06 126.06 233.74 M 193.29 233.81 C 193.28 236.78 193.30 239.75 193.33 242.72 C 198.77 246.47 205.43 247.74 211.87 248.51 C 221.39 249.43 231.14 249.18 240.40 246.66 C 243.37 245.79 246.42 244.78 248.85 242.80 C 249.57 239.87 249.04 236.78 249.16 233.80 C 238.64 237.80 227.23 238.80 216.06 238.29 C 208.30 237.92 200.58 236.53 193.29 233.81 Z" />
</g>
</svg>
