<?xml version="1.0" encoding="UTF-8" ?>
<!DOCTYPE svg PUBLIC "-//W3C//DTD SVG 1.1//EN" "http://www.w3.org/Graphics/SVG/1.1/DTD/svg11.dtd">
<svg width="71px" height="96px" viewBox="0 0 370 500" version="1.1" xmlns="http://www.w3.org/2000/svg">
<g id="#1d1761ff">
<path fill="#1d1761" opacity="1.00" d=" M 178.42 0.00 L 190.61 0.00 C 223.75 1.20 256.42 11.82 284.03 30.18 C 316.23 51.50 341.90 82.64 356.33 118.49 C 367.90 146.67 372.24 177.82 368.51 208.08 C 364.75 239.30 353.95 269.24 340.35 297.43 C 319.12 341.04 291.05 380.95 260.48 418.47 C 237.11 446.88 212.15 474.02 185.51 499.39 L 185.27 500.00 L 185.27 500.00 C 172.78 488.40 160.88 476.18 149.21 463.76 C 110.95 422.61 75.61 378.41 47.04 329.92 C 26.20 294.05 8.66 255.41 2.29 214.13 C -3.05 180.02 1.86 144.48 15.99 113.01 C 32.54 75.42 61.52 43.43 97.30 23.26 C 122.01 9.24 150.05 1.30 178.42 0.00 M 180.43 104.22 C 171.20 125.76 161.74 147.19 152.49 168.72 C 136.41 168.92 120.32 168.71 104.24 168.83 C 104.21 172.98 104.26 177.13 104.21 181.29 C 107.37 181.53 110.55 181.37 113.72 181.34 C 117.18 202.57 119.91 223.94 123.25 245.19 C 125.86 257.25 138.08 265.44 150.05 265.59 C 173.37 265.61 196.69 265.61 220.00 265.59 C 231.99 265.42 244.12 257.18 246.75 245.14 C 250.04 223.91 252.82 202.59 256.14 181.36 C 259.26 181.43 262.37 181.34 265.48 181.47 C 266.15 177.35 265.57 173.06 265.77 168.88 C 249.66 168.65 233.54 168.93 217.43 168.74 C 208.20 147.22 198.71 125.81 189.53 104.28 C 186.51 104.00 183.46 104.11 180.43 104.22 Z" />
<path fill="#1d1761" opacity="1.00" d=" M 166.18 168.76 C 172.48 154.41 178.63 140.00 184.96 125.66 C 191.26 140.02 197.48 154.41 203.71 168.79 C 191.20 168.78 178.69 168.85 166.18 168.76 Z" />
<path fill="#1d1761" opacity="1.00" d=" M 126.62 181.43 C 165.07 181.35 203.52 181.42 241.97 181.40 C 242.30 181.45 242.97 181.54 243.31 181.59 C 240.26 201.90 237.46 222.25 234.40 242.56 C 232.66 249.16 225.50 253.11 218.97 253.00 C 195.98 252.98 172.99 253.04 150.01 252.98 C 143.36 252.77 136.12 248.19 135.35 241.15 C 132.44 221.24 129.54 201.34 126.62 181.43 M 145.56 194.06 C 145.49 205.03 145.55 216.00 145.52 226.97 C 145.49 229.89 145.88 232.99 147.65 235.41 C 149.96 238.78 154.16 240.27 158.10 240.40 C 158.12 224.96 158.12 209.52 158.10 194.08 C 153.92 194.05 149.74 194.08 145.56 194.06 M 167.96 194.08 C 167.93 209.51 167.93 224.95 167.96 240.38 C 172.12 240.43 176.29 240.37 180.46 240.42 C 180.64 224.99 180.44 209.56 180.56 194.13 C 176.36 194.00 172.16 194.08 167.96 194.08 M 189.72 194.08 C 189.69 209.51 189.70 224.95 189.72 240.38 C 193.91 240.41 198.09 240.41 202.28 240.38 C 202.30 224.94 202.31 209.51 202.27 194.07 C 198.09 194.06 193.91 194.06 189.72 194.08 M 211.78 194.08 C 211.75 209.53 211.76 224.97 211.78 240.42 C 217.79 240.55 223.90 236.21 224.27 229.91 C 224.59 217.97 224.35 206.02 224.39 194.07 C 220.19 194.06 215.98 194.05 211.78 194.08 Z" />
</g>
<g id="#ed1944ff">
<path fill="#ed1944" opacity="1.00" d=" M 180.43 104.22 C 183.46 104.11 186.51 104.00 189.53 104.28 C 198.71 125.81 208.20 147.22 217.43 168.74 C 233.54 168.93 249.66 168.65 265.77 168.88 C 265.57 173.06 266.15 177.35 265.48 181.47 C 262.37 181.34 259.26 181.43 256.14 181.36 C 252.82 202.59 250.04 223.91 246.75 245.14 C 244.12 257.18 231.99 265.42 220.00 265.59 C 196.69 265.61 173.37 265.61 150.05 265.59 C 138.08 265.44 125.86 257.25 123.25 245.19 C 119.91 223.94 117.18 202.57 113.72 181.34 C 110.55 181.37 107.37 181.53 104.21 181.29 C 104.26 177.13 104.21 172.98 104.24 168.83 C 120.32 168.71 136.41 168.92 152.49 168.72 C 161.74 147.19 171.20 125.76 180.43 104.22 M 166.18 168.76 C 178.69 168.85 191.20 168.78 203.71 168.79 C 197.48 154.41 191.26 140.02 184.96 125.66 C 178.63 140.00 172.48 154.41 166.18 168.76 M 126.62 181.43 C 129.54 201.34 132.44 221.24 135.35 241.15 C 136.12 248.19 143.36 252.77 150.01 252.98 C 172.99 253.04 195.98 252.98 218.97 253.00 C 225.50 253.11 232.66 249.16 234.40 242.56 C 237.46 222.25 240.26 201.90 243.31 181.59 C 242.97 181.54 242.30 181.45 241.97 181.40 C 203.52 181.42 165.07 181.35 126.62 181.43 Z" />
<path fill="#ed1944" opacity="1.00" d=" M 145.56 194.06 C 149.74 194.08 153.92 194.05 158.10 194.08 C 158.12 209.52 158.12 224.96 158.10 240.40 C 154.16 240.27 149.96 238.78 147.65 235.41 C 145.88 232.99 145.49 229.89 145.52 226.97 C 145.55 216.00 145.49 205.03 145.56 194.06 Z" />
<path fill="#ed1944" opacity="1.00" d=" M 167.96 194.08 C 172.16 194.08 176.36 194.00 180.56 194.13 C 180.44 209.56 180.64 224.99 180.46 240.42 C 176.29 240.37 172.12 240.43 167.96 240.38 C 167.93 224.95 167.93 209.51 167.96 194.08 Z" />
<path fill="#ed1944" opacity="1.00" d=" M 189.72 194.08 C 193.91 194.06 198.09 194.06 202.27 194.07 C 202.31 209.51 202.30 224.94 202.28 240.38 C 198.09 240.41 193.91 240.41 189.72 240.38 C 189.70 224.95 189.69 209.51 189.72 194.08 Z" />
<path fill="#ed1944" opacity="1.00" d=" M 211.78 194.08 C 215.98 194.05 220.19 194.06 224.39 194.07 C 224.35 206.02 224.59 217.97 224.27 229.91 C 223.90 236.21 217.79 240.55 211.78 240.42 C 211.76 224.97 211.75 209.53 211.78 194.08 Z" />
</g>
</svg>
