<?xml version="1.0" encoding="UTF-8"?>
<!DOCTYPE svg PUBLIC "-//W3C//DTD SVG 1.1//EN" "http://www.w3.org/Graphics/SVG/1.1/DTD/svg11.dtd">
<svg width="72px" height="97px" viewBox="0 0 72 97" version="1.1" xmlns="http://www.w3.org/2000/svg">
<g id="#ed1944ff">
<path fill="#ed1944" opacity="1.00" d=" M 35.21 0.00 L 36.74 0.00 C 55.29 0.22 71.64 16.72 72.00 35.21 L 72.00 38.64 C 71.14 47.18 67.87 55.27 63.64 62.68 C 56.28 75.46 46.58 86.75 36.03 97.00 L 36.03 97.00 C 25.61 86.98 16.09 75.87 8.77 63.36 C 4.39 55.73 0.88 47.43 0.00 38.60 L 0.00 34.35 C 0.93 16.22 16.94 0.26 35.21 0.00 M 31.45 18.47 C 25.47 20.20 20.90 25.76 20.27 31.94 C 19.01 40.65 26.08 49.48 34.92 49.90 C 43.83 50.84 52.23 42.95 52.02 34.03 C 52.56 23.67 41.32 15.05 31.45 18.47 Z"/>
</g>
</svg>