<?xml version="1.0" encoding="UTF-8" ?>
<!DOCTYPE svg PUBLIC "-//W3C//DTD SVG 1.1//EN" "http://www.w3.org/Graphics/SVG/1.1/DTD/svg11.dtd">
<svg width="71px" height="96px" viewBox="0 0 370 500" version="1.1" xmlns="http://www.w3.org/2000/svg">
<g id="#1d1761ff">
<path fill="#1d1761" opacity="1.00" d=" M 177.44 0.00 L 190.67 0.00 C 220.36 1.12 249.70 9.67 275.30 24.75 C 306.24 42.86 331.87 69.84 348.52 101.58 C 364.18 131.33 371.83 165.41 369.37 199.00 C 367.08 230.65 357.02 261.22 343.89 289.93 C 322.26 336.68 292.51 379.20 260.04 419.01 C 236.78 447.20 212.04 474.21 185.50 499.34 L 185.25 500.00 L 185.25 500.00 C 148.31 465.04 114.55 426.73 84.19 385.94 C 60.38 353.53 38.78 319.26 22.71 282.32 C 10.01 252.83 0.70 221.31 0.21 189.00 C -0.44 149.87 12.55 110.98 35.24 79.23 C 57.35 48.20 88.75 23.67 124.65 10.67 C 141.57 4.40 159.47 1.15 177.44 0.00 M 157.19 104.18 C 144.69 127.75 132.26 151.37 119.84 174.98 C 123.36 175.03 126.88 174.97 130.41 175.01 C 123.74 189.23 116.92 203.37 110.29 217.60 C 113.36 217.62 116.44 217.56 119.52 217.64 C 112.75 231.76 105.80 245.80 99.05 259.94 C 117.08 259.94 135.12 259.91 153.15 259.95 L 153.56 260.36 C 153.52 265.59 153.50 270.82 153.56 276.05 C 158.03 276.08 162.50 276.09 166.97 276.04 C 166.92 266.18 167.22 256.26 166.82 246.42 C 151.40 246.50 135.98 246.48 120.56 246.43 C 127.31 232.32 134.25 218.31 140.99 204.20 C 137.84 204.18 134.69 204.25 131.54 204.17 C 138.18 189.93 145.02 175.78 151.67 161.54 C 148.50 161.51 145.34 161.55 142.18 161.54 C 148.45 149.25 154.77 136.98 161.23 124.79 C 167.74 137.03 174.30 149.25 180.71 161.55 C 177.57 161.53 174.44 161.55 171.31 161.50 C 173.35 166.02 175.26 170.82 177.83 174.99 C 186.23 175.01 194.64 175.01 203.05 174.99 C 190.66 151.37 178.12 127.82 165.77 104.18 C 162.91 104.10 160.05 104.11 157.19 104.18 M 180.46 189.38 C 180.44 203.84 180.54 218.30 180.41 232.75 C 184.80 233.49 189.39 232.83 193.86 233.09 C 193.92 237.52 193.86 241.96 193.89 246.39 C 189.43 246.58 184.96 246.37 180.49 246.49 C 180.41 250.91 180.53 255.32 180.42 259.74 C 184.86 260.21 189.39 259.76 193.86 259.96 C 193.94 265.32 193.82 270.68 193.91 276.04 C 198.38 276.09 202.85 276.08 207.32 276.04 C 207.38 270.76 207.36 265.47 207.32 260.19 C 219.48 259.61 231.81 260.07 244.03 259.96 C 244.11 265.32 244.00 270.68 244.08 276.04 C 248.56 275.91 253.17 276.45 257.58 275.76 C 257.50 270.49 257.50 265.22 257.57 259.95 C 262.04 259.89 266.51 259.98 270.98 259.91 C 270.88 255.42 271.28 250.85 270.77 246.40 C 266.37 246.51 261.96 246.47 257.55 246.44 C 257.54 241.98 257.47 237.52 257.59 233.06 C 262.05 233.04 266.51 233.11 270.98 233.04 C 271.02 218.28 271.01 203.52 270.98 188.76 C 240.91 188.69 210.84 188.77 180.78 188.72 L 180.46 189.38 Z" />
<path fill="#1d1761" opacity="1.00" d=" M 194.06 202.21 C 215.22 202.25 236.39 202.11 257.55 202.27 C 257.51 208.06 257.56 213.84 257.52 219.62 C 236.44 219.74 215.37 219.60 194.29 219.70 L 193.89 219.17 C 193.99 213.52 193.66 207.82 194.06 202.21 Z" />
<path fill="#1d1761" opacity="1.00" d=" M 207.31 233.20 C 219.54 232.90 231.80 233.13 244.03 233.09 C 244.09 237.54 244.06 241.99 244.04 246.44 C 231.90 246.53 219.75 246.38 207.61 246.51 C 206.97 242.16 207.57 237.62 207.31 233.20 Z" />
</g>
<g id="#ed1944ff">
<path fill="#ed1944" opacity="1.00" d=" M 157.19 104.18 C 160.05 104.11 162.91 104.10 165.77 104.18 C 178.12 127.82 190.66 151.37 203.05 174.99 C 194.64 175.01 186.23 175.01 177.83 174.99 C 175.26 170.82 173.35 166.02 171.31 161.50 C 174.44 161.55 177.57 161.53 180.71 161.55 C 174.30 149.25 167.74 137.03 161.23 124.79 C 154.77 136.98 148.45 149.25 142.18 161.54 C 145.34 161.55 148.50 161.51 151.67 161.54 C 145.02 175.78 138.18 189.93 131.54 204.17 C 134.69 204.25 137.84 204.18 140.99 204.20 C 134.25 218.31 127.31 232.32 120.56 246.43 C 135.98 246.48 151.40 246.50 166.82 246.42 C 167.22 256.26 166.92 266.18 166.97 276.04 C 162.50 276.09 158.03 276.08 153.56 276.05 C 153.50 270.82 153.52 265.59 153.56 260.36 L 153.15 259.95 C 135.12 259.91 117.08 259.94 99.05 259.94 C 105.80 245.80 112.75 231.76 119.52 217.64 C 116.44 217.56 113.36 217.62 110.29 217.60 C 116.92 203.37 123.74 189.23 130.41 175.01 C 126.88 174.97 123.36 175.03 119.84 174.98 C 132.26 151.37 144.69 127.75 157.19 104.18 Z" />
<path fill="#ed1944" opacity="1.00" d=" M 180.46 189.38 L 180.78 188.72 C 210.84 188.77 240.91 188.69 270.98 188.76 C 271.01 203.52 271.02 218.28 270.98 233.04 C 266.51 233.11 262.05 233.04 257.59 233.06 C 257.47 237.52 257.54 241.98 257.55 246.44 C 261.96 246.47 266.37 246.51 270.77 246.40 C 271.28 250.85 270.88 255.42 270.98 259.91 C 266.51 259.98 262.04 259.89 257.57 259.95 C 257.50 265.22 257.50 270.49 257.58 275.76 C 253.17 276.45 248.56 275.91 244.08 276.04 C 244.00 270.68 244.11 265.32 244.03 259.96 C 231.81 260.07 219.48 259.61 207.32 260.19 C 207.36 265.47 207.38 270.76 207.32 276.04 C 202.85 276.08 198.38 276.09 193.91 276.04 C 193.82 270.68 193.94 265.32 193.86 259.96 C 189.39 259.76 184.86 260.21 180.42 259.74 C 180.53 255.32 180.41 250.91 180.49 246.49 C 184.96 246.37 189.43 246.58 193.89 246.39 C 193.86 241.96 193.92 237.52 193.86 233.09 C 189.39 232.83 184.80 233.49 180.41 232.75 C 180.54 218.30 180.44 203.84 180.46 189.38 M 194.06 202.21 C 193.66 207.82 193.99 213.52 193.89 219.17 L 194.29 219.70 C 215.37 219.60 236.44 219.74 257.52 219.62 C 257.56 213.84 257.51 208.06 257.55 202.27 C 236.39 202.11 215.22 202.25 194.06 202.21 M 207.31 233.20 C 207.57 237.62 206.97 242.16 207.61 246.51 C 219.75 246.38 231.90 246.53 244.04 246.44 C 244.06 241.99 244.09 237.54 244.03 233.09 C 231.80 233.13 219.54 232.90 207.31 233.20 Z" />
</g>
</svg>
