<svg xmlns="http://www.w3.org/2000/svg" width="33" height="27" viewBox="0 0 33 27">
  <metadata><?xpacket begin="﻿" id="W5M0MpCehiHzreSzNTczkc9d"?>
<x:xmpmeta xmlns:x="adobe:ns:meta/" x:xmptk="Adobe XMP Core 5.6-c138 79.159824, 2016/09/14-01:09:01        ">
   <rdf:RDF xmlns:rdf="http://www.w3.org/1999/02/22-rdf-syntax-ns#">
      <rdf:Description rdf:about=""/>
   </rdf:RDF>
</x:xmpmeta>
                                                                                                    
                                                                                                    
                                                                                                    
                                                                                                    
                                                                                                    
                                                                                                    
                                                                                                    
                                                                                                    
                                                                                                    
                                                                                                    
                                                                                                    
                                                                                                    
                                                                                                    
                                                                                                    
                                                                                                    
                                                                                                    
                                                                                                    
                                                                                                    
                                                                                                    
                                                                                                    
                           
<?xpacket end="w"?></metadata>
<defs>
    <style>
      .cls-1 {
        fill: #ed1944;
        fill-rule: evenodd;
      }
    </style>
  </defs>
  <path class="cls-1" d="M1787.2,1013.37c-0.11-.13-0.22-0.28-0.34-0.44v-0.14h-0.09a28.872,28.872,0,0,1-2.05-4c-2-4.36-4.48-9.791-9.94-9.791a4.177,4.177,0,0,1-6.56,0c-5.46,0-7.94,5.431-9.94,9.791a22.215,22.215,0,0,1-2.48,4.58l-0.8.94,0.91,0.84a12.332,12.332,0,0,1,1.5,2.03c2.16,3.29,5.77,8.79,14.03,8.82h0.12c8.26-.03,11.87-5.53,14.03-8.82a12.332,12.332,0,0,1,1.5-2.03l0.91-.84Zm-23.37-9.35a5.451,5.451,0,0,1,4.39-2.46,0.9,0.9,0,0,1,.36.1,4.505,4.505,0,0,1,.63.37,1.132,1.132,0,0,0,.13.1h0c0.09,0.07.18,0.14,0.26,0.21a11.424,11.424,0,0,1,1.95,2.3s1.47-2.4,3.05-3.04a0.651,0.651,0,0,1,.18-0.04,5.451,5.451,0,0,1,4.39,2.46,29.279,29.279,0,0,1,3.21,5.84c0.41,0.89.81,1.76,1.22,2.56-1.77-.33-3.63-0.85-5.36-1.33a28.916,28.916,0,0,0-6.74-1.38,25.7,25.7,0,0,0-6.48,1.39,53.066,53.066,0,0,1-5.68,1.44c0.44-.84.85-1.75,1.28-2.68A29.279,29.279,0,0,1,1763.83,1004.02Zm9.36,8.45a4.977,4.977,0,0,1-1.69.51,5.251,5.251,0,0,1-1.71-.5,8.909,8.909,0,0,1,1.71-.21A9.582,9.582,0,0,1,1773.19,1012.47Zm-1.69,10.96c-6.91,0-9.82-4.42-11.94-7.66-0.14-.21-0.27-0.41-0.4-0.6a47.556,47.556,0,0,0,6.41-1.56v0.01a7.5,7.5,0,0,1,2.3.81,9.271,9.271,0,0,0,3.63,1.11,9.071,9.071,0,0,0,3.65-1.15,7.283,7.283,0,0,1,2.28-.83v-0.03l0.12,0.03a58.694,58.694,0,0,0,6.35,1.52c-0.15.22-.3,0.45-0.46,0.69C1781.32,1019.01,1778.41,1023.43,1771.5,1023.43Z" transform="translate(-1755 -999)"/>
</svg>
