<svg xmlns="http://www.w3.org/2000/svg" viewBox="0 0 581.05 138.67"><title>logo</title><path d="M561.42,322.73a28.33,28.33,0,1,1-28.33-28.37,28.38,28.38,0,0,1,28.33,28.37m-28.33-44.25a44.25,44.25,0,1,0,44.19,44.25,44.27,44.27,0,0,0-44.19-44.25" transform="translate(-130.42 -228.3)" style="fill:#1d1761"/><path d="M683.93,314.56H671V296.28h12.91a9.14,9.14,0,0,1,0,18.28M671,330.45h15.46a9.14,9.14,0,0,1,0,18.28H671V330.45Zm32.33-9.3a25,25,0,0,0-19.42-40.74H655.16v84.22h31.33a25,25,0,0,0,16.87-43.46" transform="translate(-130.42 -228.3)" style="fill:#1d1761"/><path d="M466.26,307.43a11.15,11.15,0,0,1-11.13,11.14H442.49V296.29h12.65a11.15,11.15,0,0,1,11.13,11.14m-11.13-27H426.62v84.22h15.87V334.45h12.65a27,27,0,0,0,0-54" transform="translate(-130.42 -228.3)" style="fill:#1d1761"/><polygon points="457.1 136.31 508.34 136.31 508.34 120.42 472.97 120.42 472.97 102.15 501.93 102.15 501.93 86.26 472.97 86.26 472.97 67.99 508.34 67.99 508.34 52.1 457.1 52.1 457.1 136.31" style="fill:#1d1761"/><polygon points="228.93 136.31 280.17 136.31 280.17 120.42 244.8 120.42 244.8 102.15 273.76 102.15 273.76 86.26 244.8 86.26 244.8 67.99 280.17 67.99 280.17 52.1 228.93 52.1 228.93 136.31" style="fill:#1d1761"/><polygon points="163.32 136.31 179.19 136.31 179.19 67.99 214.56 67.99 214.56 52.1 163.32 52.1 163.32 136.31" style="fill:#1d1761"/><path d="M157.76,364.68l16.91-52.09L130.42,280.4h54.7L202,228.3l16.91,52.1h54.7Zm7.23-73,22.89,16.65-8.74,26.93,59.9-43.58H210.76L202,264.73l-8.74,26.92H165Z" transform="translate(-130.42 -228.3)" style="fill:#ed1944"/><path d="M293.24,260.74" transform="translate(-130.42 -228.3)" style="fill:#201c5e"/><path d="M274.12,279.87" transform="translate(-130.42 -228.3)" style="fill:#66aae0"/><path d="M433,239.73" transform="translate(-130.42 -228.3)" style="fill:#1d1761"/><path d="M452.13,258.86" transform="translate(-130.42 -228.3)" style="fill:#1d1761"/><path d="M445.06,240.67" transform="translate(-130.42 -228.3)" style="fill:#1d1761"/><path d="M425.93,259.79" transform="translate(-130.42 -228.3)" style="fill:#1d1761"/><polygon points="71.61 104.18 115.87 136.38 98.96 84.28 71.61 104.18" style="fill:#1d1761"/><path d="M317.48,254.91c-1.21-1.85-1.89-2.54-3.82-2.54h-1.17v7.89h-5.11v-7.89h-1.21c-1.93,0-2.62.68-3.82,2.54l-3.46,5.35h-5.68l4.83-7.37c0.93-1.41,2.05-2.7,3.06-3a8,8,0,0,1-2.86-2.94l-4.51-6.8h5.67l3.14,4.79c1.21,1.89,1.89,2.54,3.78,2.54h1v-7.33h5.11v7.33h1c1.93,0,2.62-.64,3.82-2.54l3.1-4.79h5.67l-4.47,6.8a8,8,0,0,1-2.9,2.94c1,0.32,2.13,1.61,3.06,3l4.83,7.37h-5.68Z" transform="translate(-130.42 -228.3)" style="fill:#1d1761"/><path d="M343.64,260.26V248.39l-10.3,11.87H330V240.13h5.11V252l10.3-11.87h3.3v20.12h-5.11Z" transform="translate(-130.42 -228.3)" style="fill:#1d1761"/><path d="M357.53,260.26H352.1l9.3-20.12h3.3l9.3,20.12H368.6L363,247.66Z" transform="translate(-130.42 -228.3)" style="fill:#1d1761"/><path d="M395.81,250.2a10.32,10.32,0,1,1-10.34-10.34A10.31,10.31,0,0,1,395.81,250.2Zm-15.54,0a5.19,5.19,0,1,0,10.38,0A5.2,5.2,0,1,0,380.27,250.2Z" transform="translate(-130.42 -228.3)" style="fill:#1d1761"/><path d="M413.87,260.26V248.39l-10.3,11.87h-3.3V240.13h5.11V252l10.3-11.87H419v20.12h-5.11Zm-10.5-28h3.54a2.64,2.64,0,0,0,2.78,2.58,2.68,2.68,0,0,0,2.82-2.58H416A6.32,6.32,0,0,1,403.36,232.29Z" transform="translate(-130.42 -228.3)" style="fill:#1d1761"/><path d="M447.92,254.91c-1.21-1.85-1.89-2.54-3.82-2.54h-1.41v7.89h-5.11V240.13h5.11v7.33h1.25c1.89,0,2.58-.64,3.78-2.54l3.14-4.79h5.67l-4.51,6.8a8,8,0,0,1-2.86,2.94c1,0.32,2.13,1.61,3.06,3l4.83,7.37h-5.68Z" transform="translate(-130.42 -228.3)" style="fill:#1d1761"/><path d="M479,250.2a10.32,10.32,0,1,1-10.34-10.34A10.31,10.31,0,0,1,479,250.2Zm-15.54,0a5.19,5.19,0,1,0,10.38,0A5.2,5.2,0,1,0,463.51,250.2Z" transform="translate(-130.42 -228.3)" style="fill:#1d1761"/><path d="M500,260.26V248.39l-5.64,6.48-5.64-6.48v11.87h-5.11V240.13h3.3l7.45,8.61,7.45-8.61h3.3v20.12H500Z" transform="translate(-130.42 -228.3)" style="fill:#1d1761"/><path d="M524.75,260.26V245.09H516v15.17h-5.11V240.13h19v20.12h-5.11Z" transform="translate(-130.42 -228.3)" style="fill:#1d1761"/><path d="M538.66,260.26h-5.43l9.3-20.12h3.3l9.3,20.12h-5.39l-5.55-12.6Z" transform="translate(-130.42 -228.3)" style="fill:#1d1761"/><path d="M575.28,245.29a9.78,9.78,0,0,1,.32,6.32h-14c0,2.74,2.25,4.23,5,4.23a13.62,13.62,0,0,0,6.08-1.41l2.7,2.94a14.86,14.86,0,0,1-8.77,3.14,9.9,9.9,0,0,1-10.26-10.3c0-5.72,3.86-10.34,10.14-10.34C570.73,239.85,573.75,241.91,575.28,245.29Zm-13.52,3.1H571a3.1,3.1,0,0,0-.48-1.61,4.46,4.46,0,0,0-4.07-2.25A4.42,4.42,0,0,0,561.76,248.39Z" transform="translate(-130.42 -228.3)" style="fill:#1d1761"/><path d="M591.23,254.91c-1.21-1.85-1.89-2.54-3.82-2.54H586v7.89h-5.11V240.13H586v7.33h1.25c1.89,0,2.58-.64,3.78-2.54l3.14-4.79h5.67l-4.51,6.8a8,8,0,0,1-2.86,2.94c1,0.32,2.13,1.61,3.06,3l4.83,7.37h-5.68Z" transform="translate(-130.42 -228.3)" style="fill:#1d1761"/><path d="M619.94,243.6l-3.06,3.3a6.64,6.64,0,0,0-4.87-2.05,5.36,5.36,0,0,0,0,10.71,6.64,6.64,0,0,0,4.87-2.05l3.06,3.3A10.3,10.3,0,1,1,619.94,243.6Z" transform="translate(-130.42 -228.3)" style="fill:#1d1761"/></svg>