<svg xmlns="http://www.w3.org/2000/svg" width="30" height="30" viewBox="0 0 30 30">
  <metadata><?xpacket begin="﻿" id="W5M0MpCehiHzreSzNTczkc9d"?>
<x:xmpmeta xmlns:x="adobe:ns:meta/" x:xmptk="Adobe XMP Core 5.6-c138 79.159824, 2016/09/14-01:09:01        ">
   <rdf:RDF xmlns:rdf="http://www.w3.org/1999/02/22-rdf-syntax-ns#">
      <rdf:Description rdf:about=""/>
   </rdf:RDF>
</x:xmpmeta>
                                                                                                    
                                                                                                    
                                                                                                    
                                                                                                    
                                                                                                    
                                                                                                    
                                                                                                    
                                                                                                    
                                                                                                    
                                                                                                    
                                                                                                    
                                                                                                    
                                                                                                    
                                                                                                    
                                                                                                    
                                                                                                    
                                                                                                    
                                                                                                    
                                                                                                    
                                                                                                    
                           
<?xpacket end="w"?></metadata>
<defs>
    <style>
      .cls-1 {
        fill: #ed1944;
        fill-rule: evenodd;
      }
    </style>
  </defs>
  <path class="cls-1" d="M1773.97,925.656h-8.7a1.178,1.178,0,0,1-1.17-1.174v-5.213h7.44v-8.731h-7.44V905.03h13.59v6.507a10.007,10.007,0,0,1,2.35-.895V905.03h1.76v-3.516a3.522,3.522,0,0,0-3.52-3.515h-14.76a3.522,3.522,0,0,0-3.52,3.515v3.516h1.76v19.452a3.515,3.515,0,0,0,3.51,3.516h10.77a9.861,9.861,0,0,1-2.07-2.342h0Zm-11.63-24.142a1.179,1.179,0,0,1,1.18-1.172h14.76a1.17,1.17,0,0,1,1.17,1.172v1.172h-17.11v-1.172Zm6.86,11.368v4.043h-5.1v-4.043h5.1Zm13.18-.12a7.618,7.618,0,1,0,7.62,7.618,7.621,7.621,0,0,0-7.62-7.618h0Zm0,12.892a5.274,5.274,0,1,1,2.93-9.661l-5.83,5.823,1.66,1.658,5.78-5.78a5.226,5.226,0,0,1,.74,2.686,5.284,5.284,0,0,1-5.28,5.274h0Zm0,0" transform="translate(-1760 -898)"/>
</svg>
