<svg xmlns="http://www.w3.org/2000/svg" viewBox="0 0 105.67 74.8"><title>sofa</title><polygon points="15.33 0 20.84 45.91 84.83 45.91 90.33 0 15.33 0" style="fill:#fff"/><path d="M84.83,45.91l1.89-15.78H97.16V58H8.51V30.13H18.95l1.89,15.78h64ZM24.92,8.51H80.75l-3.47,28.9H28.39ZM15.33,0l2.59,21.62H0V66.53H14.63l-2.07,5,7.87,3.23,3.39-8.27h58l3.39,8.27,7.87-3.23-2.07-5h14.63V21.62H87.74L90.33,0h-75Z" transform="translate(0 0)" style="fill:#201c5e"/><polygon points="87.74 21.62 84.83 45.88 60.57 45.88 57.6 21.62 87.74 21.62" style="fill:#cc1e44"/></svg>