<svg xmlns="http://www.w3.org/2000/svg" viewBox="0 0 532 488.9"><title>panorama</title><path d="M240,134.78v80.5H172v-80.5h68m50-50H122v180.5H290V84.78h0Z" transform="translate(10 -13)" style="fill:#fff"/><path d="M349.44,190.25v25H289.87v-25h59.57m50-50H239.87v125H399.44v-125h0Z" transform="translate(10 -13)" style="fill:#fff"/><path d="M382,347c-37.2-9.2-80.5-14-126-14s-88.8,4.8-126,14V501.9l-32.2-9.7C28.3,471.3-10,437.9-10,398V128c0-35.2,30.9-66.1,87.1-87.1C125.4,22.9,188.9,13,256,13s130.6,9.9,178.9,27.9C491.1,61.9,522,92.8,522,128V398c0,39.9-38.3,73.3-107.8,94.2L382,501.9V347ZM80,309.9V216.4a240.65,240.65,0,0,1-40-18.3V398c0,8.2,12.6,21.8,40,34.3V309.9Zm392,18.4V198a240.65,240.65,0,0,1-40,18.3v216c27.4-12.6,40-26.1,40-34.3V328.3ZM256,283c44.5,0,87.7,4.4,126,12.7V180.6l6-2.6a21.8,21.8,0,0,1,2.4-.8C439.2,163.4,472,143.7,472,128c0-9.9-16.9-26.2-54.5-40.2C374.6,71.8,317.3,63,256,63S137.4,71.8,94.5,87.8C56.9,101.8,40,118.1,40,128c0,9.6,13.1,21.4,36.1,32.4,18.6,8.9,38.4,14.8,46,16.9,0.8,0.2,1.3.4,1.9,0.6l6,2.6V295.6C168.3,287.4,211.5,283,256,283Z" transform="translate(10 -13)" style="fill:#ed1944"/></svg>