<svg width="370px" height="371px" viewBox="0 0 370 371" version="1.1" xmlns="http://www.w3.org/2000/svg">
    <path fill="#ed1944" opacity="1.00" d=" M 70.29 0.00 L 71.03 0.00 C 106.57 35.47 142.08 70.96 177.63 106.42 C 160.73 123.47 143.65 140.34 126.70 157.35 C 146.07 188.32 171.91 215.21 201.98 235.94 C 205.08 238.20 208.45 240.08 211.49 242.42 C 220.59 251.27 229.48 260.34 238.47 269.30 C 231.72 276.03 225.02 282.80 218.22 289.47 C 204.01 281.73 189.89 273.75 176.76 264.26 C 144.64 241.45 116.99 212.36 95.85 179.11 C 90.03 170.04 84.88 160.55 79.67 151.11 C 94.48 136.15 109.53 121.41 124.31 106.42 C 106.54 88.70 88.81 70.95 71.03 53.25 C 64.38 59.87 57.71 66.48 51.11 73.16 C 38.23 86.53 33.93 107.58 41.22 124.76 C 71.63 191.71 119.72 250.95 180.56 292.52 C 200.35 306.17 221.42 317.90 243.30 327.85 C 258.78 335.14 277.86 332.28 291.41 322.17 C 300.27 331.17 309.26 340.02 318.15 348.98 C 300.82 363.58 277.69 371.22 255.07 369.25 C 244.39 368.44 233.99 365.30 224.40 360.60 C 187.25 343.46 152.46 321.15 121.52 294.36 C 74.31 253.48 36.15 202.39 9.48 145.97 C 3.99 135.29 0.93 123.50 0.00 111.56 L 0.00 103.22 C 1.05 80.98 10.81 59.32 26.97 43.98 C 41.60 29.53 55.94 14.76 70.76 0.50 L 70.29 0.00 Z"></path>
    <path fill="#ffffff" id="svg-fill" opacity="1.00" d=" M 212.67 241.81 C 229.48 225.14 246.14 208.32 262.98 191.69 C 298.54 227.12 334.06 262.59 369.55 298.09 C 362.51 305.22 355.37 312.27 348.29 319.36 C 338.19 329.18 328.62 339.55 318.15 348.98 C 309.26 340.02 300.27 331.17 291.41 322.17 C 300.28 314.80 307.99 306.14 316.22 298.07 C 298.51 280.32 280.76 262.60 262.98 244.92 C 254.73 252.96 246.67 261.21 238.47 269.30 C 229.48 260.34 220.59 251.27 211.49 242.42 C 211.79 242.27 212.38 241.96 212.67 241.81 Z"></path>
</svg>