<svg xmlns="http://www.w3.org/2000/svg" width="31" height="31" viewBox="0 0 31 31">
  <metadata><?xpacket begin="﻿" id="W5M0MpCehiHzreSzNTczkc9d"?>
<x:xmpmeta xmlns:x="adobe:ns:meta/" x:xmptk="Adobe XMP Core 5.6-c138 79.159824, 2016/09/14-01:09:01        ">
   <rdf:RDF xmlns:rdf="http://www.w3.org/1999/02/22-rdf-syntax-ns#">
      <rdf:Description rdf:about=""/>
   </rdf:RDF>
</x:xmpmeta>
                                                                                                    
                                                                                                    
                                                                                                    
                                                                                                    
                                                                                                    
                                                                                                    
                                                                                                    
                                                                                                    
                                                                                                    
                                                                                                    
                                                                                                    
                                                                                                    
                                                                                                    
                                                                                                    
                                                                                                    
                                                                                                    
                                                                                                    
                                                                                                    
                                                                                                    
                                                                                                    
                           
<?xpacket end="w"?></metadata>
<defs>
    <style>
      .cls-1 {
        fill: #ed1944;
        fill-rule: evenodd;
      }
    </style>
  </defs>
  <path class="cls-1" d="M1783.85,955.746h-1.36v0H1757v1.21a38.8,38.8,0,0,0,1.77,11.788,30.713,30.713,0,0,0,2.54,5.837h-4.3V977h25.42v-2.422h-4.3a29.549,29.549,0,0,0,1.83-3.8,23.809,23.809,0,0,0,4.8-4.2c1.48-1.686,3.24-4.214,3.24-6.68a4.152,4.152,0,0,0-4.15-4.147h0Zm-19.03,18.83a1.22,1.22,0,0,1-1.04-.575,32.182,32.182,0,0,1-4.34-15.838h20.61a31.892,31.892,0,0,1-4.41,15.853,1.191,1.191,0,0,1-1.02.56h-9.8Zm16.47-7.913a38.608,38.608,0,0,0,1.18-8.5h1.38a1.732,1.732,0,0,1,1.73,1.725c0,1.955-2.04,4.688-4.29,6.77h0Zm-19.34-17.42,2.13-3.245a2.488,2.488,0,0,1,.69,3.416l-2.14,3.245a2.477,2.477,0,0,1-.68-3.416h0Zm6.48,0,2.13-3.245a2.488,2.488,0,0,1,.69,3.416l-2.14,3.245a2.477,2.477,0,0,1-.68-3.416h0Zm6.47,0,2.14-3.245a2.477,2.477,0,0,1,.68,3.416l-2.13,3.245a2.488,2.488,0,0,1-.69-3.416h0Zm0,0" transform="translate(-1757 -946)"/>
</svg>
