<svg xmlns="http://www.w3.org/2000/svg" width="35" height="35" viewBox="0 0 35 35">
  <metadata><?xpacket begin="﻿" id="W5M0MpCehiHzreSzNTczkc9d"?>
<x:xmpmeta xmlns:x="adobe:ns:meta/" x:xmptk="Adobe XMP Core 5.6-c138 79.159824, 2016/09/14-01:09:01        ">
   <rdf:RDF xmlns:rdf="http://www.w3.org/1999/02/22-rdf-syntax-ns#">
      <rdf:Description rdf:about=""/>
   </rdf:RDF>
</x:xmpmeta>
                                                                                                    
                                                                                                    
                                                                                                    
                                                                                                    
                                                                                                    
                                                                                                    
                                                                                                    
                                                                                                    
                                                                                                    
                                                                                                    
                                                                                                    
                                                                                                    
                                                                                                    
                                                                                                    
                                                                                                    
                                                                                                    
                                                                                                    
                                                                                                    
                                                                                                    
                                                                                                    
                           
<?xpacket end="w"?></metadata>
<defs>
    <style>
      .cls-1 {
        fill: #ed1944;
        fill-rule: evenodd;
      }
    </style>
  </defs>
  <path class="cls-1" d="M1782.39,811.1a2.607,2.607,0,0,0-2.6-2.6,2.569,2.569,0,0,0-1.89.821,13.817,13.817,0,0,0-1.96-1.916,5.338,5.338,0,1,1,5.08,8.9,13.866,13.866,0,0,0-.66-2.661,2.611,2.611,0,0,0,2.03-2.539h0Zm-2.6-11.1a11.188,11.188,0,0,0-9.15,4.744,13.73,13.73,0,0,1,2.69.99,8.476,8.476,0,0,1,14.94,5.484v0.3c0,2.4-1.58,5.477-4.56,8.91a44.6,44.6,0,0,1-3.92,3.944c-0.68.708-1.29,1.182-1.92,1.8a15.228,15.228,0,0,0,1.92,1.761l0.86-.693a45.723,45.723,0,0,0,5.09-4.983c3.49-4.008,5.26-7.622,5.26-10.743v-0.3A11.227,11.227,0,0,0,1779.79,800h0Zm-7.25,18.16a5.33,5.33,0,1,1-5.33-5.345,5.343,5.343,0,0,1,5.33,5.345h0Zm-2.73,0a2.6,2.6,0,1,0-2.6,2.6,2.608,2.608,0,0,0,2.6-2.6h0Zm8.61,0.419c0,3.12-1.77,6.735-5.26,10.743a45.553,45.553,0,0,1-5.09,4.982l-0.86.694-0.86-.694a45.553,45.553,0,0,1-5.09-4.982c-3.49-4.008-5.26-7.623-5.26-10.743v-0.3a11.21,11.21,0,1,1,22.42,0v0.3Zm-2.73-.3a8.48,8.48,0,0,0-16.96,0v0.3c0,2.4,1.59,5.5,4.59,8.941a44.755,44.755,0,0,0,3.89,3.914,44.92,44.92,0,0,0,3.92-3.945c2.98-3.433,4.56-6.514,4.56-8.91v-0.3Zm0,0" transform="translate(-1756 -800)"/>
</svg>
