<svg xmlns="http://www.w3.org/2000/svg" width="33" height="33" viewBox="0 0 33 33">
  <metadata><?xpacket begin="﻿" id="W5M0MpCehiHzreSzNTczkc9d"?>
<x:xmpmeta xmlns:x="adobe:ns:meta/" x:xmptk="Adobe XMP Core 5.6-c138 79.159824, 2016/09/14-01:09:01        ">
   <rdf:RDF xmlns:rdf="http://www.w3.org/1999/02/22-rdf-syntax-ns#">
      <rdf:Description rdf:about=""/>
   </rdf:RDF>
</x:xmpmeta>
                                                                                                    
                                                                                                    
                                                                                                    
                                                                                                    
                                                                                                    
                                                                                                    
                                                                                                    
                                                                                                    
                                                                                                    
                                                                                                    
                                                                                                    
                                                                                                    
                                                                                                    
                                                                                                    
                                                                                                    
                                                                                                    
                                                                                                    
                                                                                                    
                                                                                                    
                                                                                                    
                           
<?xpacket end="w"?></metadata>
<defs>
    <style>
      .cls-1 {
        fill: #ed1944;
        fill-rule: evenodd;
      }
    </style>
  </defs>
  <path id="Shape_6_copy" data-name="Shape 6 copy" class="cls-1" d="M1771.5,1055.73a3.865,3.865,0,1,0-3.87-3.86,3.871,3.871,0,0,0,3.87,3.86h0Zm0-5.15a1.285,1.285,0,1,1-1.29,1.29,1.293,1.293,0,0,1,1.29-1.29h0Zm16.5,18.49h-2.64v-5.15h-2.58v5.15h-4.83v-8.25a3.871,3.871,0,0,0-3.87-3.86h-5.16a3.871,3.871,0,0,0-3.87,3.86v8.25h-4.83v-5.15h-2.58v5.15H1755v2.58h2.64v5.16h2.58v-5.16h7.41V1081h2.58v-9.35h2.58V1081h2.58v-9.35h7.41v5.16h2.58v-5.16H1788v-2.58Zm-20.37-8.25a1.285,1.285,0,0,1,1.29-1.28h5.16a1.285,1.285,0,0,1,1.29,1.28v8.25h-7.74v-8.25Zm0,0" transform="translate(-1755 -1048)"/>
</svg>
