<?xml version="1.0" encoding="utf-8"?>
<!-- Generator: Adobe Illustrator 16.0.0, SVG Export Plug-In . SVG Version: 6.00 Build 0)  -->
<!DOCTYPE svg PUBLIC "-//W3C//DTD SVG 1.1//EN" "http://www.w3.org/Graphics/SVG/1.1/DTD/svg11.dtd">
<svg version="1.1" id="Слой_1" xmlns="http://www.w3.org/2000/svg" xmlns:xlink="http://www.w3.org/1999/xlink" x="0px" y="0px"
	 width="73.55px" height="75.72px" viewBox="0 0 73.55 75.72" enable-background="new 0 0 73.55 75.72" xml:space="preserve">
<g>
	<defs>
		<rect id="SVGID_1_" width="73.55" height="75.72"/>
	</defs>
	<clipPath id="SVGID_2_">
		<use xlink:href="#SVGID_1_"  overflow="visible"/>
	</clipPath>
	<path clip-path="url(#SVGID_2_)" fill="#1D1760" d="M69.28,23.125V0H4.27v23.124H0v8.396h3.94v14h14.85
		c0.77-0.02,3.081,0.19,4.34,1.42c0.26,0.25,1.06,1.03,1.06,3.22v8.771c0,0.26-0.01,0.54-0.01,0.83c-0.05,3.3-0.12,8.82,3.62,12.609
		c2.191,2.221,5.2,3.351,9,3.351c3.75,0,6.76-1.13,8.95-3.351c3.741-3.789,3.67-9.31,3.621-12.609c0-0.29-0.011-0.57-0.011-0.83
		V50.16c0-2.189,0.801-2.97,1.06-3.22c1.26-1.22,3.56-1.45,4.31-1.42H69.61v-14h3.939v-8.39L69.28,23.125z M12.77,8.5h48.01v14.63
		H12.77V8.5z M61.1,37.02h-6.12c-1.05-0.03-6.5,0.01-10.409,3.75c-1.699,1.62-3.71,4.561-3.71,9.39v8.771c0,0.29,0,0.61,0.011,0.95
		c0.019,1.97,0.068,5.26-1.17,6.52c-0.54,0.54-1.512,0.82-2.951,0.82c-1.39,0-2.36-0.28-2.9-0.82c-1.24-1.26-1.189-4.55-1.17-6.52
		c0.01-0.34,0.01-0.66,0.01-0.95V50.16c0-4.829-2.02-7.77-3.71-9.39c-3.91-3.74-9.359-3.77-10.41-3.75h-6.119v-5.39H61.1V37.02z"/>
	<rect x="46.164" y="0.003" clip-path="url(#SVGID_2_)" fill="#ED1944" width="23.126" height="23.125"/>
</g>
</svg>
