<?xml version="1.0" encoding="utf-8"?>
<!-- Generator: Adobe Illustrator 16.0.0, SVG Export Plug-In . SVG Version: 6.00 Build 0)  -->
<!DOCTYPE svg PUBLIC "-//W3C//DTD SVG 1.1//EN" "http://www.w3.org/Graphics/SVG/1.1/DTD/svg11.dtd">
<svg version="1.1" id="Layer_1" xmlns="http://www.w3.org/2000/svg" xmlns:xlink="http://www.w3.org/1999/xlink" x="0px" y="0px"
	 width="415.486px" height="323.06px" viewBox="98.473 235.334 415.486 323.06"
	 enable-background="new 98.473 235.334 415.486 323.06" xml:space="preserve">
<g>
	<path fill="#1D1760" d="M461.267,522.114V332.079l-36.279,22.458v168.008H355.02v-29.369h27.21v-58.306h18.14V398.16h-40.166
		l-19.436-63.058H177.51l-19.867,63.058h-40.166v36.279h18.14v58.737h27.209v28.506H98.473v36.711h415.486v-36.711h-52.692V522.114z
		 M204.288,371.382h109.27l8.638,28.073H195.65L204.288,371.382z M318.309,522.114H199.105v-28.938h119.204V522.114z
		 M345.519,456.897H171.896v-21.163h173.623V456.897z"/>
</g>
<circle fill="#ED1844" cx="443.127" cy="303.142" r="67.808"/>
<g>
	<path fill="#1D1760" d="M443.56,258.656c24.618,0,39.734,14.685,39.734,34.12s-14.685,34.12-39.734,34.12h-11.662v20.299h-17.275
		v-88.539H443.56z M444.855,310.484c11.229,0,21.596-5.183,21.596-17.708c0-12.093-10.366-17.708-21.596-17.708h-12.957v35.416
		H444.855z"/>
</g>
</svg>
