<svg xmlns="http://www.w3.org/2000/svg" width="400px" height="155px" viewBox="0 0 400 155"><title>307k_1</title><rect x="322.924" y="67.726" width="18.4" height="1.8" transform="translate(-0.157 0.763) rotate(-0.132)" style="fill:#2f3461"/><rect x="339.492" y="39.707" width="1.8" height="29.8" transform="translate(-0.125 0.782) rotate(-0.132)" style="fill:#2f3461"/><rect x="339.458" y="39.048" width="53.7" height="1.8" transform="matrix(1, -0.002, 0.002, 1, -0.091, 0.841)" style="fill:#2f3461"/><rect x="391.447" y="30.385" width="4.7" height="9.3" transform="translate(-0.079 0.904) rotate(-0.132)" style="fill:#2f3461"/><rect x="391.468" y="38.486" width="3.5" height="11.7" transform="translate(-0.101 0.903) rotate(-0.132)" style="fill:#2f3461"/><rect x="391.401" y="11.585" width="4.7" height="7" transform="translate(-0.034 0.904) rotate(-0.132)" style="fill:#2f3461"/><rect x="387.898" y="11.589" width="8.2" height="4.7" transform="translate(-0.031 0.9) rotate(-0.132)" style="fill:#2f3461"/><rect x="368.598" y="11.634" width="7.6" height="4.7" transform="translate(-0.031 0.855) rotate(-0.132)" style="fill:#2f3461"/><rect x="351.098" y="11.674" width="7.6" height="4.7" transform="matrix(1, -0.002, 0.002, 1, -0.031, 0.815)" style="fill:#2f3461"/><rect x="336.498" y="11.71" width="5.3" height="4.7" transform="translate(-0.031 0.779) rotate(-0.132)" style="fill:#2f3461"/><rect x="324.8" y="12.927" width="14" height="3.5" transform="translate(-0.033 0.762) rotate(-0.132)" style="fill:#2f3461"/><rect x="310.189" y="4.875" width="1.2" height="9.9" transform="translate(-0.022 0.714) rotate(-0.132)" style="fill:#2f3461"/><rect x="299.3" y="12.985" width="14.5" height="3.5" transform="translate(-0.033 0.704) rotate(-0.132)" style="fill:#2f3461"/><rect x="308.624" y="67.773" width="6.4" height="1.8" transform="translate(-0.157 0.716) rotate(-0.132)" style="fill:#2f3461"/><rect x="308.564" y="15.878" width="1.8" height="53.7" transform="matrix(1, -0.002, 0.002, 1, -0.097, 0.711)" style="fill:#2f3461"/><rect x="294.017" y="64.895" width="16.3" height="1.8" transform="translate(-0.15 0.694) rotate(-0.132)" style="fill:#2f3461"/><rect x="294.021" y="64.912" width="1.8" height="4.7" transform="matrix(1, -0.002, 0.002, 1, -0.154, 0.677)" style="fill:#2f3461"/><rect x="288.124" y="67.819" width="7.6" height="1.8" transform="matrix(1, -0.002, 0.002, 1, -0.157, 0.671)" style="fill:#2f3461"/><rect x="294.525" y="68.996" width="14.6" height="0.6" transform="translate(-0.158 0.693) rotate(-0.132)" style="fill:#2f3461"/><rect x="283.9" y="13.032" width="4.2" height="3.5" transform="translate(-0.033 0.657) rotate(-0.132)" style="fill:#2f3461"/><rect x="280.399" y="11.839" width="5.3" height="4.7" transform="translate(-0.032 0.65) rotate(-0.132)" style="fill:#2f3461"/><rect x="260.599" y="11.883" width="6.4" height="4.7" transform="translate(-0.032 0.606) rotate(-0.132)" style="fill:#2f3461"/><rect x="243.099" y="11.924" width="5.8" height="4.7" transform="translate(-0.032 0.565) rotate(-0.132)" style="fill:#2f3461"/><rect x="244.862" y="13.725" width="1.8" height="56" transform="matrix(1, -0.002, 0.002, 1, -0.095, 0.565)" style="fill:#2f3461"/><rect x="223.924" y="67.91" width="56.6" height="1.8" transform="translate(-0.157 0.579) rotate(-0.132)" style="fill:#2f3461"/><rect x="223.199" y="11.967" width="8.2" height="4.7" transform="translate(-0.032 0.522) rotate(-0.132)" style="fill:#2f3461"/><rect x="220.3" y="13.174" width="7.6" height="3.5" transform="translate(-0.034 0.515) rotate(-0.132)" style="fill:#2f3461"/><rect x="186" y="13.235" width="23.1" height="3.5" transform="matrix(1, -0.002, 0.002, 1, -0.034, 0.454)" style="fill:#2f3461"/><rect x="196.89" y="5.735" width="1.2" height="9.3" transform="translate(-0.023 0.454) rotate(-0.132)" style="fill:#2f3461"/><rect x="196.964" y="15.535" width="1.8" height="54.3" transform="matrix(1, -0.002, 0.002, 1, -0.098, 0.455)" style="fill:#2f3461"/><rect x="197.024" y="68.015" width="18.7" height="1.8" transform="matrix(1, -0.002, 0.002, 1, -0.158, 0.474)" style="fill:#2f3461"/><rect x="182.417" y="65.152" width="15.8" height="1.8" transform="translate(-0.151 0.437) rotate(-0.132)" style="fill:#2f3461"/><rect x="181.921" y="65.169" width="1.8" height="4.7" transform="matrix(1, -0.002, 0.002, 1, -0.155, 0.42)" style="fill:#2f3461"/><rect x="178.424" y="68.073" width="5.3" height="1.8" transform="translate(-0.158 0.416) rotate(-0.132)" style="fill:#2f3461"/><rect x="134.624" y="68.139" width="35.6" height="1.8" transform="matrix(1, -0.002, 0.002, 1, -0.158, 0.35)" style="fill:#2f3461"/><rect x="163.099" y="12.104" width="9.3" height="4.7" transform="matrix(1, -0.002, 0.002, 1, -0.033, 0.385)" style="fill:#2f3461"/><rect x="168.3" y="13.295" width="6.5" height="3.5" transform="translate(-0.034 0.394) rotate(-0.132)" style="fill:#2f3461"/><rect x="149.161" y="13.944" width="1.8" height="54.9" transform="matrix(1, -0.002, 0.002, 1, -0.095, 0.345)" style="fill:#2f3461"/><rect x="143.199" y="12.15" width="8.8" height="4.7" transform="matrix(1, -0.002, 0.002, 1, -0.033, 0.339)" style="fill:#2f3461"/><rect x="123.799" y="12.196" width="7.7" height="4.7" transform="translate(-0.033 0.293) rotate(-0.132)" style="fill:#2f3461"/><rect x="103.024" y="68.226" width="23.4" height="1.8" transform="translate(-0.158 0.264) rotate(-0.132)" style="fill:#2f3461"/><rect x="103.021" y="65.35" width="1.8" height="4.7" transform="translate(-0.155 0.239) rotate(-0.132)" style="fill:#2f3461"/><rect x="106.399" y="12.24" width="3.5" height="4.7" transform="translate(-0.033 0.248) rotate(-0.132)" style="fill:#2f3461"/><rect x="102.9" y="13.445" width="6.4" height="3.5" transform="translate(-0.035 0.244) rotate(-0.132)" style="fill:#2f3461"/><rect x="80.318" y="65.377" width="23.9" height="1.8" transform="translate(-0.152 0.212) rotate(-0.132)" style="fill:#2f3461"/><rect x="183.025" y="68.651" width="15.8" height="1.2" transform="translate(-0.159 0.439) rotate(-0.132)" style="fill:#2f3461"/><rect x="80.325" y="68.876" width="24.5" height="1.2" transform="translate(-0.159 0.213) rotate(-0.132)" style="fill:#2f3461"/><rect x="89.621" y="66.082" width="1.2" height="3.5" transform="translate(-0.156 0.207) rotate(-0.132)" style="fill:#2f3461"/><rect x="79.663" y="15.204" width="1.8" height="54.9" transform="translate(-0.098 0.185) rotate(-0.132)" style="fill:#2f3461"/><rect x="69.101" y="13.504" width="22.8" height="3.5" transform="translate(-0.035 0.185) rotate(-0.132)" style="fill:#2f3461"/><rect x="74.127" y="11.017" width="1.2" height="8.8" transform="translate(-0.035 0.172) rotate(-0.132)" style="fill:#2f3461"/><rect x="75.024" y="68.311" width="5.3" height="1.8" transform="translate(-0.159 0.179) rotate(-0.132)" style="fill:#2f3461"/><rect x="75.053" y="78.315" width="1.8" height="6.4" transform="translate(-0.187 0.175) rotate(-0.132)" style="fill:#2f3461"/><rect x="52.101" y="13.562" width="5.9" height="3.5" transform="translate(-0.035 0.126) rotate(-0.132)" style="fill:#2f3461"/><rect x="46.899" y="12.372" width="8.2" height="4.7" transform="translate(-0.034 0.117) rotate(-0.132)" style="fill:#2f3461"/><rect x="38.258" y="82.958" width="38" height="1.8" transform="translate(-0.192 0.132) rotate(-0.132)" style="fill:#2f3461"/><rect x="38.251" y="76.599" width="1.8" height="8.2" transform="translate(-0.185 0.09) rotate(-0.132)" style="fill:#2f3461"/><rect x="26.999" y="12.417" width="8.2" height="4.7" transform="translate(-0.034 0.071) rotate(-0.132)" style="fill:#2f3461"/><rect x="3.099" y="12.47" width="10.5" height="4.7" transform="translate(-0.034 0.019) rotate(-0.132)" style="fill:#2f3461"/><rect x="3.102" y="12.476" width="4.7" height="7" transform="translate(-0.037 0.013) rotate(-0.132)" style="fill:#2f3461"/><rect x="3.152" y="33.476" width="4.7" height="8.8" transform="translate(-0.087 0.013) rotate(-0.132)" style="fill:#2f3461"/><rect x="3.195" y="51.676" width="4.7" height="9.3" transform="translate(-0.129 0.013) rotate(-0.132)" style="fill:#2f3461"/><rect x="3.248" y="73.276" width="4.7" height="12.8" transform="translate(-0.183 0.013) rotate(-0.132)" style="fill:#2f3461"/><rect x="6.143" y="76.637" width="33.3" height="1.8" transform="translate(-0.178 0.053) rotate(-0.132)" style="fill:#2f3461"/><rect x="3.318" y="100.076" width="4.7" height="19.9" transform="translate(-0.253 0.013) rotate(-0.132)" style="fill:#2f3461"/><rect x="3.381" y="133.976" width="4.7" height="7" transform="translate(-0.316 0.014) rotate(-0.132)" style="fill:#2f3461"/><rect x="6.284" y="136.27" width="4.1" height="4.7" transform="translate(-0.318 0.02) rotate(-0.132)" style="fill:#2f3461"/><rect x="24.384" y="136.224" width="7.6" height="4.7" transform="translate(-0.318 0.065) rotate(-0.132)" style="fill:#2f3461"/><rect x="41.884" y="136.182" width="9.9" height="4.7" transform="translate(-0.318 0.108) rotate(-0.132)" style="fill:#2f3461"/><rect x="65.283" y="136.126" width="11.7" height="4.7" transform="translate(-0.318 0.164) rotate(-0.132)" style="fill:#2f3461"/><rect x="73.981" y="136.112" width="6" height="2.9" transform="translate(-0.316 0.177) rotate(-0.132)" style="fill:#2f3461"/><rect x="91.282" y="136.054" width="22.5" height="3.5" transform="matrix(1, -0.002, 0.002, 1, -0.316, 0.236)" style="fill:#2f3461"/><rect x="102.094" y="138.453" width="1.2" height="9.3" transform="translate(-0.328 0.236) rotate(-0.132)" style="fill:#2f3461"/><rect x="100.818" y="82.955" width="1.8" height="53.7" transform="translate(-0.252 0.234) rotate(-0.132)" style="fill:#2f3461"/><rect x="84.963" y="82.992" width="1.8" height="5.8" transform="translate(-0.197 0.197) rotate(-0.132)" style="fill:#2f3461"/><rect x="84.967" y="86.975" width="16.3" height="1.8" transform="translate(-0.202 0.214) rotate(-0.132)" style="fill:#2f3461"/><rect x="86.757" y="82.972" width="15.2" height="0.6" transform="translate(-0.191 0.217) rotate(-0.132)" style="fill:#2f3461"/><rect x="101.958" y="82.835" width="16.9" height="1.8" transform="translate(-0.192 0.254) rotate(-0.132)" style="fill:#2f3461"/><rect x="124.782" y="135.994" width="7.6" height="3.5" transform="translate(-0.316 0.296) rotate(-0.132)" style="fill:#2f3461"/><rect x="127.783" y="135.975" width="17.7" height="4.7" transform="translate(-0.317 0.314) rotate(-0.132)" style="fill:#2f3461"/><rect x="136.42" y="82.874" width="1.8" height="56" transform="translate(-0.254 0.316) rotate(-0.132)" style="fill:#2f3461"/><rect x="127.058" y="82.784" width="11.1" height="1.8" transform="translate(-0.192 0.305) rotate(-0.132)" style="fill:#2f3461"/><rect x="136.975" y="90.349" width="22.2" height="1.8" transform="matrix(1, -0.002, 0.002, 1, -0.209, 0.34)" style="fill:#2f3461"/><rect x="137.557" y="82.849" width="21" height="1.2" transform="translate(-0.191 0.34) rotate(-0.132)" style="fill:#2f3461"/><rect x="143.366" y="83.458" width="1.2" height="7.6" transform="translate(-0.2 0.331) rotate(-0.132)" style="fill:#2f3461"/><rect x="149.266" y="83.445" width="1.2" height="7.6" transform="translate(-0.2 0.344) rotate(-0.132)" style="fill:#2f3461"/><rect x="158.018" y="82.824" width="1.8" height="53.7" transform="matrix(1, -0.002, 0.002, 1, -0.251, 0.365)" style="fill:#2f3461"/><rect x="155.783" y="135.909" width="19.3" height="4.7" transform="translate(-0.317 0.38) rotate(-0.132)" style="fill:#2f3461"/><rect x="143.499" y="139.458" width="1.2" height="11.7" transform="translate(-0.333 0.331) rotate(-0.132)" style="fill:#2f3461"/><rect x="143.511" y="149.908" width="45" height="1.2" transform="matrix(1, -0.002, 0.002, 1, -0.345, 0.382)" style="fill:#2f3461"/><rect x="187.9" y="139.956" width="1.2" height="11.1" transform="matrix(1, -0.002, 0.002, 1, -0.334, 0.433)" style="fill:#2f3461"/><rect x="158.646" y="121.305" width="16.9" height="1.8" transform="matrix(1, -0.002, 0.002, 1, -0.28, 0.384)" style="fill:#2f3461"/><rect x="173.836" y="112.588" width="1.8" height="10.5" transform="matrix(1, -0.002, 0.002, 1, -0.27, 0.402)" style="fill:#2f3461"/><rect x="159.191" y="97.305" width="15.8" height="1.8" transform="translate(-0.225 0.384) rotate(-0.132)" style="fill:#2f3461"/><rect x="173.791" y="94.488" width="1.8" height="7.6" transform="matrix(1, -0.002, 0.002, 1, -0.225, 0.401)" style="fill:#2f3461"/><rect x="173.761" y="82.788" width="1.8" height="4.7" transform="matrix(1, -0.002, 0.002, 1, -0.195, 0.401)" style="fill:#2f3461"/><rect x="158.558" y="82.705" width="16.9" height="1.8" transform="matrix(1, -0.002, 0.002, 1, -0.192, 0.384)" style="fill:#2f3461"/><rect x="174.357" y="82.786" width="2.3" height="1.2" transform="translate(-0.191 0.403) rotate(-0.132)" style="fill:#2f3461"/><rect x="185.583" y="135.844" width="16.9" height="4.7" transform="translate(-0.317 0.446) rotate(-0.132)" style="fill:#2f3461"/><rect x="187.757" y="82.746" width="10.5" height="1.2" transform="translate(-0.191 0.443) rotate(-0.132)" style="fill:#2f3461"/><rect x="196.572" y="82.736" width="1.8" height="14" transform="matrix(1, -0.002, 0.002, 1, -0.206, 0.454)" style="fill:#2f3461"/><rect x="190.686" y="94.942" width="7.6" height="1.8" transform="translate(-0.22 0.447) rotate(-0.132)" style="fill:#2f3461"/><rect x="190.671" y="83.85" width="1.2" height="11.1" transform="translate(-0.205 0.44) rotate(-0.132)" style="fill:#2f3461"/><rect x="190.734" y="96.148" width="2.3" height="40.9" transform="translate(-0.267 0.441) rotate(-0.132)" style="fill:#2f3461"/><rect x="197.658" y="82.62" width="12.8" height="1.8" transform="translate(-0.191 0.469) rotate(-0.132)" style="fill:#2f3461"/><rect x="214.182" y="135.782" width="13.4" height="3.5" transform="translate(-0.315 0.508) rotate(-0.132)" style="fill:#2f3461"/><rect x="214.183" y="135.795" width="1.8" height="4.7" transform="matrix(1, -0.002, 0.002, 1, -0.317, 0.494)" style="fill:#2f3461"/><rect x="218.657" y="82.523" width="56" height="1.8" transform="translate(-0.191 0.567) rotate(-0.132)" style="fill:#2f3461"/><rect x="238.682" y="135.734" width="6.3" height="3.5" transform="translate(-0.315 0.556) rotate(-0.132)" style="fill:#2f3461"/><rect x="240.393" y="138.036" width="1.2" height="8.8" transform="translate(-0.326 0.554) rotate(-0.132)" style="fill:#2f3461"/><rect x="239.219" y="83.838" width="1.8" height="53.1" transform="matrix(1, -0.002, 0.002, 1, -0.253, 0.552)" style="fill:#2f3461"/><rect x="256.182" y="135.687" width="12.3" height="3.5" transform="translate(-0.315 0.603) rotate(-0.132)" style="fill:#2f3461"/><rect x="266.683" y="135.672" width="4.1" height="4.7" transform="translate(-0.316 0.618) rotate(-0.132)" style="fill:#2f3461"/><rect x="282.483" y="135.632" width="7.6" height="4.7" transform="translate(-0.316 0.658) rotate(-0.132)" style="fill:#2f3461"/><rect x="282.957" y="82.429" width="9.3" height="1.8" transform="matrix(1, -0.002, 0.002, 1, -0.191, 0.661)" style="fill:#2f3461"/><rect x="290.56" y="82.52" width="1.8" height="4.1" transform="matrix(1, -0.002, 0.002, 1, -0.193, 0.67)" style="fill:#2f3461"/><rect x="304.083" y="135.583" width="7" height="4.7" transform="translate(-0.316 0.707) rotate(-0.132)" style="fill:#2f3461"/><rect x="309.281" y="135.574" width="4.2" height="3.5" transform="translate(-0.315 0.715) rotate(-0.132)" style="fill:#2f3461"/><rect x="291.663" y="84.798" width="18.7" height="1.8" transform="translate(-0.196 0.692) rotate(-0.132)" style="fill:#2f3461"/><rect x="291.656" y="82.492" width="23.4" height="0.6" transform="matrix(1, -0.002, 0.002, 1, -0.189, 0.697)" style="fill:#2f3461"/><rect x="309.757" y="82.37" width="6.4" height="1.8" transform="translate(-0.19 0.719) rotate(-0.132)" style="fill:#2f3461"/><rect x="309.818" y="82.475" width="1.8" height="54.3" transform="matrix(1, -0.002, 0.002, 1, -0.251, 0.714)" style="fill:#2f3461"/><rect x="324.357" y="82.323" width="18.7" height="1.8" transform="translate(-0.19 0.767) rotate(-0.132)" style="fill:#2f3461"/><rect x="327.829" y="68.334" width="1.8" height="5.3" transform="matrix(1, -0.002, 0.002, 1, -0.162, 0.755)" style="fill:#2f3461"/><rect x="327.857" y="81.834" width="1.8" height="2.3" transform="matrix(1, -0.002, 0.002, 1, -0.19, 0.755)" style="fill:#2f3461"/><rect x="324.581" y="135.53" width="12.2" height="3.5" transform="translate(-0.314 0.76) rotate(-0.132)" style="fill:#2f3461"/><rect x="335.583" y="135.512" width="5.8" height="4.7" transform="translate(-0.316 0.778) rotate(-0.132)" style="fill:#2f3461"/><rect x="341.39" y="82.403" width="1.8" height="29.8" transform="translate(-0.223 0.786) rotate(-0.132)" style="fill:#2f3461"/><rect x="353.083" y="135.47" width="7.6" height="4.7" transform="translate(-0.316 0.82) rotate(-0.132)" style="fill:#2f3461"/><rect x="370.083" y="135.431" width="7" height="4.7" transform="translate(-0.315 0.858) rotate(-0.132)" style="fill:#2f3461"/><rect x="388.683" y="135.388" width="7" height="4.7" transform="translate(-0.315 0.901) rotate(-0.132)" style="fill:#2f3461"/><rect x="391.679" y="132.484" width="4.7" height="7.6" transform="translate(-0.312 0.905) rotate(-0.132)" style="fill:#2f3461"/><rect x="391.625" y="104.484" width="4.7" height="16.3" transform="translate(-0.258 0.905) rotate(-0.132)" style="fill:#2f3461"/><rect x="341.422" y="110.345" width="52.5" height="1.8" transform="translate(-0.255 0.845) rotate(-0.132)" style="fill:#2f3461"/><rect x="391.563" y="80.584" width="4.7" height="9.9" transform="translate(-0.195 0.905) rotate(-0.132)" style="fill:#2f3461"/><rect x="391.52" y="64.084" width="4.7" height="5.3" transform="translate(-0.152 0.905) rotate(-0.132)" style="fill:#2f3461"/><rect x="391.513" y="61.186" width="3.5" height="5.3" transform="translate(-0.146 0.903) rotate(-0.132)" style="fill:#2f3461"/><rect x="395.955" y="70.078" width="1.2" height="1.1" transform="matrix(1, -0.002, 0.002, 1, -0.161, 0.911)" style="fill:#2f3461"/><rect x="395.895" y="44.178" width="1.2" height="1.1" transform="translate(-0.102 0.911) rotate(-0.132)" style="fill:#2f3461"/><rect x="395.915" y="52.878" width="1.2" height="1.1" transform="translate(-0.122 0.911) rotate(-0.132)" style="fill:#2f3461"/><rect x="395.935" y="61.478" width="1.2" height="1.1" transform="translate(-0.141 0.911) rotate(-0.132)" style="fill:#2f3461"/><path d="M389.955,70.594l6.7-.015v0.1l-6.7.015v-0.1m-0.5-.5,0,1.1,7.7-.018,0-1.1Z" style="fill:#2f3461"/><path d="M389.9,44.694l6.7-.015v0.1l-6.7.015v-0.1m-0.5-.5,0,1.1,7.7-.018,0-1.1Z" style="fill:#2f3461"/><path d="M396.4,44.679h0.2l0.06,26h-0.2l-0.06-26m-0.5-.5,0.062,27,1.2,0-0.062-27Z" style="fill:#2f3461"/><rect x="330.482" y="10.212" width="1.1" height="1.2" transform="translate(-0.024 0.76) rotate(-0.132)" style="fill:#2f3461"/><rect x="304.199" y="10.289" width="1.1" height="1.2" transform="translate(-0.024 0.7) rotate(-0.132)" style="fill:#2f3461"/><rect x="312.96" y="10.33" width="1.1" height="1.2" transform="translate(-0.024 0.72) rotate(-0.132)" style="fill:#2f3461"/><rect x="321.721" y="10.271" width="1.1" height="1.2" transform="translate(-0.024 0.74) rotate(-0.132)" style="fill:#2f3461"/><path d="M330.917,10.729h0.1l0.015,6.7h-0.1l-0.015-6.7m-0.5-.5,0.018,7.7,1.1,0-0.018-7.7Z" style="fill:#2f3461"/><path d="M304.617,10.789h0.1l0.015,6.7h-0.1l-0.015-6.7m-0.5-.5,0.018,7.7,1.1,0-0.018-7.7Z" style="fill:#2f3461"/><path d="M304.617,10.789l26.4-.061v0.2l-26.4.061v-0.2m-0.5-.5,0,1.2,27.4-.063,0-1.2Z" style="fill:#2f3461"/><rect x="304.209" y="10.299" width="1.1" height="1.2" transform="translate(-0.024 0.7) rotate(-0.132)" style="fill:#2f3461"/><rect x="277.925" y="10.375" width="1.1" height="1.2" transform="translate(-0.024 0.64) rotate(-0.132)" style="fill:#2f3461"/><rect x="286.686" y="10.316" width="1.1" height="1.2" transform="translate(-0.024 0.66) rotate(-0.132)" style="fill:#2f3461"/><rect x="295.448" y="10.358" width="1.1" height="1.2" transform="translate(-0.024 0.68) rotate(-0.132)" style="fill:#2f3461"/><path d="M304.617,10.789h0.1l0.015,6.7h-0.1l-0.015-6.7m-0.5-.5,0.018,7.7,1.1,0-0.018-7.7Z" style="fill:#2f3461"/><path d="M278.317,10.85h0.1l0.015,6.7h-0.1l-0.015-6.7m-0.5-.5,0.018,7.7,1.1,0-0.018-7.7Z" style="fill:#2f3461"/><path d="M278.317,10.85l26.4-.061v0.2l-26.4.061v-0.2m-0.5-.5,0,1.2,27.4-.063,0-1.2Z" style="fill:#2f3461"/><rect x="217.216" y="10.505" width="1.1" height="1.2" transform="translate(-0.025 0.5) rotate(-0.132)" style="fill:#2f3461"/><rect x="190.932" y="10.581" width="1.1" height="1.2" transform="translate(-0.025 0.44) rotate(-0.132)" style="fill:#2f3461"/><rect x="199.693" y="10.522" width="1.1" height="1.2" transform="translate(-0.025 0.46) rotate(-0.132)" style="fill:#2f3461"/><rect x="208.454" y="10.564" width="1.1" height="1.2" transform="translate(-0.025 0.48) rotate(-0.132)" style="fill:#2f3461"/><path d="M217.617,10.989h0.1l0.015,6.7h-0.1l-0.015-6.7m-0.5-.5,0.018,7.7,1.1,0-0.018-7.7Z" style="fill:#2f3461"/><path d="M191.317,11.05h0.1l0.015,6.7h-0.1l-0.015-6.7m-0.5-.5,0.018,7.7,1.1,0-0.018-7.7Z" style="fill:#2f3461"/><path d="M191.317,11.05l26.4-.061v0.2l-26.4.061v-0.2m-0.5-.5,0,1.2,27.4-.063,0-1.2Z" style="fill:#2f3461"/><rect x="190.942" y="10.591" width="1.1" height="1.2" transform="translate(-0.025 0.44) rotate(-0.132)" style="fill:#2f3461"/><rect x="164.659" y="10.669" width="1.1" height="1.2" transform="translate(-0.025 0.379) rotate(-0.132)" style="fill:#2f3461"/><rect x="173.42" y="10.609" width="1.1" height="1.2" transform="translate(-0.025 0.4) rotate(-0.132)" style="fill:#2f3461"/><rect x="182.181" y="10.55" width="1.1" height="1.2" transform="translate(-0.025 0.42) rotate(-0.132)" style="fill:#2f3461"/><path d="M191.417,11.049h0.1l0.015,6.7h-0.1l-0.015-6.7m-0.5-.5,0.018,7.7,1.1,0-0.018-7.7Z" style="fill:#2f3461"/><path d="M165.117,11.11h0.1l0.015,6.7h-0.1l-0.015-6.7m-0.5-.5,0.018,7.7,1.1,0-0.018-7.7Z" style="fill:#2f3461"/><path d="M165.117,11.11l26.4-.061v0.2l-26.4.061v-0.2m-0.5-.5,0,1.2,27.4-.063,0-1.2Z" style="fill:#2f3461"/><rect x="100.445" y="10.802" width="1.1" height="1.2" transform="translate(-0.026 0.232) rotate(-0.132)" style="fill:#2f3461"/><rect x="74.161" y="10.878" width="1.1" height="1.2" transform="translate(-0.026 0.172) rotate(-0.132)" style="fill:#2f3461"/><rect x="82.922" y="10.82" width="1.1" height="1.2" transform="translate(-0.026 0.192) rotate(-0.132)" style="fill:#2f3461"/><rect x="91.684" y="10.761" width="1.1" height="1.2" transform="translate(-0.026 0.212) rotate(-0.132)" style="fill:#2f3461"/><path d="M100.918,11.257h0.1l0.015,6.7h-0.1l-0.015-6.7m-0.5-.5,0.018,7.7,1.1,0-0.018-7.7Z" style="fill:#2f3461"/><path d="M74.618,11.318h0.1l0.015,6.7h-0.1l-0.015-6.7m-0.5-.5,0.018,7.7,1.1,0-0.018-7.7Z" style="fill:#2f3461"/><path d="M74.618,11.318l26.4-.061v0.2l-26.4.061v-0.2m-0.5-.5,0,1.2,27.4-.063,0-1.2Z" style="fill:#2f3461"/><rect x="74.172" y="10.789" width="1.1" height="1.2" transform="translate(-0.026 0.172) rotate(-0.132)" style="fill:#2f3461"/><rect x="47.888" y="10.866" width="1.1" height="1.2" transform="translate(-0.026 0.111) rotate(-0.132)" style="fill:#2f3461"/><rect x="56.649" y="10.907" width="1.1" height="1.2" transform="translate(-0.026 0.131) rotate(-0.132)" style="fill:#2f3461"/><rect x="65.41" y="10.847" width="1.1" height="1.2" transform="translate(-0.026 0.152) rotate(-0.132)" style="fill:#2f3461"/><path d="M74.618,11.318h0.1l0.015,6.7h-0.1l-0.015-6.7m-0.5-.5,0.018,7.7,1.1,0-0.018-7.7Z" style="fill:#2f3461"/><path d="M48.318,11.378h0.1l0.015,6.7h-0.1l-0.015-6.7m-0.5-.5,0.018,7.7,1.1,0-0.018-7.7Z" style="fill:#2f3461"/><path d="M48.318,11.378l26.4-.061v0.2l-26.4.061v-0.2m-0.5-.5,0,1.2,27.4-.063,0-1.2Z" style="fill:#2f3461"/><rect x="128.425" y="146.348" width="1.1" height="1.2" transform="translate(-0.337 0.297) rotate(-0.132)" style="fill:#2f3461"/><rect x="102.141" y="146.424" width="1.1" height="1.2" transform="translate(-0.337 0.236) rotate(-0.132)" style="fill:#2f3461"/><rect x="110.903" y="146.366" width="1.1" height="1.2" transform="translate(-0.337 0.256) rotate(-0.132)" style="fill:#2f3461"/><rect x="119.664" y="146.307" width="1.1" height="1.2" transform="translate(-0.337 0.276) rotate(-0.132)" style="fill:#2f3461"/><path d="M128.888,140.393h0.1l0.015,6.6h-0.1l-0.015-6.6m-0.5-.5,0.017,7.6,1.1,0-0.018-7.7-1.1,0v0.1h0Z" style="fill:#2f3461"/><path d="M102.588,140.454h0.1l0.015,6.6h-0.1l-0.015-6.6m-0.5-.5,0.017,7.6,1.1,0-0.018-7.7-1.1,0v0.1h0Z" style="fill:#2f3461"/><path d="M102.6,146.854l26.4-.061v0.2l-26.4.061v-0.2m-0.5-.5,0,1.2,27.4-.063,0-1.2Z" style="fill:#2f3461"/><rect x="102.152" y="146.335" width="1.1" height="1.2" transform="translate(-0.337 0.236) rotate(-0.132)" style="fill:#2f3461"/><rect x="75.868" y="146.412" width="1.1" height="1.2" transform="translate(-0.337 0.176) rotate(-0.132)" style="fill:#2f3461"/><rect x="84.629" y="146.453" width="1.1" height="1.2" transform="translate(-0.337 0.196) rotate(-0.132)" style="fill:#2f3461"/><rect x="93.39" y="146.394" width="1.1" height="1.2" transform="translate(-0.337 0.216) rotate(-0.132)" style="fill:#2f3461"/><path d="M102.588,140.454h0.1l0.015,6.6h-0.1l-0.015-6.6m-0.5-.5,0.017,7.6,1.1,0-0.018-7.7-1.1,0v0.1h0Z" style="fill:#2f3461"/><path d="M76.288,140.514h0.1l0.015,6.6H76.3l-0.015-6.6m-0.5-.5,0.017,7.6,1.1,0-0.018-7.7-1.1,0v0.1h0Z" style="fill:#2f3461"/><path d="M76.3,146.914l26.4-.061v0.2l-26.4.061v-0.2m-0.5-.5,0,1.2,27.4-.063,0-1.2Z" style="fill:#2f3461"/><rect x="266.798" y="146.003" width="1.1" height="1.2" transform="translate(-0.336 0.614) rotate(-0.132)" style="fill:#2f3461"/><rect x="240.515" y="146.081" width="1.1" height="1.2" transform="translate(-0.336 0.554) rotate(-0.132)" style="fill:#2f3461"/><rect x="249.276" y="146.021" width="1.1" height="1.2" transform="translate(-0.336 0.574) rotate(-0.132)" style="fill:#2f3461"/><rect x="258.037" y="146.062" width="1.1" height="1.2" transform="translate(-0.336 0.594) rotate(-0.132)" style="fill:#2f3461"/><path d="M267.188,140.076h0.1l0.015,6.6h-0.1l-0.015-6.6m-0.5-.5,0.017,7.6,1.1,0-0.018-7.7-1.1,0v0.1h0Z" style="fill:#2f3461"/><path d="M240.888,140.136h0.1l0.015,6.6h-0.1l-0.015-6.6m-0.5-.5,0.017,7.6,1.1,0-0.018-7.7-1.1,0v0.1h0Z" style="fill:#2f3461"/><path d="M241,146.536l26.4-.061v0.2l-26.4.061v-0.2m-0.5-.5,0,1.2,27.4-.063,0-1.2Z" style="fill:#2f3461"/><rect x="240.525" y="146.091" width="1.1" height="1.2" transform="translate(-0.336 0.554) rotate(-0.132)" style="fill:#2f3461"/><rect x="214.241" y="146.167" width="1.1" height="1.2" transform="translate(-0.336 0.494) rotate(-0.132)" style="fill:#2f3461"/><rect x="223.003" y="146.108" width="1.1" height="1.2" transform="translate(-0.336 0.514) rotate(-0.132)" style="fill:#2f3461"/><rect x="231.764" y="146.05" width="1.1" height="1.2" transform="translate(-0.336 0.534) rotate(-0.132)" style="fill:#2f3461"/><path d="M240.988,140.136h0.1l0.015,6.6H241l-0.015-6.6m-0.5-.5,0.017,7.6,1.1,0-0.018-7.7-1.1,0v0.1h0Z" style="fill:#2f3461"/><path d="M214.688,140.2h0.1l0.015,6.6h-0.1l-0.015-6.6m-0.5-.5,0.017,7.6,1.1,0-0.018-7.7-1.1,0v0.1h0Z" style="fill:#2f3461"/><path d="M214.7,146.6l26.4-.061v0.2l-26.4.061v-0.2m-0.5-.5,0,1.2,27.4-.063,0-1.2Z" style="fill:#2f3461"/><rect x="335.692" y="145.84" width="1.1" height="1.2" transform="translate(-0.335 0.773) rotate(-0.132)" style="fill:#2f3461"/><rect x="309.409" y="145.916" width="1.1" height="1.2" transform="translate(-0.336 0.712) rotate(-0.132)" style="fill:#2f3461"/><rect x="318.17" y="145.858" width="1.1" height="1.2" transform="translate(-0.336 0.732) rotate(-0.132)" style="fill:#2f3461"/><rect x="326.932" y="145.899" width="1.1" height="1.2" transform="translate(-0.336 0.752) rotate(-0.132)" style="fill:#2f3461"/><path d="M336.087,139.917h0.1l0.015,6.6h-0.1l-0.015-6.6m-0.5-.5,0.017,7.6,1.1,0-0.018-7.7-1.1,0v0.1h0Z" style="fill:#2f3461"/><path d="M309.788,139.978h0.1l0.015,6.6h-0.1l-0.015-6.6m-0.5-.5,0.017,7.6,1.1,0-0.018-7.7-1.1,0v0.1h0Z" style="fill:#2f3461"/><path d="M309.8,146.378l26.4-.061v0.2l-26.4.061v-0.2m-0.5-.5,0,1.2,27.4-.063,0-1.2Z" style="fill:#2f3461"/><path d="M388.176,36.2l0.7,0-0.027-11.8-0.7,0,0.027,11.8h0Zm0.1-.7-0.011-4.8h0.5l0.011,4.8h-0.5Zm-0.013-5.6-0.011-4.8h0.5l0.011,4.8h-0.5Z" style="fill:#2f3461"/><path d="M381.937,19.212l0-.7-11.9.027,0,0.7Zm-0.8-.1-4.8.011v-0.5l4.8-.011v0.5Zm-5.5.013-4.8.011v-0.5l4.8-.011v0.5Z" style="fill:#2f3461"/><path d="M362.537,19.256l0-.7-9.9.023,0,0.7Zm-0.7-.1-4,.009v-0.5l4-.009v0.5Zm-4.6.011-4,.009v-0.5l4-.009v0.5Z" style="fill:#2f3461"/><path d="M345.137,19.3l0-.7-9.6.022,0,0.7Zm-0.6-.1-3.9.009v-0.5l3.9-.009v0.5Zm-4.5.01-3.9.009v-0.5l3.9-.009v0.5Z" style="fill:#2f3461"/><path d="M274.337,19.459l0-.7-13.4.031,0,0.7Zm-0.8-.1-5.5.013v-0.5l5.5-.013v0.5Zm-6.3.014-5.5.013v-0.5l5.5-.013v0.5Z" style="fill:#2f3461"/><path d="M254.637,19.5l0-.7-11.8.027,0,0.7Zm-0.7-.1-4.9.011v-0.5l4.8-.011v0.5h0.1Zm-5.6.013-4.8.011v-0.5l4.8-.011v0.5Z" style="fill:#2f3461"/><path d="M237.137,19.544l0-.7-11.9.027,0,0.7Zm-0.7-.1-4.8.011v-0.5l4.8-.011v0.5Zm-5.6.013-4.8.011v-0.5l4.8-.011v0.5Z" style="fill:#2f3461"/><path d="M157.037,19.728l0-.7-11.2.026,0,0.7Zm-0.7-.1-4.6.011v-0.5l4.6-.011v0.5Zm-5.3.012-4.6.011v-0.5l4.6-.011v0.5Z" style="fill:#2f3461"/><path d="M137.237,19.774l0-.7-11.8.027,0,0.7Zm-0.7-.1-4.8.011v-0.5l4.8-.011v0.5Zm-5.5.013-4.8.011V19.2l4.8-.011v0.5Z" style="fill:#2f3461"/><path d="M117.837,19.818l0-.7-14,.032,0,0.7Zm-0.8-.1-5.7.013v-0.5l5.7-.013v0.5Zm-6.6.015-5.7.013v-0.5l5.7-.013v0.5Z" style="fill:#2f3461"/><path d="M46.9,14.281l0-.7-11.7.027,0,0.7Zm-0.7-.1-4.8.011v-0.5l4.8-.011v0.5Zm-5.5.013-4.8.011v-0.5l4.8-.011v0.5Z" style="fill:#2f3461"/><path d="M27.1,14.327l0-.7-13.5.031,0,0.7Zm-0.8-.1-5.5.013v-0.5l5.5-.013v0.5h0Zm-6.4.015-5.5.013v-0.5l5.5-.013v0.5Z" style="fill:#2f3461"/><path d="M4.343,33.679l0.7,0L5.01,19.477l-0.7,0,0.033,14.2h0Zm0.1-.9-0.013-5.8h0.5l0.013,5.8h-0.5Zm-0.015-6.7-0.013-5.8h0.5l0.013,5.8h-0.5Z" style="fill:#2f3461"/><path d="M4.384,51.679l0.7,0-0.022-9.5-0.7,0Zm0.1-.6-0.009-3.9h0.5l0.009,3.9h-0.5Zm-0.01-4.4-0.009-3.9h0.5l0.009,3.9h-0.5Z" style="fill:#2f3461"/><path d="M4.434,73.279l0.7,0L5.1,60.777l-0.7,0Zm0.1-.8-0.012-5.1h0.5l0.012,5.1h-0.5Zm-0.013-5.8-0.012-5.1h0.5l0.012,5.1h-0.5Z" style="fill:#2f3461"/><path d="M4.5,100.179l0.7,0-0.033-14.2-0.7,0Zm0.1-.9-0.013-5.8h0.5l0.013,5.8h-0.5Zm-0.015-6.6-0.013-5.8h0.5l0.013,5.8h-0.5Z" style="fill:#2f3461"/><path d="M4.573,134.079l0.7,0-0.033-14.3-0.7,0Zm0.1-.9-0.013-5.8h0.5l0.013,5.8h-0.5Zm-0.015-6.7-0.013-5.8h0.5l0.013,5.8h-0.5Z" style="fill:#2f3461"/><path d="M24.586,139.733l0-.7-14.3.033,0,0.7,14.3-.033h0Zm-0.9-.2-5.8.013v-0.5l5.8-.013v0.5h0Zm-6.7.015-5.8.013v-0.5l5.8-.013v0.5Z" style="fill:#2f3461"/><path d="M42.086,139.693l0-.7-10.3.024,0,0.7Zm-0.7-.2-4.2.01V139l4.2-.01v0.5Zm-4.8.011-4.2.01v-0.5l4.2-.01v0.5Z" style="fill:#2f3461"/><path d="M65.386,139.639l0-.7-13.8.032,0,0.7Zm-0.8-.2-5.6.013v-0.5l5.6-.013v0.5Zm-6.5.015-5.6.013v-0.5l5.6-.013v0.5Z" style="fill:#2f3461"/><path d="M214.286,139.3l0-.7-11.9.027,0,0.7Zm-0.7-.2-4.9.011v-0.5l4.9-.011v0.5Zm-5.6.013-4.9.011v-0.5l4.9-.011v0.5Z" style="fill:#2f3461"/><path d="M282.586,139.14l0-.7-11.9.027,0,0.7Zm-0.8-.2-4.8.011v-0.5l4.8-.011v0.5Zm-5.5.013-4.8.011v-0.5l4.8-.011v0.5Z" style="fill:#2f3461"/><path d="M304.185,139.091l0-.7-14.3.033,0,0.7Zm-0.8-.2-5.8.013v-0.5l5.8-.013v0.5Zm-6.7.015-5.8.013v-0.5l5.8-.013v0.5Z" style="fill:#2f3461"/><path d="M353.285,138.978l0-.7-11.9.027,0,0.7Zm-0.8-.2-4.9.011v-0.5l4.9-.011v0.5Zm-5.6.013-4.9.011v-0.5l4.9-.011v0.5Z" style="fill:#2f3461"/><path d="M370.185,138.939l0-.7-9.7.022,0,0.7Zm-0.6-.2-3.9.009v-0.5l3.9-.009v0.5Zm-4.5.01-3.9.009v-0.5l3.9-.009v0.5Z" style="fill:#2f3461"/><path d="M388.885,138.9l0-.7-12.1.028,0,0.7Zm-0.7-.2-4.9.011v-0.5l4.9-.011v0.5Zm-5.7.013-4.9.011v-0.5l4.9-.011v0.5Z" style="fill:#2f3461"/><path d="M388.31,138.3l0.7,0-0.028-12-0.7,0Zm0.2-.7-0.011-4.9H389l0.011,4.9h-0.5Zm-0.013-5.7-0.011-4.9h0.5L389,131.9h-0.5Z" style="fill:#2f3461"/><path d="M388.246,110.3l0.7,0-0.033-14.2-0.7,0Zm0.2-.9-0.013-5.8h0.5l0.013,5.8h-0.5Zm-0.015-6.7-0.013-5.8h0.5l0.013,5.8h-0.5Z" style="fill:#2f3461"/><path d="M388.191,86.4l0.7,0L388.865,75l-0.7,0Zm0.2-.7L388.379,81h0.5l0.011,4.7h-0.5Zm-0.012-5.4-0.011-4.7h0.5l0.011,4.7h-0.5Z" style="fill:#2f3461"/><path d="M393.2,56.486a3.864,3.864,0,0,0-2.7,1.106h0l2.806,2.694,0,0.9,0.7,0-0.025-11.1-0.8,0,0.015,6.4h0Zm0.6,0.2,0.008,3.7h-0.4l-0.008-3.7h0.4Zm-0.4-.8-0.011-5h0.5l0.011,5h-0.5Zm-2.7,1.806a4.093,4.093,0,0,1,2.6-1.106l0.008,3.6Z" style="fill:#2f3461"/><path d="M320.2,14.353a3.864,3.864,0,0,0,1.106,2.7h0L324,14.245l0.9,0,0-.7-11.2.026,0,0.7,6.5-.015v0.1h0Zm0.2-.6,3.7-.008v0.4l-3.7.008v-0.4Zm-0.8.5-5.1.012v-0.5l5.1-.012v0.5Zm1.806,2.7a4.093,4.093,0,0,1-1.106-2.6l3.6-.008Z" style="fill:#2f3461"/><path d="M292.8,14.416a3.864,3.864,0,0,1-1.094,2.7h0L289,14.325l-0.9,0,0-.7,11.2-.026,0,0.7-6.5.015v0.1h0Zm-0.1-.6-3.7.008v0.4l3.7-.008v-0.4Zm0.8,0.5,5.1-.012V13.8l-5.1.012v0.5Zm-1.894,2.7a4.093,4.093,0,0,0,1.094-2.6l-3.6.008Z" style="fill:#2f3461"/><path d="M215.6,14.594a3.864,3.864,0,0,0,1.106,2.7h0l2.694-2.806,0.9,0,0-.7-11.2.026,0,0.7,6.5-.015v0.1h0Zm0.1-.6,3.7-.008v0.4l-3.7.008v-0.4Zm-0.8.5-5.1.012v-0.5L214.9,14v0.5Zm1.906,2.7a4.093,4.093,0,0,1-1.106-2.6l3.6-.008Z" style="fill:#2f3461"/><path d="M179.5,14.677a3.864,3.864,0,0,1-1.094,2.7h0L175.7,14.585l-0.9,0,0-.7,11.2-.026,0,0.7-6.5.015v0.1h0Zm-0.1-.6-3.7.008v0.4l3.7-.008v-0.4Zm0.8,0.5,5.1-.012v-0.5l-5.1.012v0.5Zm-1.794,2.7a4.093,4.093,0,0,0,1.094-2.6l-3.6.008Z" style="fill:#2f3461"/><path d="M98.3,14.863a3.864,3.864,0,0,0,1.106,2.7h0l2.694-2.806,0.9,0,0-.7-11.2.026,0,0.7,6.5-.015v0.1h0Zm0.1-.6,3.7-.008v0.4l-3.7.008v-0.4Zm-0.8.5-5.1.012v-0.5l5.1-.012v0.5Zm1.906,2.7a4.093,4.093,0,0,1-1.106-2.6l3.6-.008Z" style="fill:#2f3461"/><path d="M62.8,14.945a3.864,3.864,0,0,1-1.094,2.7h0L59,14.853l-0.9,0,0-.7,11.2-.026,0,0.7-6.5.015v0.1h0Zm-0.1-.6-3.7.008v0.4l3.7-.008v-0.4Zm0.8,0.5,5.1-.012v-0.5l-5.1.012v0.5Zm-1.894,2.7a4.093,4.093,0,0,0,1.094-2.6l-3.6.008Z" style="fill:#2f3461"/><path d="M84.782,137.794a3.864,3.864,0,0,0-1.106-2.7h0L80.982,137.9l-0.9,0,0,0.7,11.2-.026,0-.7-6.5.015v-0.1Zm-0.1.5-3.7.008v-0.4l3.7-.008v0.4Zm0.8-.4,5.1-.012v0.5l-5.1.012v-0.5Zm-1.906-2.7a4.093,4.093,0,0,1,1.106,2.6l-3.6.008Z" style="fill:#2f3461"/><path d="M120.082,137.713a3.864,3.864,0,0,1,1.094-2.7h0l2.706,2.794,0.9,0,0,0.7-11.2.026,0-.7,6.5-.015v-0.1Zm0.2,0.5,3.7-.008v-0.4l-3.7.008v0.4Zm-0.8-.4-5.1.012v0.5l5.1-.012v-0.5Zm1.794-2.7a4.093,4.093,0,0,0-1.094,2.6l3.6-.008Z" style="fill:#2f3461"/><path d="M233.982,137.452a3.864,3.864,0,0,1,1.094-2.7h0l2.706,2.794,0.9,0,0,0.7-11.2.026,0-.7,6.5-.015v-0.1Zm0.1,0.5,3.7-.008v-0.4l-3.7.008v0.4Zm-0.8-.4-5.1.012v0.5l5.1-.012v-0.5Zm1.894-2.7a4.093,4.093,0,0,0-1.094,2.6l3.6-.008Z" style="fill:#2f3461"/><path d="M249.782,137.416a3.864,3.864,0,0,0-1.106-2.7h0l-2.694,2.806-0.9,0,0,0.7,11.2-.026,0-.7-6.5.015v-0.1Zm-0.2.5-3.7.008v-0.4l3.7-.008v0.4Zm0.8-.4,5.1-.012V138l-5.1.012v-0.5Zm-1.806-2.7a4.093,4.093,0,0,1,1.106,2.6l-3.6.008Z" style="fill:#2f3461"/><path d="M318.181,137.258a3.864,3.864,0,0,0-1.106-2.7h0l-2.694,2.806-0.9,0,0,0.7,11.2-.026,0-.7-6.5.015v-0.1Zm-0.1.6-3.7.008v-0.4l3.7-.008v0.4Zm0.8-.5,5.1-.012v0.5l-5.1.012v-0.5Zm-1.906-2.7a4.093,4.093,0,0,1,1.106,2.6l-3.6.008Z" style="fill:#2f3461"/><rect x="138.226" y="102.161" width="9.2" height="22.3" transform="translate(-0.26 0.328) rotate(-0.132)" style="fill:#fff;stroke:#2f3461;stroke-linecap:round;stroke-linejoin:round;stroke-width:0.25px"/><line x1="138.246" y1="121.972" x2="147.346" y2="121.951" style="fill:none;stroke:#2f3461;stroke-linecap:round;stroke-linejoin:round;stroke-width:0.25px"/><line x1="138.24" y1="119.472" x2="147.34" y2="119.451" style="fill:none;stroke:#2f3461;stroke-linecap:round;stroke-linejoin:round;stroke-width:0.25px"/><line x1="138.234" y1="116.972" x2="147.334" y2="116.951" style="fill:none;stroke:#2f3461;stroke-linecap:round;stroke-linejoin:round;stroke-width:0.25px"/><line x1="138.229" y1="114.472" x2="147.328" y2="114.451" style="fill:none;stroke:#2f3461;stroke-linecap:round;stroke-linejoin:round;stroke-width:0.25px"/><line x1="138.223" y1="111.972" x2="147.323" y2="111.951" style="fill:none;stroke:#2f3461;stroke-linecap:round;stroke-linejoin:round;stroke-width:0.25px"/><line x1="138.217" y1="109.572" x2="147.317" y2="109.551" style="fill:none;stroke:#2f3461;stroke-linecap:round;stroke-linejoin:round;stroke-width:0.25px"/><line x1="138.212" y1="107.072" x2="147.311" y2="107.051" style="fill:none;stroke:#2f3461;stroke-linecap:round;stroke-linejoin:round;stroke-width:0.25px"/><line x1="138.206" y1="104.572" x2="147.306" y2="104.551" style="fill:none;stroke:#2f3461;stroke-linecap:round;stroke-linejoin:round;stroke-width:0.25px"/><line x1="143.051" y1="124.461" x2="143" y2="102.261" style="fill:none;stroke:#2f3461;stroke-linecap:round;stroke-linejoin:round;stroke-width:0.25px"/><polyline points="140.605 104.366 143 102.261 145.006 104.456" style="fill:none;stroke:#2f3461;stroke-linecap:round;stroke-linejoin:round;stroke-width:0.25px"/><rect x="148.826" y="102.137" width="9.2" height="22.3" transform="translate(-0.26 0.353) rotate(-0.132)" style="fill:#fff;stroke:#2f3461;stroke-linecap:round;stroke-linejoin:round;stroke-width:0.25px"/><line x1="148.806" y1="104.647" x2="158.006" y2="104.626" style="fill:none;stroke:#2f3461;stroke-linecap:round;stroke-linejoin:round;stroke-width:0.25px"/><line x1="148.811" y1="107.047" x2="158.011" y2="107.026" style="fill:none;stroke:#2f3461;stroke-linecap:round;stroke-linejoin:round;stroke-width:0.25px"/><line x1="148.817" y1="109.547" x2="158.017" y2="109.526" style="fill:none;stroke:#2f3461;stroke-linecap:round;stroke-linejoin:round;stroke-width:0.25px"/><line x1="148.823" y1="112.047" x2="158.023" y2="112.026" style="fill:none;stroke:#2f3461;stroke-linecap:round;stroke-linejoin:round;stroke-width:0.25px"/><line x1="148.829" y1="114.547" x2="158.029" y2="114.526" style="fill:none;stroke:#2f3461;stroke-linecap:round;stroke-linejoin:round;stroke-width:0.25px"/><line x1="148.834" y1="116.947" x2="158.034" y2="116.926" style="fill:none;stroke:#2f3461;stroke-linecap:round;stroke-linejoin:round;stroke-width:0.25px"/><line x1="148.84" y1="119.547" x2="158.04" y2="119.526" style="fill:none;stroke:#2f3461;stroke-linecap:round;stroke-linejoin:round;stroke-width:0.25px"/><line x1="148.846" y1="121.947" x2="158.046" y2="121.926" style="fill:none;stroke:#2f3461;stroke-linecap:round;stroke-linejoin:round;stroke-width:0.25px"/><line x1="153.7" y1="102.136" x2="153.751" y2="124.236" style="fill:none;stroke:#2f3461;stroke-linecap:round;stroke-linejoin:round;stroke-width:0.25px"/><polyline points="151.346 122.142 153.751 124.236 155.746 122.031" style="fill:none;stroke:#2f3461;stroke-linecap:round;stroke-linejoin:round;stroke-width:0.25px"/><rect x="160.919" y="100.606" width="11.6" height="19.6" transform="translate(-0.253 0.383) rotate(-0.132)" style="fill:none;stroke:#2f3461;stroke-miterlimit:10;stroke-width:0.25px"/><line x1="160.897" y1="100.52" x2="172.642" y2="120.193" style="fill:none;stroke:#2f3461;stroke-miterlimit:10;stroke-width:0.25px"/><line x1="160.942" y1="120.22" x2="172.597" y2="100.493" style="fill:none;stroke:#2f3461;stroke-miterlimit:10;stroke-width:0.25px"/><rect x="160.874" y="85.706" width="11.7" height="10.3" transform="translate(-0.208 0.383) rotate(-0.132)" style="fill:none;stroke:#2f3461;stroke-miterlimit:10;stroke-width:0.25px"/><line x1="160.863" y1="85.72" x2="172.586" y2="95.993" style="fill:none;stroke:#2f3461;stroke-miterlimit:10;stroke-width:0.25px"/><line x1="160.886" y1="96.02" x2="172.563" y2="85.693" style="fill:none;stroke:#2f3461;stroke-miterlimit:10;stroke-width:0.25px"/><path d="M174.983,138.287h0.6c0.106,2.6,1.911,4.9,3.014,6.093l0.1,0.1,6.286-6.214,0.7,0-0.005-2.3-10.8.025,0.005,2.3h0.1Zm9.9-2.123,0,2-9.1.021,0-2Zm-6.182,8.014c-1.1-1.1-2.908-3.393-2.914-5.893l8.9-.02Z" style="fill:#2f3461"/><path d="M145.383,138.155h0.6c0.094-2.6,1.889-4.9,2.986-6.107l0.1-.1,6.314,6.186,0.7,0,0.006,2.4-10.7.025-0.006-2.4h0Zm9.905,2.177,0-2-9.1.021,0,2Zm-6.219-8.086c-1.1,1.1-2.892,3.407-2.886,5.907l8.9-.02Z" style="fill:#2f3461"/><path d="M176.957,83.183l11.2-.026v0.4l-11.2.026v-0.4m-0.3-.3,0,0.9,11.7-.027,0-.9Z" style="fill:#2f3461"/><path d="M182.669,88.47l4.889-4.711,0-.8-6.7.015,0,0.7A6.551,6.551,0,0,0,182.669,88.47Z" style="fill:none;stroke:#2f3461;stroke-linecap:round;stroke-miterlimit:10;stroke-width:0.25px"/><rect x="187.536" y="83.008" width="0.8" height="0.8" transform="translate(-0.191 0.432) rotate(-0.132)" style="fill:#2f3461"/><rect x="176.67" y="82.967" width="0.8" height="0.8" transform="translate(-0.191 0.407) rotate(-0.132)" style="fill:#2f3461"/><path d="M179.863,86.076l-2.406-2.394,0-.8,3.4-.008,0,0.8A3.312,3.312,0,0,1,179.863,86.076Z" style="fill:none;stroke:#2f3461;stroke-linecap:round;stroke-miterlimit:10;stroke-width:0.25px"/><path d="M119.058,83.916l8-.018v0.4l-8,.018v-0.4m-0.3-.2,0,0.9,8.5-.02,0-.9Z" style="fill:#2f3461"/><path d="M124.547,79.1l-4.989,4.711,0,0.7,6.9-.016,0-.7A6.258,6.258,0,0,0,124.547,79.1Z" style="fill:none;stroke:#2f3461;stroke-linecap:round;stroke-miterlimit:10;stroke-width:0.25px"/><rect x="118.825" y="83.719" width="0.8" height="0.8" transform="translate(-0.193 0.274) rotate(-0.132)" style="fill:#2f3461"/><rect x="126.463" y="83.765" width="0.8" height="0.8" transform="translate(-0.193 0.292) rotate(-0.132)" style="fill:#2f3461"/><path d="M77.059,84.112l8-.018v0.4l-8,.018v-0.4m-0.3-.2,0,0.9,8.5-.02,0-.9Z" style="fill:#2f3461"/><path d="M82.548,79.3l-4.989,4.711,0,0.7,6.9-.016,0-.7A6.258,6.258,0,0,0,82.548,79.3Z" style="fill:none;stroke:#2f3461;stroke-linecap:round;stroke-miterlimit:10;stroke-width:0.25px"/><rect x="76.834" y="83.902" width="0.8" height="0.8" transform="translate(-0.193 0.178) rotate(-0.132)" style="fill:#2f3461"/><rect x="84.471" y="83.947" width="0.8" height="0.8" transform="translate(-0.193 0.195) rotate(-0.132)" style="fill:#2f3461"/><path d="M75.327,70.316h0.4l0.018,8h-0.4l-0.018-8m-0.2-.3,0.02,8.5,0.9,0-0.02-8.5Z" style="fill:#2f3461"/><path d="M80.64,75.8l-4.711-4.989-0.7,0,0.016,6.9,0.7,0A6.574,6.574,0,0,0,80.64,75.8Z" style="fill:none;stroke:#2f3461;stroke-linecap:round;stroke-miterlimit:10;stroke-width:0.25px"/><rect x="75.204" y="70.101" width="0.8" height="0.8" transform="translate(-0.162 0.174) rotate(-0.132)" style="fill:#2f3461"/><rect x="75.222" y="77.676" width="0.8" height="0.8" transform="translate(-0.179 0.174) rotate(-0.132)" style="fill:#2f3461"/><path d="M126.623,68.5l8-.018v0.4l-8,.018V68.5m-0.3-.2,0,0.9,8.5-.02,0-.9Z" style="fill:#2f3461"/><path d="M132.135,73.786L127.124,69.1l0-.7,6.9-.016,0,0.7A6.574,6.574,0,0,1,132.135,73.786Z" style="fill:none;stroke:#2f3461;stroke-linecap:round;stroke-miterlimit:10;stroke-width:0.25px"/><rect x="126.433" y="68.367" width="0.8" height="0.8" transform="translate(-0.158 0.291) rotate(-0.132)" style="fill:#2f3461"/><rect x="134.07" y="68.312" width="0.8" height="0.8" transform="translate(-0.157 0.309) rotate(-0.132)" style="fill:#2f3461"/><path d="M170.323,68.4l8-.018v0.4l-8,.018V68.4m-0.2-.2,0,0.9,8.5-.02,0-.9Z" style="fill:#2f3461"/><path d="M175.935,73.585L170.924,68.9l0-.7,6.9-.016,0,0.8A6.6,6.6,0,0,1,175.935,73.585Z" style="fill:none;stroke:#2f3461;stroke-linecap:round;stroke-miterlimit:10;stroke-width:0.25px"/><rect x="170.137" y="68.194" width="0.8" height="0.8" transform="translate(-0.157 0.392) rotate(-0.132)" style="fill:#2f3461"/><rect x="177.775" y="68.139" width="0.8" height="0.8" transform="translate(-0.157 0.409) rotate(-0.132)" style="fill:#2f3461"/><path d="M215.823,68.293l8-.018v0.4l-8,.018v-0.4m-0.3-.3,0,0.9,8.5-.02,0-.9Z" style="fill:#2f3461"/><path d="M221.335,73.481l-5.011-4.689,0-.7,6.9-.016,0,0.7A6.258,6.258,0,0,1,221.335,73.481Z" style="fill:none;stroke:#2f3461;stroke-linecap:round;stroke-miterlimit:10;stroke-width:0.25px"/><rect x="215.567" y="68.03" width="0.8" height="0.8" transform="translate(-0.157 0.496) rotate(-0.132)" style="fill:#2f3461"/><rect x="223.205" y="68.075" width="0.8" height="0.8" transform="translate(-0.157 0.514) rotate(-0.132)" style="fill:#2f3461"/><path d="M210.658,83.805l8-.018v0.4l-8,.018v-0.4m-0.3-.2,0,0.9,8.5-.02,0-.9Z" style="fill:#2f3461"/><path d="M213.047,79l5.011,4.689,0,0.7-6.9.016,0-.7A6.258,6.258,0,0,1,213.047,79Z" style="fill:none;stroke:#2f3461;stroke-linecap:round;stroke-miterlimit:10;stroke-width:0.25px"/><rect x="218.033" y="83.562" width="0.8" height="0.8" transform="translate(-0.192 0.502) rotate(-0.132)" style="fill:#2f3461"/><rect x="210.396" y="83.643" width="0.8" height="0.8" transform="translate(-0.192 0.484) rotate(-0.132)" style="fill:#2f3461"/><path d="M280.323,68.245l8-.018v0.4l-8,.018v-0.4m-0.2-.2,0,0.9,8.5-.02,0-.9Z" style="fill:#2f3461"/><path d="M285.935,73.532l-5.011-4.689,0-.7,6.9-.016,0,0.7A6.574,6.574,0,0,1,285.935,73.532Z" style="fill:none;stroke:#2f3461;stroke-linecap:round;stroke-miterlimit:10;stroke-width:0.25px"/><rect x="280.178" y="68.063" width="0.8" height="0.8" transform="translate(-0.156 0.645) rotate(-0.132)" style="fill:#2f3461"/><rect x="287.815" y="68.008" width="0.8" height="0.8" transform="translate(-0.156 0.662) rotate(-0.132)" style="fill:#2f3461"/><path d="M274.758,83.658l8-.018v0.4l-8,.018v-0.4m-0.3-.2,0,0.9,8.5-.02,0-.9Z" style="fill:#2f3461"/><path d="M277.147,78.853l5.011,4.689,0,0.7-6.9.016,0-.7A6.258,6.258,0,0,1,277.147,78.853Z" style="fill:none;stroke:#2f3461;stroke-linecap:round;stroke-miterlimit:10;stroke-width:0.25px"/><rect x="282.115" y="83.461" width="0.8" height="0.8" transform="translate(-0.192 0.649) rotate(-0.132)" style="fill:#2f3461"/><rect x="274.478" y="83.542" width="0.8" height="0.8" transform="translate(-0.192 0.631) rotate(-0.132)" style="fill:#2f3461"/><path d="M314.822,67.966l8-.018v0.4l-8,.018v-0.4m-0.3-.2,0,0.9,8.5-.02,0-.9Z" style="fill:#2f3461"/><path d="M317.234,73.26l4.989-4.711,0-.7-6.9.016,0,0.7A6.574,6.574,0,0,0,317.234,73.26Z" style="fill:none;stroke:#2f3461;stroke-linecap:round;stroke-miterlimit:10;stroke-width:0.25px"/><rect x="322.161" y="67.77" width="0.8" height="0.8" transform="translate(-0.156 0.741) rotate(-0.132)" style="fill:#2f3461"/><rect x="314.524" y="67.851" width="0.8" height="0.8" transform="translate(-0.156 0.723) rotate(-0.132)" style="fill:#2f3461"/><path d="M316.258,83.563l8-.018v0.4l-8,.018v-0.4m-0.2-.3,0,0.9,8.5-.02,0-.9Z" style="fill:#2f3461"/><path d="M318.647,78.657l5.011,4.689,0,0.7-6.9.016,0-.7A7.022,7.022,0,0,1,318.647,78.657Z" style="fill:none;stroke:#2f3461;stroke-linecap:round;stroke-miterlimit:10;stroke-width:0.25px"/><rect x="323.665" y="83.32" width="0.8" height="0.8" transform="translate(-0.191 0.744) rotate(-0.132)" style="fill:#2f3461"/><rect x="316.029" y="83.4" width="0.8" height="0.8" transform="translate(-0.192 0.727) rotate(-0.132)" style="fill:#2f3461"/><path d="M328.935,73.734h0.4l0.018,8h-0.4l-0.018-8m-0.3-.2,0.02,8.5,0.9,0-0.02-8.5Z" style="fill:#2f3461"/><path d="M324.041,76.145l4.711,4.989,0.7,0-0.016-6.9-0.7,0A6.834,6.834,0,0,0,324.041,76.145Z" style="fill:none;stroke:#2f3461;stroke-linecap:round;stroke-miterlimit:10;stroke-width:0.25px"/><rect x="328.653" y="81.133" width="0.8" height="0.8" transform="translate(-0.186 0.756) rotate(-0.132)" style="fill:#2f3461"/><rect x="328.636" y="73.533" width="0.8" height="0.8" transform="translate(-0.169 0.756) rotate(-0.132)" style="fill:#2f3461"/></svg>